M48
; DRILL file {KiCad (6.0.11)} date Sun Feb 12 19:00:02 2023
; FORMAT={-:-/ absolute / inch / decimal}
; #@! TF.CreationDate,2023-02-12T19:00:02-06:00
; #@! TF.GenerationSoftware,Kicad,Pcbnew,(6.0.11)
; #@! TF.FileFunction,MixedPlating,1,2
FMAT,2
INCH
; #@! TA.AperFunction,Plated,PTH,ComponentDrill
T1C0.0315
; #@! TA.AperFunction,Plated,PTH,ComponentDrill
T2C0.0394
; #@! TA.AperFunction,Plated,PTH,ComponentDrill
T3C0.0402
; #@! TA.AperFunction,Plated,PTH,ComponentDrill
T4C0.0430
; #@! TA.AperFunction,Plated,PTH,ComponentDrill
T5C0.1260
%
G90
G05
T1
X5.35Y-2.72
X5.35Y-2.84
X5.35Y-2.96
X5.35Y-3.08
X5.35Y-3.22
X5.35Y-3.34
X5.35Y-3.46
X5.35Y-3.58
X5.35Y-3.76
X5.35Y-3.96
X5.35Y-4.25
X5.65Y-2.72
X5.65Y-2.84
X5.65Y-2.96
X5.65Y-3.08
X5.65Y-3.22
X5.65Y-3.34
X5.65Y-3.46
X5.65Y-3.58
X5.65Y-3.76
X5.65Y-3.96
X5.65Y-4.25
X5.83Y-3.53
X5.83Y-3.83
X5.83Y-3.96
X5.83Y-4.26
T2
X5.4022Y-2.5197
X5.5022Y-2.5197
X5.6022Y-2.5197
X5.7022Y-2.5197
X5.8022Y-2.5197
T3
X5.252Y-2.3583
X5.252Y-2.4583
X5.252Y-2.5583
X5.252Y-2.6583
X5.252Y-2.7583
X5.252Y-2.8583
X5.252Y-2.9583
X5.252Y-3.0583
X5.252Y-3.1583
X5.252Y-3.2583
X5.252Y-3.3583
X5.252Y-3.4583
X5.252Y-3.5583
X5.252Y-3.6583
X5.252Y-3.7583
X5.252Y-3.8583
X5.252Y-3.9583
X5.252Y-4.0583
X5.252Y-4.1583
X5.252Y-4.2583
X5.952Y-2.3583
X5.952Y-2.4583
X5.952Y-2.5583
X5.952Y-2.6583
X5.952Y-2.7583
X5.952Y-2.8583
X5.952Y-2.9583
X5.952Y-3.0583
X5.952Y-3.1583
X5.952Y-3.2583
X5.952Y-3.3583
X5.952Y-3.4583
X5.952Y-3.5583
X5.952Y-3.6583
X5.952Y-3.7583
X5.952Y-3.8583
X5.952Y-3.9583
X5.952Y-4.0583
X5.952Y-4.1583
X5.952Y-4.2583
T4
X5.4108Y-4.4343
X5.4108Y-4.6343
X5.4545Y-4.5343
X5.501Y-4.4343
X5.501Y-4.6343
X5.5447Y-4.5343
X5.5912Y-4.4343
X5.5912Y-4.6343
X5.6348Y-4.5343
X5.6813Y-4.4343
X5.6813Y-4.6343
X5.725Y-4.5343
X5.7715Y-4.4343
X5.7715Y-4.6343
X5.8152Y-4.5343
T5
X5.1091Y-4.5343
X6.0929Y-4.5343
T0
M30
