%TF.GenerationSoftware,KiCad,Pcbnew,(6.0.11)*%
%TF.CreationDate,2023-02-12T16:37:12-06:00*%
%TF.ProjectId,video_if_ql_vga,76696465-6f5f-4696-965f-716c5f766761,v1.0*%
%TF.SameCoordinates,Original*%
%TF.FileFunction,Legend,Bot*%
%TF.FilePolarity,Positive*%
%FSLAX46Y46*%
G04 Gerber Fmt 4.6, Leading zero omitted, Abs format (unit mm)*
G04 Created by KiCad (PCBNEW (6.0.11)) date 2023-02-12 16:37:12*
%MOMM*%
%LPD*%
G01*
G04 APERTURE LIST*
%ADD10C,0.200000*%
%ADD11C,0.150000*%
G04 APERTURE END LIST*
D10*
X139346857Y-104578285D02*
X139275428Y-104364000D01*
X139275428Y-104006857D01*
X139346857Y-103864000D01*
X139418285Y-103792571D01*
X139561142Y-103721142D01*
X139704000Y-103721142D01*
X139846857Y-103792571D01*
X139918285Y-103864000D01*
X139989714Y-104006857D01*
X140061142Y-104292571D01*
X140132571Y-104435428D01*
X140204000Y-104506857D01*
X140346857Y-104578285D01*
X140489714Y-104578285D01*
X140632571Y-104506857D01*
X140704000Y-104435428D01*
X140775428Y-104292571D01*
X140775428Y-103935428D01*
X140704000Y-103721142D01*
X139275428Y-103078285D02*
X140275428Y-103078285D01*
X140775428Y-103078285D02*
X140704000Y-103149714D01*
X140632571Y-103078285D01*
X140704000Y-103006857D01*
X140775428Y-103078285D01*
X140632571Y-103078285D01*
X140275428Y-102364000D02*
X139275428Y-102364000D01*
X140132571Y-102364000D02*
X140204000Y-102292571D01*
X140275428Y-102149714D01*
X140275428Y-101935428D01*
X140204000Y-101792571D01*
X140061142Y-101721142D01*
X139275428Y-101721142D01*
X139346857Y-100364000D02*
X139275428Y-100506857D01*
X139275428Y-100792571D01*
X139346857Y-100935428D01*
X139418285Y-101006857D01*
X139561142Y-101078285D01*
X139989714Y-101078285D01*
X140132571Y-101006857D01*
X140204000Y-100935428D01*
X140275428Y-100792571D01*
X140275428Y-100506857D01*
X140204000Y-100364000D01*
X139275428Y-99506857D02*
X139346857Y-99649714D01*
X139489714Y-99721142D01*
X140775428Y-99721142D01*
X139275428Y-98292571D02*
X140061142Y-98292571D01*
X140204000Y-98364000D01*
X140275428Y-98506857D01*
X140275428Y-98792571D01*
X140204000Y-98935428D01*
X139346857Y-98292571D02*
X139275428Y-98435428D01*
X139275428Y-98792571D01*
X139346857Y-98935428D01*
X139489714Y-99006857D01*
X139632571Y-99006857D01*
X139775428Y-98935428D01*
X139846857Y-98792571D01*
X139846857Y-98435428D01*
X139918285Y-98292571D01*
X139275428Y-97578285D02*
X140275428Y-97578285D01*
X140775428Y-97578285D02*
X140704000Y-97649714D01*
X140632571Y-97578285D01*
X140704000Y-97506857D01*
X140775428Y-97578285D01*
X140632571Y-97578285D01*
X139275428Y-96864000D02*
X140275428Y-96864000D01*
X139989714Y-96864000D02*
X140132571Y-96792571D01*
X140204000Y-96721142D01*
X140275428Y-96578285D01*
X140275428Y-96435428D01*
X139132571Y-93792571D02*
X139204000Y-93935428D01*
X139346857Y-94078285D01*
X139561142Y-94292571D01*
X139632571Y-94435428D01*
X139632571Y-94578285D01*
X139275428Y-94506857D02*
X139346857Y-94649714D01*
X139489714Y-94792571D01*
X139775428Y-94864000D01*
X140275428Y-94864000D01*
X140561142Y-94792571D01*
X140704000Y-94649714D01*
X140775428Y-94506857D01*
X140775428Y-94221142D01*
X140704000Y-94078285D01*
X140561142Y-93935428D01*
X140275428Y-93864000D01*
X139775428Y-93864000D01*
X139489714Y-93935428D01*
X139346857Y-94078285D01*
X139275428Y-94221142D01*
X139275428Y-94506857D01*
X139275428Y-92506857D02*
X139275428Y-93221142D01*
X140775428Y-93221142D01*
X140275428Y-91078285D02*
X140275428Y-90506857D01*
X140775428Y-90864000D02*
X139489714Y-90864000D01*
X139346857Y-90792571D01*
X139275428Y-90649714D01*
X139275428Y-90506857D01*
X139275428Y-89792571D02*
X139346857Y-89935428D01*
X139418285Y-90006857D01*
X139561142Y-90078285D01*
X139989714Y-90078285D01*
X140132571Y-90006857D01*
X140204000Y-89935428D01*
X140275428Y-89792571D01*
X140275428Y-89578285D01*
X140204000Y-89435428D01*
X140132571Y-89364000D01*
X139989714Y-89292571D01*
X139561142Y-89292571D01*
X139418285Y-89364000D01*
X139346857Y-89435428D01*
X139275428Y-89578285D01*
X139275428Y-89792571D01*
X140775428Y-87721142D02*
X139275428Y-87221142D01*
X140775428Y-86721142D01*
X140704000Y-85435428D02*
X140775428Y-85578285D01*
X140775428Y-85792571D01*
X140704000Y-86006857D01*
X140561142Y-86149714D01*
X140418285Y-86221142D01*
X140132571Y-86292571D01*
X139918285Y-86292571D01*
X139632571Y-86221142D01*
X139489714Y-86149714D01*
X139346857Y-86006857D01*
X139275428Y-85792571D01*
X139275428Y-85649714D01*
X139346857Y-85435428D01*
X139418285Y-85364000D01*
X139918285Y-85364000D01*
X139918285Y-85649714D01*
X139704000Y-84792571D02*
X139704000Y-84078285D01*
X139275428Y-84935428D02*
X140775428Y-84435428D01*
X139275428Y-83935428D01*
X139704000Y-82364000D02*
X139704000Y-81649714D01*
X139275428Y-82506857D02*
X140775428Y-82006857D01*
X139275428Y-81506857D01*
X139275428Y-80364000D02*
X140775428Y-80364000D01*
X139346857Y-80364000D02*
X139275428Y-80506857D01*
X139275428Y-80792571D01*
X139346857Y-80935428D01*
X139418285Y-81006857D01*
X139561142Y-81078285D01*
X139989714Y-81078285D01*
X140132571Y-81006857D01*
X140204000Y-80935428D01*
X140275428Y-80792571D01*
X140275428Y-80506857D01*
X140204000Y-80364000D01*
X139275428Y-79006857D02*
X140061142Y-79006857D01*
X140204000Y-79078285D01*
X140275428Y-79221142D01*
X140275428Y-79506857D01*
X140204000Y-79649714D01*
X139346857Y-79006857D02*
X139275428Y-79149714D01*
X139275428Y-79506857D01*
X139346857Y-79649714D01*
X139489714Y-79721142D01*
X139632571Y-79721142D01*
X139775428Y-79649714D01*
X139846857Y-79506857D01*
X139846857Y-79149714D01*
X139918285Y-79006857D01*
X140275428Y-78292571D02*
X138775428Y-78292571D01*
X140204000Y-78292571D02*
X140275428Y-78149714D01*
X140275428Y-77864000D01*
X140204000Y-77721142D01*
X140132571Y-77649714D01*
X139989714Y-77578285D01*
X139561142Y-77578285D01*
X139418285Y-77649714D01*
X139346857Y-77721142D01*
X139275428Y-77864000D01*
X139275428Y-78149714D01*
X139346857Y-78292571D01*
X140275428Y-77149714D02*
X140275428Y-76578285D01*
X140775428Y-76935428D02*
X139489714Y-76935428D01*
X139346857Y-76864000D01*
X139275428Y-76721142D01*
X139275428Y-76578285D01*
X139346857Y-75506857D02*
X139275428Y-75649714D01*
X139275428Y-75935428D01*
X139346857Y-76078285D01*
X139489714Y-76149714D01*
X140061142Y-76149714D01*
X140204000Y-76078285D01*
X140275428Y-75935428D01*
X140275428Y-75649714D01*
X140204000Y-75506857D01*
X140061142Y-75435428D01*
X139918285Y-75435428D01*
X139775428Y-76149714D01*
X139275428Y-74792571D02*
X140275428Y-74792571D01*
X139989714Y-74792571D02*
X140132571Y-74721142D01*
X140204000Y-74649714D01*
X140275428Y-74506857D01*
X140275428Y-74364000D01*
X140275428Y-72864000D02*
X139275428Y-72506857D01*
X140275428Y-72149714D01*
X139275428Y-70792571D02*
X139275428Y-71649714D01*
X139275428Y-71221142D02*
X140775428Y-71221142D01*
X140561142Y-71364000D01*
X140418285Y-71506857D01*
X140346857Y-71649714D01*
X139418285Y-70149714D02*
X139346857Y-70078285D01*
X139275428Y-70149714D01*
X139346857Y-70221142D01*
X139418285Y-70149714D01*
X139275428Y-70149714D01*
X140775428Y-69149714D02*
X140775428Y-69006857D01*
X140704000Y-68864000D01*
X140632571Y-68792571D01*
X140489714Y-68721142D01*
X140204000Y-68649714D01*
X139846857Y-68649714D01*
X139561142Y-68721142D01*
X139418285Y-68792571D01*
X139346857Y-68864000D01*
X139275428Y-69006857D01*
X139275428Y-69149714D01*
X139346857Y-69292571D01*
X139418285Y-69364000D01*
X139561142Y-69435428D01*
X139846857Y-69506857D01*
X140204000Y-69506857D01*
X140489714Y-69435428D01*
X140632571Y-69364000D01*
X140704000Y-69292571D01*
X140775428Y-69149714D01*
X128353428Y-110161428D02*
X129853428Y-110161428D01*
X129853428Y-109804285D01*
X129782000Y-109590000D01*
X129639142Y-109447142D01*
X129496285Y-109375714D01*
X129210571Y-109304285D01*
X128996285Y-109304285D01*
X128710571Y-109375714D01*
X128567714Y-109447142D01*
X128424857Y-109590000D01*
X128353428Y-109804285D01*
X128353428Y-110161428D01*
X128424857Y-108090000D02*
X128353428Y-108232857D01*
X128353428Y-108518571D01*
X128424857Y-108661428D01*
X128567714Y-108732857D01*
X129139142Y-108732857D01*
X129282000Y-108661428D01*
X129353428Y-108518571D01*
X129353428Y-108232857D01*
X129282000Y-108090000D01*
X129139142Y-108018571D01*
X128996285Y-108018571D01*
X128853428Y-108732857D01*
X128424857Y-107447142D02*
X128353428Y-107304285D01*
X128353428Y-107018571D01*
X128424857Y-106875714D01*
X128567714Y-106804285D01*
X128639142Y-106804285D01*
X128782000Y-106875714D01*
X128853428Y-107018571D01*
X128853428Y-107232857D01*
X128924857Y-107375714D01*
X129067714Y-107447142D01*
X129139142Y-107447142D01*
X129282000Y-107375714D01*
X129353428Y-107232857D01*
X129353428Y-107018571D01*
X129282000Y-106875714D01*
X128353428Y-106161428D02*
X129353428Y-106161428D01*
X129853428Y-106161428D02*
X129782000Y-106232857D01*
X129710571Y-106161428D01*
X129782000Y-106090000D01*
X129853428Y-106161428D01*
X129710571Y-106161428D01*
X129353428Y-104804285D02*
X128139142Y-104804285D01*
X127996285Y-104875714D01*
X127924857Y-104947142D01*
X127853428Y-105090000D01*
X127853428Y-105304285D01*
X127924857Y-105447142D01*
X128424857Y-104804285D02*
X128353428Y-104947142D01*
X128353428Y-105232857D01*
X128424857Y-105375714D01*
X128496285Y-105447142D01*
X128639142Y-105518571D01*
X129067714Y-105518571D01*
X129210571Y-105447142D01*
X129282000Y-105375714D01*
X129353428Y-105232857D01*
X129353428Y-104947142D01*
X129282000Y-104804285D01*
X129353428Y-104090000D02*
X128353428Y-104090000D01*
X129210571Y-104090000D02*
X129282000Y-104018571D01*
X129353428Y-103875714D01*
X129353428Y-103661428D01*
X129282000Y-103518571D01*
X129139142Y-103447142D01*
X128353428Y-103447142D01*
X128353428Y-101590000D02*
X129853428Y-101590000D01*
X129282000Y-101590000D02*
X129353428Y-101447142D01*
X129353428Y-101161428D01*
X129282000Y-101018571D01*
X129210571Y-100947142D01*
X129067714Y-100875714D01*
X128639142Y-100875714D01*
X128496285Y-100947142D01*
X128424857Y-101018571D01*
X128353428Y-101161428D01*
X128353428Y-101447142D01*
X128424857Y-101590000D01*
X129353428Y-100375714D02*
X128353428Y-100018571D01*
X129353428Y-99661428D02*
X128353428Y-100018571D01*
X127996285Y-100161428D01*
X127924857Y-100232857D01*
X127853428Y-100375714D01*
X128353428Y-97947142D02*
X129853428Y-97947142D01*
X128353428Y-97304285D02*
X129139142Y-97304285D01*
X129282000Y-97375714D01*
X129353428Y-97518571D01*
X129353428Y-97732857D01*
X129282000Y-97875714D01*
X129210571Y-97947142D01*
X128353428Y-96375714D02*
X128424857Y-96518571D01*
X128496285Y-96590000D01*
X128639142Y-96661428D01*
X129067714Y-96661428D01*
X129210571Y-96590000D01*
X129282000Y-96518571D01*
X129353428Y-96375714D01*
X129353428Y-96161428D01*
X129282000Y-96018571D01*
X129210571Y-95947142D01*
X129067714Y-95875714D01*
X128639142Y-95875714D01*
X128496285Y-95947142D01*
X128424857Y-96018571D01*
X128353428Y-96161428D01*
X128353428Y-96375714D01*
X128353428Y-95018571D02*
X128424857Y-95161428D01*
X128567714Y-95232857D01*
X129853428Y-95232857D01*
X128353428Y-94447142D02*
X129353428Y-94447142D01*
X129210571Y-94447142D02*
X129282000Y-94375714D01*
X129353428Y-94232857D01*
X129353428Y-94018571D01*
X129282000Y-93875714D01*
X129139142Y-93804285D01*
X128353428Y-93804285D01*
X129139142Y-93804285D02*
X129282000Y-93732857D01*
X129353428Y-93590000D01*
X129353428Y-93375714D01*
X129282000Y-93232857D01*
X129139142Y-93161428D01*
X128353428Y-93161428D01*
X128353428Y-91804285D02*
X129139142Y-91804285D01*
X129282000Y-91875714D01*
X129353428Y-92018571D01*
X129353428Y-92304285D01*
X129282000Y-92447142D01*
X128424857Y-91804285D02*
X128353428Y-91947142D01*
X128353428Y-92304285D01*
X128424857Y-92447142D01*
X128567714Y-92518571D01*
X128710571Y-92518571D01*
X128853428Y-92447142D01*
X128924857Y-92304285D01*
X128924857Y-91947142D01*
X128996285Y-91804285D01*
X129353428Y-91304285D02*
X129353428Y-90732857D01*
X129853428Y-91090000D02*
X128567714Y-91090000D01*
X128424857Y-91018571D01*
X128353428Y-90875714D01*
X128353428Y-90732857D01*
X128353428Y-90232857D02*
X129353428Y-90232857D01*
X129853428Y-90232857D02*
X129782000Y-90304285D01*
X129710571Y-90232857D01*
X129782000Y-90161428D01*
X129853428Y-90232857D01*
X129710571Y-90232857D01*
X128424857Y-88875714D02*
X128353428Y-89018571D01*
X128353428Y-89304285D01*
X128424857Y-89447142D01*
X128496285Y-89518571D01*
X128639142Y-89590000D01*
X129067714Y-89590000D01*
X129210571Y-89518571D01*
X129282000Y-89447142D01*
X129353428Y-89304285D01*
X129353428Y-89018571D01*
X129282000Y-88875714D01*
X128353428Y-84804285D02*
X129853428Y-84804285D01*
X129853428Y-84232857D01*
X129782000Y-84090000D01*
X129710571Y-84018571D01*
X129567714Y-83947142D01*
X129353428Y-83947142D01*
X129210571Y-84018571D01*
X129139142Y-84090000D01*
X129067714Y-84232857D01*
X129067714Y-84804285D01*
X128496285Y-82447142D02*
X128424857Y-82518571D01*
X128353428Y-82732857D01*
X128353428Y-82875714D01*
X128424857Y-83090000D01*
X128567714Y-83232857D01*
X128710571Y-83304285D01*
X128996285Y-83375714D01*
X129210571Y-83375714D01*
X129496285Y-83304285D01*
X129639142Y-83232857D01*
X129782000Y-83090000D01*
X129853428Y-82875714D01*
X129853428Y-82732857D01*
X129782000Y-82518571D01*
X129710571Y-82447142D01*
X129139142Y-81304285D02*
X129067714Y-81090000D01*
X128996285Y-81018571D01*
X128853428Y-80947142D01*
X128639142Y-80947142D01*
X128496285Y-81018571D01*
X128424857Y-81090000D01*
X128353428Y-81232857D01*
X128353428Y-81804285D01*
X129853428Y-81804285D01*
X129853428Y-81304285D01*
X129782000Y-81161428D01*
X129710571Y-81090000D01*
X129567714Y-81018571D01*
X129424857Y-81018571D01*
X129282000Y-81090000D01*
X129210571Y-81161428D01*
X129139142Y-81304285D01*
X129139142Y-81804285D01*
X128353428Y-79161428D02*
X129853428Y-79161428D01*
X129282000Y-79161428D02*
X129353428Y-79018571D01*
X129353428Y-78732857D01*
X129282000Y-78590000D01*
X129210571Y-78518571D01*
X129067714Y-78447142D01*
X128639142Y-78447142D01*
X128496285Y-78518571D01*
X128424857Y-78590000D01*
X128353428Y-78732857D01*
X128353428Y-79018571D01*
X128424857Y-79161428D01*
X129353428Y-77947142D02*
X128353428Y-77590000D01*
X129353428Y-77232857D02*
X128353428Y-77590000D01*
X127996285Y-77732857D01*
X127924857Y-77804285D01*
X127853428Y-77947142D01*
X128496285Y-74661428D02*
X128424857Y-74732857D01*
X128353428Y-74947142D01*
X128353428Y-75090000D01*
X128424857Y-75304285D01*
X128567714Y-75447142D01*
X128710571Y-75518571D01*
X128996285Y-75590000D01*
X129210571Y-75590000D01*
X129496285Y-75518571D01*
X129639142Y-75447142D01*
X129782000Y-75304285D01*
X129853428Y-75090000D01*
X129853428Y-74947142D01*
X129782000Y-74732857D01*
X129710571Y-74661428D01*
X128353428Y-74018571D02*
X129853428Y-74018571D01*
X128353428Y-73375714D02*
X129139142Y-73375714D01*
X129282000Y-73447142D01*
X129353428Y-73590000D01*
X129353428Y-73804285D01*
X129282000Y-73947142D01*
X129210571Y-74018571D01*
X128353428Y-72661428D02*
X129353428Y-72661428D01*
X129067714Y-72661428D02*
X129210571Y-72590000D01*
X129282000Y-72518571D01*
X129353428Y-72375714D01*
X129353428Y-72232857D01*
X128353428Y-71732857D02*
X129353428Y-71732857D01*
X129853428Y-71732857D02*
X129782000Y-71804285D01*
X129710571Y-71732857D01*
X129782000Y-71661428D01*
X129853428Y-71732857D01*
X129710571Y-71732857D01*
X128424857Y-71090000D02*
X128353428Y-70947142D01*
X128353428Y-70661428D01*
X128424857Y-70518571D01*
X128567714Y-70447142D01*
X128639142Y-70447142D01*
X128782000Y-70518571D01*
X128853428Y-70661428D01*
X128853428Y-70875714D01*
X128924857Y-71018571D01*
X129067714Y-71090000D01*
X129139142Y-71090000D01*
X129282000Y-71018571D01*
X129353428Y-70875714D01*
X129353428Y-70661428D01*
X129282000Y-70518571D01*
X129853428Y-68875714D02*
X129853428Y-68018571D01*
X128353428Y-68447142D02*
X129853428Y-68447142D01*
X128424857Y-66947142D02*
X128353428Y-67090000D01*
X128353428Y-67375714D01*
X128424857Y-67518571D01*
X128567714Y-67590000D01*
X129139142Y-67590000D01*
X129282000Y-67518571D01*
X129353428Y-67375714D01*
X129353428Y-67090000D01*
X129282000Y-66947142D01*
X129139142Y-66875714D01*
X128996285Y-66875714D01*
X128853428Y-67590000D01*
X128353428Y-66232857D02*
X129353428Y-66232857D01*
X129067714Y-66232857D02*
X129210571Y-66161428D01*
X129282000Y-66090000D01*
X129353428Y-65947142D01*
X129353428Y-65804285D01*
X128424857Y-65375714D02*
X128353428Y-65232857D01*
X128353428Y-64947142D01*
X128424857Y-64804285D01*
X128567714Y-64732857D01*
X128639142Y-64732857D01*
X128782000Y-64804285D01*
X128853428Y-64947142D01*
X128853428Y-65161428D01*
X128924857Y-65304285D01*
X129067714Y-65375714D01*
X129139142Y-65375714D01*
X129282000Y-65304285D01*
X129353428Y-65161428D01*
X129353428Y-64947142D01*
X129282000Y-64804285D01*
X129353428Y-64304285D02*
X129353428Y-63732857D01*
X129853428Y-64090000D02*
X128567714Y-64090000D01*
X128424857Y-64018571D01*
X128353428Y-63875714D01*
X128353428Y-63732857D01*
X128424857Y-62661428D02*
X128353428Y-62804285D01*
X128353428Y-63090000D01*
X128424857Y-63232857D01*
X128567714Y-63304285D01*
X129139142Y-63304285D01*
X129282000Y-63232857D01*
X129353428Y-63090000D01*
X129353428Y-62804285D01*
X129282000Y-62661428D01*
X129139142Y-62590000D01*
X128996285Y-62590000D01*
X128853428Y-63304285D01*
X128424857Y-61375714D02*
X128353428Y-61518571D01*
X128353428Y-61804285D01*
X128424857Y-61947142D01*
X128567714Y-62018571D01*
X129139142Y-62018571D01*
X129282000Y-61947142D01*
X129353428Y-61804285D01*
X129353428Y-61518571D01*
X129282000Y-61375714D01*
X129139142Y-61304285D01*
X128996285Y-61304285D01*
X128853428Y-62018571D01*
X129353428Y-60018571D02*
X128139142Y-60018571D01*
X127996285Y-60090000D01*
X127924857Y-60161428D01*
X127853428Y-60304285D01*
X127853428Y-60518571D01*
X127924857Y-60661428D01*
X128424857Y-60018571D02*
X128353428Y-60161428D01*
X128353428Y-60447142D01*
X128424857Y-60590000D01*
X128496285Y-60661428D01*
X128639142Y-60732857D01*
X129067714Y-60732857D01*
X129210571Y-60661428D01*
X129282000Y-60590000D01*
X129353428Y-60447142D01*
X129353428Y-60161428D01*
X129282000Y-60018571D01*
X155261428Y-105212857D02*
X154047142Y-105212857D01*
X153904285Y-105284285D01*
X153832857Y-105355714D01*
X153761428Y-105498571D01*
X153761428Y-105712857D01*
X153832857Y-105855714D01*
X154332857Y-105212857D02*
X154261428Y-105355714D01*
X154261428Y-105641428D01*
X154332857Y-105784285D01*
X154404285Y-105855714D01*
X154547142Y-105927142D01*
X154975714Y-105927142D01*
X155118571Y-105855714D01*
X155190000Y-105784285D01*
X155261428Y-105641428D01*
X155261428Y-105355714D01*
X155190000Y-105212857D01*
X154261428Y-104498571D02*
X155261428Y-104498571D01*
X155761428Y-104498571D02*
X155690000Y-104570000D01*
X155618571Y-104498571D01*
X155690000Y-104427142D01*
X155761428Y-104498571D01*
X155618571Y-104498571D01*
X155261428Y-103998571D02*
X155261428Y-103427142D01*
X155761428Y-103784285D02*
X154475714Y-103784285D01*
X154332857Y-103712857D01*
X154261428Y-103570000D01*
X154261428Y-103427142D01*
X154261428Y-102927142D02*
X155761428Y-102927142D01*
X154261428Y-102284285D02*
X155047142Y-102284285D01*
X155190000Y-102355714D01*
X155261428Y-102498571D01*
X155261428Y-102712857D01*
X155190000Y-102855714D01*
X155118571Y-102927142D01*
X155261428Y-100927142D02*
X154261428Y-100927142D01*
X155261428Y-101570000D02*
X154475714Y-101570000D01*
X154332857Y-101498571D01*
X154261428Y-101355714D01*
X154261428Y-101141428D01*
X154332857Y-100998571D01*
X154404285Y-100927142D01*
X154261428Y-100212857D02*
X155761428Y-100212857D01*
X155190000Y-100212857D02*
X155261428Y-100070000D01*
X155261428Y-99784285D01*
X155190000Y-99641428D01*
X155118571Y-99570000D01*
X154975714Y-99498571D01*
X154547142Y-99498571D01*
X154404285Y-99570000D01*
X154332857Y-99641428D01*
X154261428Y-99784285D01*
X154261428Y-100070000D01*
X154332857Y-100212857D01*
X154404285Y-98855714D02*
X154332857Y-98784285D01*
X154261428Y-98855714D01*
X154332857Y-98927142D01*
X154404285Y-98855714D01*
X154261428Y-98855714D01*
X154332857Y-97498571D02*
X154261428Y-97641428D01*
X154261428Y-97927142D01*
X154332857Y-98070000D01*
X154404285Y-98141428D01*
X154547142Y-98212857D01*
X154975714Y-98212857D01*
X155118571Y-98141428D01*
X155190000Y-98070000D01*
X155261428Y-97927142D01*
X155261428Y-97641428D01*
X155190000Y-97498571D01*
X154261428Y-96641428D02*
X154332857Y-96784285D01*
X154404285Y-96855714D01*
X154547142Y-96927142D01*
X154975714Y-96927142D01*
X155118571Y-96855714D01*
X155190000Y-96784285D01*
X155261428Y-96641428D01*
X155261428Y-96427142D01*
X155190000Y-96284285D01*
X155118571Y-96212857D01*
X154975714Y-96141428D01*
X154547142Y-96141428D01*
X154404285Y-96212857D01*
X154332857Y-96284285D01*
X154261428Y-96427142D01*
X154261428Y-96641428D01*
X154261428Y-95498571D02*
X155261428Y-95498571D01*
X155118571Y-95498571D02*
X155190000Y-95427142D01*
X155261428Y-95284285D01*
X155261428Y-95070000D01*
X155190000Y-94927142D01*
X155047142Y-94855714D01*
X154261428Y-94855714D01*
X155047142Y-94855714D02*
X155190000Y-94784285D01*
X155261428Y-94641428D01*
X155261428Y-94427142D01*
X155190000Y-94284285D01*
X155047142Y-94212857D01*
X154261428Y-94212857D01*
X155832857Y-92427142D02*
X153904285Y-93712857D01*
X154261428Y-91284285D02*
X155761428Y-91284285D01*
X154332857Y-91284285D02*
X154261428Y-91427142D01*
X154261428Y-91712857D01*
X154332857Y-91855714D01*
X154404285Y-91927142D01*
X154547142Y-91998571D01*
X154975714Y-91998571D01*
X155118571Y-91927142D01*
X155190000Y-91855714D01*
X155261428Y-91712857D01*
X155261428Y-91427142D01*
X155190000Y-91284285D01*
X155261428Y-90570000D02*
X153975714Y-90570000D01*
X153832857Y-90641428D01*
X153761428Y-90784285D01*
X153761428Y-90855714D01*
X155761428Y-90570000D02*
X155690000Y-90641428D01*
X155618571Y-90570000D01*
X155690000Y-90498571D01*
X155761428Y-90570000D01*
X155618571Y-90570000D01*
X155261428Y-90070000D02*
X155261428Y-89498571D01*
X155761428Y-89855714D02*
X154475714Y-89855714D01*
X154332857Y-89784285D01*
X154261428Y-89641428D01*
X154261428Y-89498571D01*
X154332857Y-88427142D02*
X154261428Y-88570000D01*
X154261428Y-88855714D01*
X154332857Y-88998571D01*
X154475714Y-89070000D01*
X155047142Y-89070000D01*
X155190000Y-88998571D01*
X155261428Y-88855714D01*
X155261428Y-88570000D01*
X155190000Y-88427142D01*
X155047142Y-88355714D01*
X154904285Y-88355714D01*
X154761428Y-89070000D01*
X154261428Y-87712857D02*
X155261428Y-87712857D01*
X154975714Y-87712857D02*
X155118571Y-87641428D01*
X155190000Y-87570000D01*
X155261428Y-87427142D01*
X155261428Y-87284285D01*
X154332857Y-86855714D02*
X154261428Y-86712857D01*
X154261428Y-86427142D01*
X154332857Y-86284285D01*
X154475714Y-86212857D01*
X154547142Y-86212857D01*
X154690000Y-86284285D01*
X154761428Y-86427142D01*
X154761428Y-86641428D01*
X154832857Y-86784285D01*
X154975714Y-86855714D01*
X155047142Y-86855714D01*
X155190000Y-86784285D01*
X155261428Y-86641428D01*
X155261428Y-86427142D01*
X155190000Y-86284285D01*
X155261428Y-85784285D02*
X155261428Y-85212857D01*
X155761428Y-85570000D02*
X154475714Y-85570000D01*
X154332857Y-85498571D01*
X154261428Y-85355714D01*
X154261428Y-85212857D01*
X154332857Y-84141428D02*
X154261428Y-84284285D01*
X154261428Y-84570000D01*
X154332857Y-84712857D01*
X154475714Y-84784285D01*
X155047142Y-84784285D01*
X155190000Y-84712857D01*
X155261428Y-84570000D01*
X155261428Y-84284285D01*
X155190000Y-84141428D01*
X155047142Y-84070000D01*
X154904285Y-84070000D01*
X154761428Y-84784285D01*
X154332857Y-82855714D02*
X154261428Y-82998571D01*
X154261428Y-83284285D01*
X154332857Y-83427142D01*
X154475714Y-83498571D01*
X155047142Y-83498571D01*
X155190000Y-83427142D01*
X155261428Y-83284285D01*
X155261428Y-82998571D01*
X155190000Y-82855714D01*
X155047142Y-82784285D01*
X154904285Y-82784285D01*
X154761428Y-83498571D01*
X155261428Y-81498571D02*
X154047142Y-81498571D01*
X153904285Y-81570000D01*
X153832857Y-81641428D01*
X153761428Y-81784285D01*
X153761428Y-81998571D01*
X153832857Y-82141428D01*
X154332857Y-81498571D02*
X154261428Y-81641428D01*
X154261428Y-81927142D01*
X154332857Y-82070000D01*
X154404285Y-82141428D01*
X154547142Y-82212857D01*
X154975714Y-82212857D01*
X155118571Y-82141428D01*
X155190000Y-82070000D01*
X155261428Y-81927142D01*
X155261428Y-81641428D01*
X155190000Y-81498571D01*
X154332857Y-80141428D02*
X154261428Y-80284285D01*
X154261428Y-80570000D01*
X154332857Y-80712857D01*
X154404285Y-80784285D01*
X154547142Y-80855714D01*
X154975714Y-80855714D01*
X155118571Y-80784285D01*
X155190000Y-80712857D01*
X155261428Y-80570000D01*
X155261428Y-80284285D01*
X155190000Y-80141428D01*
X155832857Y-78427142D02*
X153904285Y-79712857D01*
X155261428Y-78069999D02*
X154261428Y-77712857D01*
X155261428Y-77355714D01*
X154261428Y-76784285D02*
X155261428Y-76784285D01*
X155761428Y-76784285D02*
X155690000Y-76855714D01*
X155618571Y-76784285D01*
X155690000Y-76712857D01*
X155761428Y-76784285D01*
X155618571Y-76784285D01*
X154261428Y-75427142D02*
X155761428Y-75427142D01*
X154332857Y-75427142D02*
X154261428Y-75570000D01*
X154261428Y-75855714D01*
X154332857Y-75998571D01*
X154404285Y-76070000D01*
X154547142Y-76141428D01*
X154975714Y-76141428D01*
X155118571Y-76070000D01*
X155190000Y-75998571D01*
X155261428Y-75855714D01*
X155261428Y-75570000D01*
X155190000Y-75427142D01*
X154332857Y-74141428D02*
X154261428Y-74284285D01*
X154261428Y-74570000D01*
X154332857Y-74712857D01*
X154475714Y-74784285D01*
X155047142Y-74784285D01*
X155190000Y-74712857D01*
X155261428Y-74570000D01*
X155261428Y-74284285D01*
X155190000Y-74141428D01*
X155047142Y-74070000D01*
X154904285Y-74070000D01*
X154761428Y-74784285D01*
X154261428Y-73212857D02*
X154332857Y-73355714D01*
X154404285Y-73427142D01*
X154547142Y-73498571D01*
X154975714Y-73498571D01*
X155118571Y-73427142D01*
X155190000Y-73355714D01*
X155261428Y-73212857D01*
X155261428Y-72998571D01*
X155190000Y-72855714D01*
X155118571Y-72784285D01*
X154975714Y-72712857D01*
X154547142Y-72712857D01*
X154404285Y-72784285D01*
X154332857Y-72855714D01*
X154261428Y-72998571D01*
X154261428Y-73212857D01*
X154118571Y-72427142D02*
X154118571Y-71284285D01*
X154261428Y-70927142D02*
X155261428Y-70927142D01*
X155761428Y-70927142D02*
X155690000Y-70998571D01*
X155618571Y-70927142D01*
X155690000Y-70855714D01*
X155761428Y-70927142D01*
X155618571Y-70927142D01*
X155261428Y-70427142D02*
X155261428Y-69855714D01*
X154261428Y-70212857D02*
X155547142Y-70212857D01*
X155690000Y-70141428D01*
X155761428Y-69998571D01*
X155761428Y-69855714D01*
X154118571Y-69712857D02*
X154118571Y-68570000D01*
X155261428Y-67570000D02*
X153761428Y-67570000D01*
X154332857Y-67570000D02*
X154261428Y-67712857D01*
X154261428Y-67998571D01*
X154332857Y-68141428D01*
X154404285Y-68212857D01*
X154547142Y-68284285D01*
X154975714Y-68284285D01*
X155118571Y-68212857D01*
X155190000Y-68141428D01*
X155261428Y-67998571D01*
X155261428Y-67712857D01*
X155190000Y-67570000D01*
X154261428Y-66641428D02*
X154332857Y-66784285D01*
X154475714Y-66855714D01*
X155761428Y-66855714D01*
X154118571Y-66427142D02*
X154118571Y-65284285D01*
X155261428Y-65070000D02*
X154261428Y-64712857D01*
X155261428Y-64355714D01*
X155261428Y-63141428D02*
X154047142Y-63141428D01*
X153904285Y-63212857D01*
X153832857Y-63284285D01*
X153761428Y-63427142D01*
X153761428Y-63641428D01*
X153832857Y-63784285D01*
X154332857Y-63141428D02*
X154261428Y-63284285D01*
X154261428Y-63570000D01*
X154332857Y-63712857D01*
X154404285Y-63784285D01*
X154547142Y-63855714D01*
X154975714Y-63855714D01*
X155118571Y-63784285D01*
X155190000Y-63712857D01*
X155261428Y-63570000D01*
X155261428Y-63284285D01*
X155190000Y-63141428D01*
X154261428Y-61784285D02*
X155047142Y-61784285D01*
X155190000Y-61855714D01*
X155261428Y-61998571D01*
X155261428Y-62284285D01*
X155190000Y-62427142D01*
X154332857Y-61784285D02*
X154261428Y-61927142D01*
X154261428Y-62284285D01*
X154332857Y-62427142D01*
X154475714Y-62498571D01*
X154618571Y-62498571D01*
X154761428Y-62427142D01*
X154832857Y-62284285D01*
X154832857Y-61927142D01*
X154904285Y-61784285D01*
D11*
X147820000Y-62132595D02*
X147867619Y-62227833D01*
X147867619Y-62370690D01*
X147820000Y-62513547D01*
X147724761Y-62608785D01*
X147629523Y-62656404D01*
X147439047Y-62704023D01*
X147296190Y-62704023D01*
X147105714Y-62656404D01*
X147010476Y-62608785D01*
X146915238Y-62513547D01*
X146867619Y-62370690D01*
X146867619Y-62275452D01*
X146915238Y-62132595D01*
X146962857Y-62084976D01*
X147296190Y-62084976D01*
X147296190Y-62275452D01*
X146867619Y-61656404D02*
X147867619Y-61656404D01*
X146867619Y-61084976D01*
X147867619Y-61084976D01*
X146867619Y-60608785D02*
X147867619Y-60608785D01*
X147867619Y-60370690D01*
X147820000Y-60227833D01*
X147724761Y-60132595D01*
X147629523Y-60084976D01*
X147439047Y-60037357D01*
X147296190Y-60037357D01*
X147105714Y-60084976D01*
X147010476Y-60132595D01*
X146915238Y-60227833D01*
X146867619Y-60370690D01*
X146867619Y-60608785D01*
X144375238Y-62704023D02*
X144327619Y-62561166D01*
X144327619Y-62323071D01*
X144375238Y-62227833D01*
X144422857Y-62180214D01*
X144518095Y-62132595D01*
X144613333Y-62132595D01*
X144708571Y-62180214D01*
X144756190Y-62227833D01*
X144803809Y-62323071D01*
X144851428Y-62513547D01*
X144899047Y-62608785D01*
X144946666Y-62656404D01*
X145041904Y-62704023D01*
X145137142Y-62704023D01*
X145232380Y-62656404D01*
X145280000Y-62608785D01*
X145327619Y-62513547D01*
X145327619Y-62275452D01*
X145280000Y-62132595D01*
X144803809Y-61513547D02*
X144327619Y-61513547D01*
X145327619Y-61846880D02*
X144803809Y-61513547D01*
X145327619Y-61180214D01*
X144327619Y-60846880D02*
X145327619Y-60846880D01*
X144327619Y-60275452D01*
X145327619Y-60275452D01*
X144422857Y-59227833D02*
X144375238Y-59275452D01*
X144327619Y-59418309D01*
X144327619Y-59513547D01*
X144375238Y-59656404D01*
X144470476Y-59751642D01*
X144565714Y-59799261D01*
X144756190Y-59846880D01*
X144899047Y-59846880D01*
X145089523Y-59799261D01*
X145184761Y-59751642D01*
X145280000Y-59656404D01*
X145327619Y-59513547D01*
X145327619Y-59418309D01*
X145280000Y-59275452D01*
X145232380Y-59227833D01*
X142311428Y-62323071D02*
X142263809Y-62180214D01*
X142216190Y-62132595D01*
X142120952Y-62084976D01*
X141978095Y-62084976D01*
X141882857Y-62132595D01*
X141835238Y-62180214D01*
X141787619Y-62275452D01*
X141787619Y-62656404D01*
X142787619Y-62656404D01*
X142787619Y-62323071D01*
X142740000Y-62227833D01*
X142692380Y-62180214D01*
X142597142Y-62132595D01*
X142501904Y-62132595D01*
X142406666Y-62180214D01*
X142359047Y-62227833D01*
X142311428Y-62323071D01*
X142311428Y-62656404D01*
X141787619Y-61180214D02*
X141787619Y-61656404D01*
X142787619Y-61656404D01*
X142787619Y-60846880D02*
X141978095Y-60846880D01*
X141882857Y-60799261D01*
X141835238Y-60751642D01*
X141787619Y-60656404D01*
X141787619Y-60465928D01*
X141835238Y-60370690D01*
X141882857Y-60323071D01*
X141978095Y-60275452D01*
X142787619Y-60275452D01*
X142311428Y-59799261D02*
X142311428Y-59465928D01*
X141787619Y-59323071D02*
X141787619Y-59799261D01*
X142787619Y-59799261D01*
X142787619Y-59323071D01*
X140200000Y-62132595D02*
X140247619Y-62227833D01*
X140247619Y-62370690D01*
X140200000Y-62513547D01*
X140104761Y-62608785D01*
X140009523Y-62656404D01*
X139819047Y-62704023D01*
X139676190Y-62704023D01*
X139485714Y-62656404D01*
X139390476Y-62608785D01*
X139295238Y-62513547D01*
X139247619Y-62370690D01*
X139247619Y-62275452D01*
X139295238Y-62132595D01*
X139342857Y-62084976D01*
X139676190Y-62084976D01*
X139676190Y-62275452D01*
X139247619Y-61084976D02*
X139723809Y-61418309D01*
X139247619Y-61656404D02*
X140247619Y-61656404D01*
X140247619Y-61275452D01*
X140200000Y-61180214D01*
X140152380Y-61132595D01*
X140057142Y-61084976D01*
X139914285Y-61084976D01*
X139819047Y-61132595D01*
X139771428Y-61180214D01*
X139723809Y-61275452D01*
X139723809Y-61656404D01*
X139771428Y-60656404D02*
X139771428Y-60323071D01*
X139247619Y-60180214D02*
X139247619Y-60656404D01*
X140247619Y-60656404D01*
X140247619Y-60180214D01*
X139771428Y-59751642D02*
X139771428Y-59418309D01*
X139247619Y-59275452D02*
X139247619Y-59751642D01*
X140247619Y-59751642D01*
X140247619Y-59275452D01*
X139247619Y-58846880D02*
X140247619Y-58846880D01*
X139247619Y-58275452D01*
X140247619Y-58275452D01*
X136707619Y-62084976D02*
X137183809Y-62418309D01*
X136707619Y-62656404D02*
X137707619Y-62656404D01*
X137707619Y-62275452D01*
X137660000Y-62180214D01*
X137612380Y-62132595D01*
X137517142Y-62084976D01*
X137374285Y-62084976D01*
X137279047Y-62132595D01*
X137231428Y-62180214D01*
X137183809Y-62275452D01*
X137183809Y-62656404D01*
X137231428Y-61656404D02*
X137231428Y-61323071D01*
X136707619Y-61180214D02*
X136707619Y-61656404D01*
X137707619Y-61656404D01*
X137707619Y-61180214D01*
X136707619Y-60751642D02*
X137707619Y-60751642D01*
X137707619Y-60513547D01*
X137660000Y-60370690D01*
X137564761Y-60275452D01*
X137469523Y-60227833D01*
X137279047Y-60180214D01*
X137136190Y-60180214D01*
X136945714Y-60227833D01*
X136850476Y-60275452D01*
X136755238Y-60370690D01*
X136707619Y-60513547D01*
X136707619Y-60751642D01*
M02*
