%TF.GenerationSoftware,KiCad,Pcbnew,(6.0.11)*%
%TF.CreationDate,2023-02-12T19:00:00-06:00*%
%TF.ProjectId,video_if_ql_vga,76696465-6f5f-4696-965f-716c5f766761,v1.0*%
%TF.SameCoordinates,Original*%
%TF.FileFunction,Copper,L2,Bot*%
%TF.FilePolarity,Positive*%
%FSLAX46Y46*%
G04 Gerber Fmt 4.6, Leading zero omitted, Abs format (unit mm)*
G04 Created by KiCad (PCBNEW (6.0.11)) date 2023-02-12 19:00:00*
%MOMM*%
%LPD*%
G01*
G04 APERTURE LIST*
%TA.AperFunction,ComponentPad*%
%ADD10C,1.600000*%
%TD*%
%TA.AperFunction,ComponentPad*%
%ADD11O,1.600000X1.600000*%
%TD*%
%TA.AperFunction,ComponentPad*%
%ADD12C,4.200400*%
%TD*%
%TA.AperFunction,ComponentPad*%
%ADD13C,1.600200*%
%TD*%
%TA.AperFunction,ComponentPad*%
%ADD14R,1.700000X1.700000*%
%TD*%
%TA.AperFunction,ComponentPad*%
%ADD15O,1.700000X1.700000*%
%TD*%
G04 APERTURE END LIST*
D10*
%TO.P,R11,1*%
%TO.N,/QLSYNC*%
X135890000Y-87884000D03*
D11*
%TO.P,R11,2*%
%TO.N,Net-(J1-Pad4)*%
X143510000Y-87884000D03*
%TD*%
D10*
%TO.P,R10,1*%
%TO.N,Net-(J1-Pad4)*%
X143510000Y-90932000D03*
D11*
%TO.P,R10,2*%
%TO.N,GND*%
X135890000Y-90932000D03*
%TD*%
D10*
%TO.P,R9,1*%
%TO.N,Net-(J1-Pad3)*%
X143510000Y-81788000D03*
D11*
%TO.P,R9,2*%
%TO.N,/QLBLUE*%
X135890000Y-81788000D03*
%TD*%
D10*
%TO.P,R12,1*%
%TO.N,Net-(J2-Pad13)*%
X148082000Y-108204000D03*
D11*
%TO.P,R12,2*%
%TO.N,/HSYNC*%
X148082000Y-100584000D03*
%TD*%
D10*
%TO.P,R6,1*%
%TO.N,Net-(J1-Pad2)*%
X143510000Y-78232000D03*
D11*
%TO.P,R6,2*%
%TO.N,GND*%
X135890000Y-78232000D03*
%TD*%
D10*
%TO.P,R13,1*%
%TO.N,Net-(J2-Pad14)*%
X148082000Y-97282000D03*
D11*
%TO.P,R13,2*%
%TO.N,/VSYNC*%
X148082000Y-89662000D03*
%TD*%
D10*
%TO.P,R1,1*%
%TO.N,/RED*%
X135890000Y-95504000D03*
D11*
%TO.P,R1,2*%
%TO.N,Net-(J2-Pad1)*%
X143510000Y-95504000D03*
%TD*%
D10*
%TO.P,R3,1*%
%TO.N,/BLUE*%
X135890000Y-107950000D03*
D11*
%TO.P,R3,2*%
%TO.N,Net-(J2-Pad3)*%
X143510000Y-107950000D03*
%TD*%
D10*
%TO.P,R2,1*%
%TO.N,/GREEN*%
X135890000Y-100584000D03*
D11*
%TO.P,R2,2*%
%TO.N,Net-(J2-Pad2)*%
X143510000Y-100584000D03*
%TD*%
D10*
%TO.P,R4,1*%
%TO.N,GND*%
X135890000Y-72136000D03*
D11*
%TO.P,R4,2*%
%TO.N,Net-(J1-Pad1)*%
X143510000Y-72136000D03*
%TD*%
D12*
%TO.P,J2,0*%
%TO.N,N/C*%
X129770400Y-115170000D03*
X154760400Y-115170000D03*
D13*
%TO.P,J2,1*%
%TO.N,Net-(J2-Pad1)*%
X146595399Y-112630000D03*
%TO.P,J2,2*%
%TO.N,Net-(J2-Pad2)*%
X144305401Y-112630000D03*
%TO.P,J2,3*%
%TO.N,Net-(J2-Pad3)*%
X142015400Y-112630000D03*
%TO.P,J2,4*%
%TO.N,unconnected-(J2-Pad4)*%
X139725400Y-112630000D03*
%TO.P,J2,5*%
%TO.N,GND*%
X137435400Y-112630000D03*
%TO.P,J2,6*%
X147704899Y-115170000D03*
%TO.P,J2,7*%
X145414901Y-115170000D03*
%TO.P,J2,8*%
X143124900Y-115170000D03*
%TO.P,J2,9*%
%TO.N,unconnected-(J2-Pad9)*%
X140834900Y-115170000D03*
%TO.P,J2,10*%
%TO.N,GND*%
X138544899Y-115170000D03*
%TO.P,J2,11*%
%TO.N,unconnected-(J2-Pad11)*%
X146595399Y-117710000D03*
%TO.P,J2,12*%
%TO.N,unconnected-(J2-Pad12)*%
X144305401Y-117710000D03*
%TO.P,J2,13*%
%TO.N,Net-(J2-Pad13)*%
X142015400Y-117710000D03*
%TO.P,J2,14*%
%TO.N,Net-(J2-Pad14)*%
X139725400Y-117710000D03*
%TO.P,J2,15*%
%TO.N,GND*%
X137435400Y-117710000D03*
%TD*%
D14*
%TO.P,J1,1,Pin_1*%
%TO.N,Net-(J1-Pad1)*%
X137215000Y-64000000D03*
D15*
%TO.P,J1,2,Pin_2*%
%TO.N,Net-(J1-Pad2)*%
X139755000Y-64000000D03*
%TO.P,J1,3,Pin_3*%
%TO.N,Net-(J1-Pad3)*%
X142295000Y-64000000D03*
%TO.P,J1,4,Pin_4*%
%TO.N,Net-(J1-Pad4)*%
X144835000Y-64000000D03*
%TO.P,J1,5,Pin_5*%
%TO.N,GND*%
X147375000Y-64000000D03*
%TD*%
D10*
%TO.P,R5,1*%
%TO.N,Net-(J1-Pad1)*%
X143510000Y-69088000D03*
D11*
%TO.P,R5,2*%
%TO.N,/QLRED*%
X135890000Y-69088000D03*
%TD*%
D15*
%TO.P,U1,1,GP0*%
%TO.N,unconnected-(U1-Pad1)*%
X133400000Y-59900000D03*
%TO.P,U1,2,GP1*%
%TO.N,unconnected-(U1-Pad2)*%
X133400000Y-62440000D03*
D14*
%TO.P,U1,3,GND*%
%TO.N,GND*%
X133400000Y-64980000D03*
D15*
%TO.P,U1,4,GP2*%
%TO.N,unconnected-(U1-Pad4)*%
X133400000Y-67520000D03*
%TO.P,U1,5,GP3*%
%TO.N,/QLRED*%
X133400000Y-70060000D03*
%TO.P,U1,6,GP4*%
%TO.N,unconnected-(U1-Pad6)*%
X133400000Y-72600000D03*
%TO.P,U1,7,GP5*%
%TO.N,/QLGREEN*%
X133400000Y-75140000D03*
D14*
%TO.P,U1,8,GND*%
%TO.N,GND*%
X133400000Y-77680000D03*
D15*
%TO.P,U1,9,GP6*%
%TO.N,unconnected-(U1-Pad9)*%
X133400000Y-80220000D03*
%TO.P,U1,10,GP7*%
%TO.N,/QLBLUE*%
X133400000Y-82760000D03*
%TO.P,U1,11,GP8*%
%TO.N,unconnected-(U1-Pad11)*%
X133400000Y-85300000D03*
%TO.P,U1,12,GP9*%
%TO.N,/QLSYNC*%
X133400000Y-87840000D03*
D14*
%TO.P,U1,13,GND*%
%TO.N,GND*%
X133400000Y-90380000D03*
D15*
%TO.P,U1,14,GP10*%
%TO.N,unconnected-(U1-Pad14)*%
X133400000Y-92920000D03*
%TO.P,U1,15,GP11*%
%TO.N,/RED*%
X133400000Y-95460000D03*
%TO.P,U1,16,GP12*%
%TO.N,unconnected-(U1-Pad16)*%
X133400000Y-98000000D03*
%TO.P,U1,17,GP13*%
%TO.N,/GREEN*%
X133400000Y-100540000D03*
D14*
%TO.P,U1,18,GND*%
%TO.N,GND*%
X133400000Y-103080000D03*
D15*
%TO.P,U1,19,GP14*%
%TO.N,unconnected-(U1-Pad19)*%
X133400000Y-105620000D03*
%TO.P,U1,20,GP15*%
%TO.N,/BLUE*%
X133400000Y-108160000D03*
%TO.P,U1,21,GP16*%
%TO.N,/HSYNC*%
X151180000Y-108160000D03*
%TO.P,U1,22,GP17*%
%TO.N,/VSYNC*%
X151180000Y-105620000D03*
D14*
%TO.P,U1,23,GND*%
%TO.N,GND*%
X151180000Y-103080000D03*
D15*
%TO.P,U1,24,GP18*%
%TO.N,unconnected-(U1-Pad24)*%
X151180000Y-100540000D03*
%TO.P,U1,25,GP19*%
%TO.N,unconnected-(U1-Pad25)*%
X151180000Y-98000000D03*
%TO.P,U1,26,GP20*%
%TO.N,unconnected-(U1-Pad26)*%
X151180000Y-95460000D03*
%TO.P,U1,27,GP21*%
%TO.N,unconnected-(U1-Pad27)*%
X151180000Y-92920000D03*
D14*
%TO.P,U1,28,GND*%
%TO.N,GND*%
X151180000Y-90380000D03*
D15*
%TO.P,U1,29,GP22*%
%TO.N,unconnected-(U1-Pad29)*%
X151180000Y-87840000D03*
%TO.P,U1,30,~{RUN}*%
%TO.N,unconnected-(U1-Pad30)*%
X151180000Y-85300000D03*
%TO.P,U1,31,GP26*%
%TO.N,unconnected-(U1-Pad31)*%
X151180000Y-82760000D03*
%TO.P,U1,32,GP27*%
%TO.N,unconnected-(U1-Pad32)*%
X151180000Y-80220000D03*
D14*
%TO.P,U1,33,AGND*%
%TO.N,unconnected-(U1-Pad33)*%
X151180000Y-77680000D03*
D15*
%TO.P,U1,34,GP28*%
%TO.N,unconnected-(U1-Pad34)*%
X151180000Y-75140000D03*
%TO.P,U1,35,ADC_VREF*%
%TO.N,unconnected-(U1-Pad35)*%
X151180000Y-72600000D03*
%TO.P,U1,36,3V3_OUT*%
%TO.N,unconnected-(U1-Pad36)*%
X151180000Y-70060000D03*
%TO.P,U1,37,3V3_EN*%
%TO.N,unconnected-(U1-Pad37)*%
X151180000Y-67520000D03*
D14*
%TO.P,U1,38,GND*%
%TO.N,GND*%
X151180000Y-64980000D03*
D15*
%TO.P,U1,39,VSYS*%
%TO.N,unconnected-(U1-Pad39)*%
X151180000Y-62440000D03*
%TO.P,U1,40,VBUS*%
%TO.N,unconnected-(U1-Pad40)*%
X151180000Y-59900000D03*
%TD*%
D10*
%TO.P,R7,1*%
%TO.N,/QLGREEN*%
X135890000Y-75184000D03*
D11*
%TO.P,R7,2*%
%TO.N,Net-(J1-Pad2)*%
X143510000Y-75184000D03*
%TD*%
D10*
%TO.P,R8,1*%
%TO.N,GND*%
X135890000Y-84836000D03*
D11*
%TO.P,R8,2*%
%TO.N,Net-(J1-Pad3)*%
X143510000Y-84836000D03*
%TD*%
%TA.AperFunction,Conductor*%
%TO.N,GND*%
G36*
X132195813Y-59024702D02*
G01*
X132242306Y-59078358D01*
X132252410Y-59148632D01*
X132231781Y-59201703D01*
X132214743Y-59226680D01*
X132120688Y-59429305D01*
X132060989Y-59644570D01*
X132037251Y-59866695D01*
X132037548Y-59871848D01*
X132037548Y-59871851D01*
X132043011Y-59966590D01*
X132050110Y-60089715D01*
X132051247Y-60094761D01*
X132051248Y-60094767D01*
X132071119Y-60182939D01*
X132099222Y-60307639D01*
X132183266Y-60514616D01*
X132299987Y-60705088D01*
X132446250Y-60873938D01*
X132618126Y-61016632D01*
X132688595Y-61057811D01*
X132691445Y-61059476D01*
X132740169Y-61111114D01*
X132753240Y-61180897D01*
X132726509Y-61246669D01*
X132686055Y-61280027D01*
X132673607Y-61286507D01*
X132669474Y-61289610D01*
X132669471Y-61289612D01*
X132645247Y-61307800D01*
X132494965Y-61420635D01*
X132340629Y-61582138D01*
X132214743Y-61766680D01*
X132120688Y-61969305D01*
X132060989Y-62184570D01*
X132037251Y-62406695D01*
X132037548Y-62411848D01*
X132037548Y-62411851D01*
X132043011Y-62506590D01*
X132050110Y-62629715D01*
X132051247Y-62634761D01*
X132051248Y-62634767D01*
X132065811Y-62699385D01*
X132099222Y-62847639D01*
X132154896Y-62984748D01*
X132163879Y-63006870D01*
X132183266Y-63054616D01*
X132299987Y-63245088D01*
X132446250Y-63413938D01*
X132450225Y-63417238D01*
X132450231Y-63417244D01*
X132455425Y-63421556D01*
X132495059Y-63480460D01*
X132496555Y-63551441D01*
X132459439Y-63611962D01*
X132419168Y-63636480D01*
X132311946Y-63676676D01*
X132296351Y-63685214D01*
X132194276Y-63761715D01*
X132181715Y-63774276D01*
X132105214Y-63876351D01*
X132096676Y-63891946D01*
X132051522Y-64012394D01*
X132047895Y-64027649D01*
X132042369Y-64078514D01*
X132042000Y-64085328D01*
X132042000Y-64707885D01*
X132046475Y-64723124D01*
X132047865Y-64724329D01*
X132055548Y-64726000D01*
X134739884Y-64726000D01*
X134755123Y-64721525D01*
X134756328Y-64720135D01*
X134757999Y-64712452D01*
X134757999Y-64085331D01*
X134757629Y-64078510D01*
X134752105Y-64027648D01*
X134748479Y-64012396D01*
X134703324Y-63891946D01*
X134694786Y-63876351D01*
X134618285Y-63774276D01*
X134605724Y-63761715D01*
X134503649Y-63685214D01*
X134488054Y-63676676D01*
X134377813Y-63635348D01*
X134321049Y-63592706D01*
X134296349Y-63526145D01*
X134311557Y-63456796D01*
X134333104Y-63428115D01*
X134434430Y-63327144D01*
X134434440Y-63327132D01*
X134438096Y-63323489D01*
X134456765Y-63297509D01*
X134565435Y-63146277D01*
X134568453Y-63142077D01*
X134588327Y-63101866D01*
X134665136Y-62946453D01*
X134665137Y-62946451D01*
X134667430Y-62941811D01*
X134716180Y-62781358D01*
X134730865Y-62733023D01*
X134730865Y-62733021D01*
X134732370Y-62728069D01*
X134761529Y-62506590D01*
X134763156Y-62440000D01*
X134744852Y-62217361D01*
X134690431Y-62000702D01*
X134601354Y-61795840D01*
X134480014Y-61608277D01*
X134329670Y-61443051D01*
X134325619Y-61439852D01*
X134325615Y-61439848D01*
X134158414Y-61307800D01*
X134158410Y-61307798D01*
X134154359Y-61304598D01*
X134113053Y-61281796D01*
X134063084Y-61231364D01*
X134048312Y-61161921D01*
X134073428Y-61095516D01*
X134100780Y-61068909D01*
X134144603Y-61037650D01*
X134279860Y-60941173D01*
X134438096Y-60783489D01*
X134497594Y-60700689D01*
X134565435Y-60606277D01*
X134568453Y-60602077D01*
X134667430Y-60401811D01*
X134732370Y-60188069D01*
X134761529Y-59966590D01*
X134763156Y-59900000D01*
X134744852Y-59677361D01*
X134690431Y-59460702D01*
X134601354Y-59255840D01*
X134564673Y-59199140D01*
X134544466Y-59131080D01*
X134564262Y-59062899D01*
X134617777Y-59016245D01*
X134670465Y-59004700D01*
X149907692Y-59004700D01*
X149975813Y-59024702D01*
X150022306Y-59078358D01*
X150032410Y-59148632D01*
X150011781Y-59201703D01*
X149994743Y-59226680D01*
X149900688Y-59429305D01*
X149840989Y-59644570D01*
X149817251Y-59866695D01*
X149817548Y-59871848D01*
X149817548Y-59871851D01*
X149823011Y-59966590D01*
X149830110Y-60089715D01*
X149831247Y-60094761D01*
X149831248Y-60094767D01*
X149851119Y-60182939D01*
X149879222Y-60307639D01*
X149963266Y-60514616D01*
X150079987Y-60705088D01*
X150226250Y-60873938D01*
X150398126Y-61016632D01*
X150468595Y-61057811D01*
X150471445Y-61059476D01*
X150520169Y-61111114D01*
X150533240Y-61180897D01*
X150506509Y-61246669D01*
X150466055Y-61280027D01*
X150453607Y-61286507D01*
X150449474Y-61289610D01*
X150449471Y-61289612D01*
X150425247Y-61307800D01*
X150274965Y-61420635D01*
X150120629Y-61582138D01*
X149994743Y-61766680D01*
X149900688Y-61969305D01*
X149840989Y-62184570D01*
X149817251Y-62406695D01*
X149817548Y-62411848D01*
X149817548Y-62411851D01*
X149823011Y-62506590D01*
X149830110Y-62629715D01*
X149831247Y-62634761D01*
X149831248Y-62634767D01*
X149845811Y-62699385D01*
X149879222Y-62847639D01*
X149934896Y-62984748D01*
X149943879Y-63006870D01*
X149963266Y-63054616D01*
X150079987Y-63245088D01*
X150226250Y-63413938D01*
X150230225Y-63417238D01*
X150230231Y-63417244D01*
X150235425Y-63421556D01*
X150275059Y-63480460D01*
X150276555Y-63551441D01*
X150239439Y-63611962D01*
X150199168Y-63636480D01*
X150091946Y-63676676D01*
X150076351Y-63685214D01*
X149974276Y-63761715D01*
X149961715Y-63774276D01*
X149885214Y-63876351D01*
X149876676Y-63891946D01*
X149831522Y-64012394D01*
X149827895Y-64027649D01*
X149822369Y-64078514D01*
X149822000Y-64085328D01*
X149822000Y-64707885D01*
X149826475Y-64723124D01*
X149827865Y-64724329D01*
X149835548Y-64726000D01*
X152519884Y-64726000D01*
X152535123Y-64721525D01*
X152536328Y-64720135D01*
X152537999Y-64712452D01*
X152537999Y-64085331D01*
X152537629Y-64078510D01*
X152532105Y-64027648D01*
X152528479Y-64012396D01*
X152483324Y-63891946D01*
X152474786Y-63876351D01*
X152398285Y-63774276D01*
X152385724Y-63761715D01*
X152283649Y-63685214D01*
X152268054Y-63676676D01*
X152157813Y-63635348D01*
X152101049Y-63592706D01*
X152076349Y-63526145D01*
X152091557Y-63456796D01*
X152113104Y-63428115D01*
X152214430Y-63327144D01*
X152214440Y-63327132D01*
X152218096Y-63323489D01*
X152236765Y-63297509D01*
X152345435Y-63146277D01*
X152348453Y-63142077D01*
X152368327Y-63101866D01*
X152445136Y-62946453D01*
X152445137Y-62946451D01*
X152447430Y-62941811D01*
X152496180Y-62781358D01*
X152510865Y-62733023D01*
X152510865Y-62733021D01*
X152512370Y-62728069D01*
X152541529Y-62506590D01*
X152543156Y-62440000D01*
X152524852Y-62217361D01*
X152470431Y-62000702D01*
X152381354Y-61795840D01*
X152260014Y-61608277D01*
X152109670Y-61443051D01*
X152105619Y-61439852D01*
X152105615Y-61439848D01*
X151938414Y-61307800D01*
X151938410Y-61307798D01*
X151934359Y-61304598D01*
X151893053Y-61281796D01*
X151843084Y-61231364D01*
X151828312Y-61161921D01*
X151853428Y-61095516D01*
X151880780Y-61068909D01*
X151924603Y-61037650D01*
X152059860Y-60941173D01*
X152218096Y-60783489D01*
X152277594Y-60700689D01*
X152345435Y-60606277D01*
X152348453Y-60602077D01*
X152447430Y-60401811D01*
X152512370Y-60188069D01*
X152541529Y-59966590D01*
X152543156Y-59900000D01*
X152524852Y-59677361D01*
X152470431Y-59460702D01*
X152381354Y-59255840D01*
X152344673Y-59199140D01*
X152324466Y-59131080D01*
X152344262Y-59062899D01*
X152397777Y-59016245D01*
X152450465Y-59004700D01*
X157201100Y-59004700D01*
X157269221Y-59024702D01*
X157315714Y-59078358D01*
X157327100Y-59130700D01*
X157327100Y-113929192D01*
X157307098Y-113997313D01*
X157253442Y-114043806D01*
X157183168Y-114053910D01*
X157118588Y-114024416D01*
X157086128Y-113980743D01*
X157085458Y-113979249D01*
X157076465Y-113959191D01*
X156914227Y-113689715D01*
X156911900Y-113686731D01*
X156911895Y-113686724D01*
X156723127Y-113444678D01*
X156723125Y-113444676D01*
X156720791Y-113441683D01*
X156498958Y-113218685D01*
X156315168Y-113073796D01*
X156254923Y-113026303D01*
X156251942Y-113023953D01*
X155983320Y-112860307D01*
X155696983Y-112730117D01*
X155693363Y-112728972D01*
X155400698Y-112636415D01*
X155400695Y-112636414D01*
X155397080Y-112635271D01*
X155393358Y-112634571D01*
X155091677Y-112577840D01*
X155091675Y-112577840D01*
X155087954Y-112577140D01*
X154774084Y-112556568D01*
X154770304Y-112556776D01*
X154770303Y-112556776D01*
X154680516Y-112561717D01*
X154460015Y-112573852D01*
X154456288Y-112574513D01*
X154456284Y-112574513D01*
X154215491Y-112617188D01*
X154150298Y-112628742D01*
X154146673Y-112629847D01*
X154146668Y-112629848D01*
X154104133Y-112642812D01*
X153849418Y-112720444D01*
X153845954Y-112721975D01*
X153845947Y-112721978D01*
X153668512Y-112800421D01*
X153561734Y-112847627D01*
X153558480Y-112849563D01*
X153558474Y-112849566D01*
X153302219Y-113002022D01*
X153291413Y-113008451D01*
X153288412Y-113010766D01*
X153288408Y-113010769D01*
X153193152Y-113084259D01*
X153042371Y-113200586D01*
X153039670Y-113203245D01*
X153039663Y-113203251D01*
X152835985Y-113403756D01*
X152818215Y-113421249D01*
X152815851Y-113424216D01*
X152815848Y-113424219D01*
X152772783Y-113478262D01*
X152622192Y-113667242D01*
X152457142Y-113935004D01*
X152325455Y-114220655D01*
X152324296Y-114224255D01*
X152324293Y-114224262D01*
X152248506Y-114459605D01*
X152229039Y-114520057D01*
X152228320Y-114523773D01*
X152228318Y-114523781D01*
X152170010Y-114825155D01*
X152170009Y-114825164D01*
X152169291Y-114828874D01*
X152169024Y-114832650D01*
X152169023Y-114832655D01*
X152161659Y-114936668D01*
X152147075Y-115142632D01*
X152149075Y-115182812D01*
X152159794Y-115398104D01*
X152162715Y-115456787D01*
X152163356Y-115460518D01*
X152163357Y-115460526D01*
X152191463Y-115624088D01*
X152215983Y-115766788D01*
X152217071Y-115770427D01*
X152217072Y-115770430D01*
X152290024Y-116014365D01*
X152306107Y-116068144D01*
X152431783Y-116356490D01*
X152433706Y-116359762D01*
X152433708Y-116359765D01*
X152494774Y-116463642D01*
X152591189Y-116627649D01*
X152593490Y-116630664D01*
X152779718Y-116874681D01*
X152779723Y-116874686D01*
X152782018Y-116877694D01*
X152784662Y-116880408D01*
X152968428Y-117069049D01*
X153001503Y-117103002D01*
X153246467Y-117300310D01*
X153513361Y-117466760D01*
X153798318Y-117599941D01*
X153801928Y-117601124D01*
X153801927Y-117601124D01*
X154093608Y-117696742D01*
X154093615Y-117696744D01*
X154097212Y-117697923D01*
X154405712Y-117759288D01*
X154537593Y-117769320D01*
X154715572Y-117782859D01*
X154715577Y-117782859D01*
X154719349Y-117783146D01*
X155033582Y-117769151D01*
X155037320Y-117768529D01*
X155037328Y-117768528D01*
X155188330Y-117743394D01*
X155343857Y-117717507D01*
X155645681Y-117628962D01*
X155934681Y-117504798D01*
X155937959Y-117502894D01*
X155937965Y-117502891D01*
X156095874Y-117411169D01*
X156206671Y-117346813D01*
X156457712Y-117157297D01*
X156684166Y-116938994D01*
X156686639Y-116935957D01*
X156880363Y-116698003D01*
X156880364Y-116698002D01*
X156882754Y-116695066D01*
X156894179Y-116676959D01*
X157048576Y-116432255D01*
X157048579Y-116432249D01*
X157050599Y-116429048D01*
X157087233Y-116351723D01*
X157134474Y-116298726D01*
X157202869Y-116279682D01*
X157270702Y-116300639D01*
X157316437Y-116354942D01*
X157327100Y-116405670D01*
X157327100Y-124065500D01*
X157307098Y-124133621D01*
X157253442Y-124180114D01*
X157201100Y-124191500D01*
X127355100Y-124191500D01*
X127286979Y-124171498D01*
X127240486Y-124117842D01*
X127229100Y-124065500D01*
X127229100Y-118796134D01*
X136713821Y-118796134D01*
X136723117Y-118808149D01*
X136774343Y-118844018D01*
X136783838Y-118849501D01*
X136981312Y-118941585D01*
X136991604Y-118945331D01*
X137202068Y-119001724D01*
X137212863Y-119003627D01*
X137429925Y-119022618D01*
X137440875Y-119022618D01*
X137657937Y-119003627D01*
X137668732Y-119001724D01*
X137879196Y-118945331D01*
X137889488Y-118941585D01*
X138086962Y-118849501D01*
X138096457Y-118844018D01*
X138148521Y-118807562D01*
X138156896Y-118797085D01*
X138149828Y-118783638D01*
X137448212Y-118082022D01*
X137434268Y-118074408D01*
X137432435Y-118074539D01*
X137425820Y-118078790D01*
X136720251Y-118784359D01*
X136713821Y-118796134D01*
X127229100Y-118796134D01*
X127229100Y-116457663D01*
X127249102Y-116389542D01*
X127302758Y-116343049D01*
X127373032Y-116332945D01*
X127437612Y-116362439D01*
X127463721Y-116393808D01*
X127478376Y-116418737D01*
X127601189Y-116627649D01*
X127603490Y-116630664D01*
X127789718Y-116874681D01*
X127789723Y-116874686D01*
X127792018Y-116877694D01*
X127794662Y-116880408D01*
X127978428Y-117069049D01*
X128011503Y-117103002D01*
X128256467Y-117300310D01*
X128523361Y-117466760D01*
X128808318Y-117599941D01*
X128811928Y-117601124D01*
X128811927Y-117601124D01*
X129103608Y-117696742D01*
X129103615Y-117696744D01*
X129107212Y-117697923D01*
X129415712Y-117759288D01*
X129547593Y-117769320D01*
X129725572Y-117782859D01*
X129725577Y-117782859D01*
X129729349Y-117783146D01*
X130043582Y-117769151D01*
X130047320Y-117768529D01*
X130047328Y-117768528D01*
X130198330Y-117743394D01*
X130353857Y-117717507D01*
X130360783Y-117715475D01*
X136122782Y-117715475D01*
X136141773Y-117932537D01*
X136143676Y-117943332D01*
X136200069Y-118153796D01*
X136203815Y-118164088D01*
X136295899Y-118361560D01*
X136301382Y-118371057D01*
X136337838Y-118423121D01*
X136348315Y-118431496D01*
X136361763Y-118424427D01*
X137063378Y-117722812D01*
X137070992Y-117708868D01*
X137070861Y-117707035D01*
X137066610Y-117700420D01*
X136361041Y-116994851D01*
X136349266Y-116988421D01*
X136337251Y-116997717D01*
X136301382Y-117048943D01*
X136295899Y-117058440D01*
X136203815Y-117255912D01*
X136200069Y-117266204D01*
X136143676Y-117476668D01*
X136141773Y-117487463D01*
X136122782Y-117704525D01*
X136122782Y-117715475D01*
X130360783Y-117715475D01*
X130655681Y-117628962D01*
X130944681Y-117504798D01*
X130947959Y-117502894D01*
X130947965Y-117502891D01*
X131105874Y-117411169D01*
X131216671Y-117346813D01*
X131467712Y-117157297D01*
X131694166Y-116938994D01*
X131696639Y-116935957D01*
X131890363Y-116698003D01*
X131890364Y-116698002D01*
X131892754Y-116695066D01*
X131904179Y-116676959D01*
X132058576Y-116432255D01*
X132058579Y-116432249D01*
X132060599Y-116429048D01*
X132195270Y-116144792D01*
X132294816Y-115846415D01*
X132357795Y-115538241D01*
X132383295Y-115224732D01*
X132383811Y-115175475D01*
X137232281Y-115175475D01*
X137251272Y-115392537D01*
X137253175Y-115403332D01*
X137309568Y-115613796D01*
X137313314Y-115624088D01*
X137405398Y-115821560D01*
X137410881Y-115831057D01*
X137447337Y-115883121D01*
X137457814Y-115891496D01*
X137471262Y-115884427D01*
X138172877Y-115182812D01*
X138180491Y-115168868D01*
X138180360Y-115167035D01*
X138176109Y-115160420D01*
X137470540Y-114454851D01*
X137458765Y-114448421D01*
X137446750Y-114457717D01*
X137410881Y-114508943D01*
X137405398Y-114518440D01*
X137313314Y-114715912D01*
X137309568Y-114726204D01*
X137253175Y-114936668D01*
X137251272Y-114947463D01*
X137232281Y-115164525D01*
X137232281Y-115175475D01*
X132383811Y-115175475D01*
X132383868Y-115170000D01*
X132383735Y-115167789D01*
X132365168Y-114859801D01*
X132365167Y-114859794D01*
X132364940Y-114856026D01*
X132333090Y-114681633D01*
X132309109Y-114550327D01*
X132309108Y-114550322D01*
X132308428Y-114546600D01*
X132300187Y-114520057D01*
X132241219Y-114330151D01*
X132215153Y-114246205D01*
X132205315Y-114224262D01*
X132136003Y-114069677D01*
X132086465Y-113959191D01*
X131940133Y-113716134D01*
X136713821Y-113716134D01*
X136723117Y-113728149D01*
X136774343Y-113764018D01*
X136783838Y-113769501D01*
X136981312Y-113861585D01*
X136991604Y-113865331D01*
X137202068Y-113921724D01*
X137212863Y-113923627D01*
X137429925Y-113942618D01*
X137440875Y-113942618D01*
X137657937Y-113923627D01*
X137674147Y-113920769D01*
X137674438Y-113922420D01*
X137737791Y-113923931D01*
X137796585Y-113963727D01*
X137824531Y-114028993D01*
X137824751Y-114056918D01*
X137822281Y-114080780D01*
X137830472Y-114096363D01*
X138532087Y-114797978D01*
X138546031Y-114805592D01*
X138547864Y-114805461D01*
X138554479Y-114801210D01*
X139260048Y-114095641D01*
X139267662Y-114081697D01*
X139266803Y-114069677D01*
X139252499Y-114033110D01*
X139266487Y-113963505D01*
X139315885Y-113912512D01*
X139385011Y-113896321D01*
X139410630Y-113900420D01*
X139491981Y-113922218D01*
X139491983Y-113922218D01*
X139497296Y-113923642D01*
X139725400Y-113943599D01*
X139730875Y-113943120D01*
X139919204Y-113926643D01*
X139988809Y-113940632D01*
X140039801Y-113990031D01*
X140055992Y-114059157D01*
X140032240Y-114126063D01*
X140002457Y-114155377D01*
X139995046Y-114160566D01*
X139995043Y-114160568D01*
X139990535Y-114163725D01*
X139828625Y-114325635D01*
X139825468Y-114330144D01*
X139825462Y-114330151D01*
X139778487Y-114397239D01*
X139723030Y-114441568D01*
X139662302Y-114450299D01*
X139634119Y-114447382D01*
X139618536Y-114455573D01*
X138916921Y-115157188D01*
X138909307Y-115171132D01*
X138909438Y-115172965D01*
X138913689Y-115179580D01*
X139619258Y-115885149D01*
X139633202Y-115892763D01*
X139666981Y-115890347D01*
X139736355Y-115905438D01*
X139779183Y-115943754D01*
X139828625Y-116014365D01*
X139990535Y-116176275D01*
X139995043Y-116179432D01*
X139995046Y-116179434D01*
X140002457Y-116184623D01*
X140046786Y-116240081D01*
X140054094Y-116310700D01*
X140022063Y-116374060D01*
X139960861Y-116410045D01*
X139919204Y-116413357D01*
X139730875Y-116396880D01*
X139725400Y-116396401D01*
X139497296Y-116416358D01*
X139412019Y-116439208D01*
X139341044Y-116437518D01*
X139282248Y-116397724D01*
X139254300Y-116332460D01*
X139266073Y-116262446D01*
X139267400Y-116260344D01*
X139267517Y-116259219D01*
X139259327Y-116243638D01*
X138557711Y-115542022D01*
X138543767Y-115534408D01*
X138541934Y-115534539D01*
X138535319Y-115538790D01*
X137829750Y-116244359D01*
X137822136Y-116258303D01*
X137824175Y-116286817D01*
X137809084Y-116356191D01*
X137758882Y-116406393D01*
X137689508Y-116421485D01*
X137674203Y-116418912D01*
X137674147Y-116419231D01*
X137657937Y-116416373D01*
X137440875Y-116397382D01*
X137429925Y-116397382D01*
X137212863Y-116416373D01*
X137202068Y-116418276D01*
X136991604Y-116474669D01*
X136981312Y-116478415D01*
X136783840Y-116570499D01*
X136774343Y-116575982D01*
X136722279Y-116612438D01*
X136713904Y-116622915D01*
X136720973Y-116636363D01*
X137422588Y-117337978D01*
X137436532Y-117345592D01*
X137438365Y-117345461D01*
X137444980Y-117341210D01*
X138150549Y-116635641D01*
X138158163Y-116621697D01*
X138156124Y-116593183D01*
X138171215Y-116523809D01*
X138221417Y-116473607D01*
X138290791Y-116458515D01*
X138306096Y-116461088D01*
X138306152Y-116460769D01*
X138322362Y-116463627D01*
X138539424Y-116482618D01*
X138550374Y-116482618D01*
X138767436Y-116463627D01*
X138778234Y-116461723D01*
X138814382Y-116452038D01*
X138885359Y-116453728D01*
X138944154Y-116493523D01*
X138972101Y-116558788D01*
X138960327Y-116628801D01*
X138919264Y-116676957D01*
X138881035Y-116703725D01*
X138719125Y-116865635D01*
X138715968Y-116870144D01*
X138715962Y-116870151D01*
X138668987Y-116937239D01*
X138613530Y-116981568D01*
X138552802Y-116990299D01*
X138524620Y-116987382D01*
X138509037Y-116995573D01*
X137807422Y-117697188D01*
X137799808Y-117711132D01*
X137799939Y-117712965D01*
X137804190Y-117719580D01*
X138509759Y-118425149D01*
X138523703Y-118432763D01*
X138557481Y-118430347D01*
X138626855Y-118445438D01*
X138669683Y-118483754D01*
X138719125Y-118554365D01*
X138881035Y-118716275D01*
X139068600Y-118847610D01*
X139073582Y-118849933D01*
X139073587Y-118849936D01*
X139270131Y-118941585D01*
X139276123Y-118944379D01*
X139281431Y-118945801D01*
X139281433Y-118945802D01*
X139491981Y-119002218D01*
X139491983Y-119002218D01*
X139497296Y-119003642D01*
X139725400Y-119023599D01*
X139953504Y-119003642D01*
X139958817Y-119002218D01*
X139958819Y-119002218D01*
X140169367Y-118945802D01*
X140169369Y-118945801D01*
X140174677Y-118944379D01*
X140180669Y-118941585D01*
X140377213Y-118849936D01*
X140377218Y-118849933D01*
X140382200Y-118847610D01*
X140569765Y-118716275D01*
X140731675Y-118554365D01*
X140767187Y-118503649D01*
X140822644Y-118459321D01*
X140893264Y-118452012D01*
X140956624Y-118484043D01*
X140973613Y-118503649D01*
X141009125Y-118554365D01*
X141171035Y-118716275D01*
X141358600Y-118847610D01*
X141363582Y-118849933D01*
X141363587Y-118849936D01*
X141560131Y-118941585D01*
X141566123Y-118944379D01*
X141571431Y-118945801D01*
X141571433Y-118945802D01*
X141781981Y-119002218D01*
X141781983Y-119002218D01*
X141787296Y-119003642D01*
X142015400Y-119023599D01*
X142243504Y-119003642D01*
X142248817Y-119002218D01*
X142248819Y-119002218D01*
X142459367Y-118945802D01*
X142459369Y-118945801D01*
X142464677Y-118944379D01*
X142470669Y-118941585D01*
X142667213Y-118849936D01*
X142667218Y-118849933D01*
X142672200Y-118847610D01*
X142859765Y-118716275D01*
X143021675Y-118554365D01*
X143024834Y-118549854D01*
X143057188Y-118503648D01*
X143112646Y-118459319D01*
X143183265Y-118452011D01*
X143246625Y-118484042D01*
X143263611Y-118503645D01*
X143299126Y-118554365D01*
X143461036Y-118716275D01*
X143648601Y-118847610D01*
X143653583Y-118849933D01*
X143653588Y-118849936D01*
X143850132Y-118941585D01*
X143856124Y-118944379D01*
X143861432Y-118945801D01*
X143861434Y-118945802D01*
X144071982Y-119002218D01*
X144071984Y-119002218D01*
X144077297Y-119003642D01*
X144305401Y-119023599D01*
X144533505Y-119003642D01*
X144538818Y-119002218D01*
X144538820Y-119002218D01*
X144749368Y-118945802D01*
X144749370Y-118945801D01*
X144754678Y-118944379D01*
X144760670Y-118941585D01*
X144957214Y-118849936D01*
X144957219Y-118849933D01*
X144962201Y-118847610D01*
X145149766Y-118716275D01*
X145311676Y-118554365D01*
X145347188Y-118503649D01*
X145402644Y-118459322D01*
X145473263Y-118452013D01*
X145536624Y-118484044D01*
X145553612Y-118503649D01*
X145589124Y-118554365D01*
X145751034Y-118716275D01*
X145938599Y-118847610D01*
X145943581Y-118849933D01*
X145943586Y-118849936D01*
X146140130Y-118941585D01*
X146146122Y-118944379D01*
X146151430Y-118945801D01*
X146151432Y-118945802D01*
X146361980Y-119002218D01*
X146361982Y-119002218D01*
X146367295Y-119003642D01*
X146595399Y-119023599D01*
X146823503Y-119003642D01*
X146828816Y-119002218D01*
X146828818Y-119002218D01*
X147039366Y-118945802D01*
X147039368Y-118945801D01*
X147044676Y-118944379D01*
X147050668Y-118941585D01*
X147247212Y-118849936D01*
X147247217Y-118849933D01*
X147252199Y-118847610D01*
X147439764Y-118716275D01*
X147601674Y-118554365D01*
X147637187Y-118503648D01*
X147729852Y-118371308D01*
X147729853Y-118371306D01*
X147733009Y-118366799D01*
X147735332Y-118361817D01*
X147735335Y-118361812D01*
X147827455Y-118164259D01*
X147827456Y-118164258D01*
X147829778Y-118159277D01*
X147850479Y-118082022D01*
X147887617Y-117943419D01*
X147887617Y-117943417D01*
X147889041Y-117938104D01*
X147908998Y-117710000D01*
X147889041Y-117481896D01*
X147887617Y-117476581D01*
X147831201Y-117266033D01*
X147831200Y-117266031D01*
X147829778Y-117260723D01*
X147827455Y-117255741D01*
X147735335Y-117058188D01*
X147735332Y-117058183D01*
X147733009Y-117053201D01*
X147694159Y-116997717D01*
X147604833Y-116870146D01*
X147604831Y-116870143D01*
X147601674Y-116865635D01*
X147439764Y-116703725D01*
X147427025Y-116694805D01*
X147382696Y-116639349D01*
X147375385Y-116568730D01*
X147407415Y-116505369D01*
X147468616Y-116469383D01*
X147510275Y-116466070D01*
X147699423Y-116482618D01*
X147710374Y-116482618D01*
X147927436Y-116463627D01*
X147938231Y-116461724D01*
X148148695Y-116405331D01*
X148158987Y-116401585D01*
X148356461Y-116309501D01*
X148365956Y-116304018D01*
X148418020Y-116267562D01*
X148426395Y-116257085D01*
X148419327Y-116243638D01*
X147717711Y-115542022D01*
X147703767Y-115534408D01*
X147701934Y-115534539D01*
X147695319Y-115538790D01*
X146989750Y-116244359D01*
X146982135Y-116258303D01*
X146984137Y-116286290D01*
X146969045Y-116355665D01*
X146918843Y-116405867D01*
X146849469Y-116420958D01*
X146834291Y-116418406D01*
X146834233Y-116418737D01*
X146828819Y-116417783D01*
X146823503Y-116416358D01*
X146595399Y-116396401D01*
X146367295Y-116416358D01*
X146361986Y-116417781D01*
X146361972Y-116417783D01*
X146282024Y-116439206D01*
X146211047Y-116437517D01*
X146152251Y-116397723D01*
X146124303Y-116332459D01*
X146136076Y-116262446D01*
X146137402Y-116260346D01*
X146137519Y-116259219D01*
X146129329Y-116243638D01*
X145427713Y-115542022D01*
X145413769Y-115534408D01*
X145411936Y-115534539D01*
X145405321Y-115538790D01*
X144699752Y-116244359D01*
X144692137Y-116258303D01*
X144694139Y-116286290D01*
X144679047Y-116355665D01*
X144628845Y-116405867D01*
X144559471Y-116420958D01*
X144544293Y-116418406D01*
X144544235Y-116418737D01*
X144538821Y-116417783D01*
X144533505Y-116416358D01*
X144305401Y-116396401D01*
X144077297Y-116416358D01*
X143992020Y-116439208D01*
X143921045Y-116437518D01*
X143862249Y-116397724D01*
X143834301Y-116332460D01*
X143846074Y-116262446D01*
X143847401Y-116260344D01*
X143847518Y-116259219D01*
X143839328Y-116243638D01*
X143137712Y-115542022D01*
X143123768Y-115534408D01*
X143121935Y-115534539D01*
X143115320Y-115538790D01*
X142409751Y-116244359D01*
X142402136Y-116258303D01*
X142404138Y-116286290D01*
X142389046Y-116355665D01*
X142338844Y-116405867D01*
X142269470Y-116420958D01*
X142254292Y-116418406D01*
X142254234Y-116418737D01*
X142248820Y-116417783D01*
X142243504Y-116416358D01*
X142015400Y-116396401D01*
X141787296Y-116416358D01*
X141781983Y-116417782D01*
X141781981Y-116417782D01*
X141747117Y-116427124D01*
X141676141Y-116425434D01*
X141617345Y-116385640D01*
X141589397Y-116320376D01*
X141601170Y-116250362D01*
X141642235Y-116202204D01*
X141674754Y-116179434D01*
X141674757Y-116179432D01*
X141679265Y-116176275D01*
X141841175Y-116014365D01*
X141844333Y-116009855D01*
X141844338Y-116009849D01*
X141891313Y-115942761D01*
X141946770Y-115898432D01*
X142007498Y-115889701D01*
X142035680Y-115892618D01*
X142051263Y-115884427D01*
X142752878Y-115182812D01*
X142759256Y-115171132D01*
X143489308Y-115171132D01*
X143489439Y-115172965D01*
X143493690Y-115179580D01*
X144199259Y-115885149D01*
X144213203Y-115892763D01*
X144229550Y-115891594D01*
X144258182Y-115880395D01*
X144311879Y-115891189D01*
X144325682Y-115892617D01*
X144341264Y-115884427D01*
X145042879Y-115182812D01*
X145049257Y-115171132D01*
X145779309Y-115171132D01*
X145779440Y-115172965D01*
X145783691Y-115179580D01*
X146489260Y-115885149D01*
X146503204Y-115892763D01*
X146519550Y-115891594D01*
X146548177Y-115880396D01*
X146601878Y-115891189D01*
X146615680Y-115892617D01*
X146631262Y-115884427D01*
X147332877Y-115182812D01*
X147339255Y-115171132D01*
X148069307Y-115171132D01*
X148069438Y-115172965D01*
X148073689Y-115179580D01*
X148779258Y-115885149D01*
X148791033Y-115891579D01*
X148803048Y-115882283D01*
X148838917Y-115831057D01*
X148844400Y-115821560D01*
X148936484Y-115624088D01*
X148940230Y-115613796D01*
X148996623Y-115403332D01*
X148998526Y-115392537D01*
X149017517Y-115175475D01*
X149017517Y-115164525D01*
X148998526Y-114947463D01*
X148996623Y-114936668D01*
X148940230Y-114726204D01*
X148936484Y-114715912D01*
X148844400Y-114518440D01*
X148838917Y-114508943D01*
X148802461Y-114456879D01*
X148791984Y-114448504D01*
X148778536Y-114455573D01*
X148076921Y-115157188D01*
X148069307Y-115171132D01*
X147339255Y-115171132D01*
X147340491Y-115168868D01*
X147340360Y-115167035D01*
X147336109Y-115160420D01*
X146630540Y-114454851D01*
X146616596Y-114447237D01*
X146600250Y-114448406D01*
X146571623Y-114459604D01*
X146517922Y-114448811D01*
X146504120Y-114447383D01*
X146488538Y-114455573D01*
X145786923Y-115157188D01*
X145779309Y-115171132D01*
X145049257Y-115171132D01*
X145050493Y-115168868D01*
X145050362Y-115167035D01*
X145046111Y-115160420D01*
X144340542Y-114454851D01*
X144326598Y-114447237D01*
X144310251Y-114448406D01*
X144281619Y-114459605D01*
X144227922Y-114448811D01*
X144214119Y-114447383D01*
X144198537Y-114455573D01*
X143496922Y-115157188D01*
X143489308Y-115171132D01*
X142759256Y-115171132D01*
X142760492Y-115168868D01*
X142760361Y-115167035D01*
X142756110Y-115160420D01*
X142050541Y-114454851D01*
X142036597Y-114447237D01*
X142002819Y-114449653D01*
X141933445Y-114434562D01*
X141890617Y-114396246D01*
X141841175Y-114325635D01*
X141679265Y-114163725D01*
X141642235Y-114137796D01*
X141597907Y-114082338D01*
X141590598Y-114011719D01*
X141622629Y-113948359D01*
X141683831Y-113912374D01*
X141747117Y-113912876D01*
X141781981Y-113922218D01*
X141781983Y-113922218D01*
X141787296Y-113923642D01*
X142015400Y-113943599D01*
X142243504Y-113923642D01*
X142248820Y-113922217D01*
X142254234Y-113921263D01*
X142254532Y-113922954D01*
X142317745Y-113924465D01*
X142376537Y-113964265D01*
X142404478Y-114029533D01*
X142404697Y-114057450D01*
X142402282Y-114080780D01*
X142410473Y-114096363D01*
X143112088Y-114797978D01*
X143126032Y-114805592D01*
X143127865Y-114805461D01*
X143134480Y-114801210D01*
X143840049Y-114095641D01*
X143847663Y-114081697D01*
X143846804Y-114069677D01*
X143832500Y-114033110D01*
X143846488Y-113963505D01*
X143895886Y-113912512D01*
X143965012Y-113896321D01*
X143990631Y-113900420D01*
X144071982Y-113922218D01*
X144071984Y-113922218D01*
X144077297Y-113923642D01*
X144305401Y-113943599D01*
X144533505Y-113923642D01*
X144538821Y-113922217D01*
X144544235Y-113921263D01*
X144544533Y-113922954D01*
X144607746Y-113924465D01*
X144666538Y-113964265D01*
X144694479Y-114029533D01*
X144694698Y-114057450D01*
X144692283Y-114080780D01*
X144700474Y-114096363D01*
X145402089Y-114797978D01*
X145416033Y-114805592D01*
X145417866Y-114805461D01*
X145424481Y-114801210D01*
X146130050Y-114095641D01*
X146137664Y-114081697D01*
X146136805Y-114069675D01*
X146122501Y-114033110D01*
X146136490Y-113963505D01*
X146185889Y-113912513D01*
X146255015Y-113896322D01*
X146280633Y-113900421D01*
X146361980Y-113922218D01*
X146361982Y-113922218D01*
X146367295Y-113923642D01*
X146595399Y-113943599D01*
X146823503Y-113923642D01*
X146828819Y-113922217D01*
X146834233Y-113921263D01*
X146834531Y-113922954D01*
X146897744Y-113924465D01*
X146956536Y-113964265D01*
X146984477Y-114029533D01*
X146984696Y-114057450D01*
X146982281Y-114080780D01*
X146990472Y-114096363D01*
X147692087Y-114797978D01*
X147706031Y-114805592D01*
X147707864Y-114805461D01*
X147714479Y-114801210D01*
X148420048Y-114095641D01*
X148426478Y-114083866D01*
X148417182Y-114071851D01*
X148365956Y-114035982D01*
X148356461Y-114030499D01*
X148158987Y-113938415D01*
X148148695Y-113934669D01*
X147938231Y-113878276D01*
X147927436Y-113876373D01*
X147710374Y-113857382D01*
X147699423Y-113857382D01*
X147510275Y-113873930D01*
X147440671Y-113859941D01*
X147389678Y-113810541D01*
X147373488Y-113741415D01*
X147397241Y-113674510D01*
X147427025Y-113645195D01*
X147435251Y-113639435D01*
X147439764Y-113636275D01*
X147601674Y-113474365D01*
X147624559Y-113441683D01*
X147729852Y-113291308D01*
X147729853Y-113291306D01*
X147733009Y-113286799D01*
X147735332Y-113281817D01*
X147735335Y-113281812D01*
X147827455Y-113084259D01*
X147827456Y-113084258D01*
X147829778Y-113079277D01*
X147850479Y-113002022D01*
X147887617Y-112863419D01*
X147887617Y-112863417D01*
X147889041Y-112858104D01*
X147908998Y-112630000D01*
X147889041Y-112401896D01*
X147852519Y-112265592D01*
X147831201Y-112186033D01*
X147831200Y-112186031D01*
X147829778Y-112180723D01*
X147740400Y-111989050D01*
X147735335Y-111978188D01*
X147735332Y-111978183D01*
X147733009Y-111973201D01*
X147694159Y-111917717D01*
X147604833Y-111790146D01*
X147604831Y-111790143D01*
X147601674Y-111785635D01*
X147439764Y-111623725D01*
X147252199Y-111492390D01*
X147247217Y-111490067D01*
X147247212Y-111490064D01*
X147049658Y-111397944D01*
X147049657Y-111397944D01*
X147044676Y-111395621D01*
X147039368Y-111394199D01*
X147039366Y-111394198D01*
X146828818Y-111337782D01*
X146828816Y-111337782D01*
X146823503Y-111336358D01*
X146595399Y-111316401D01*
X146367295Y-111336358D01*
X146361982Y-111337782D01*
X146361980Y-111337782D01*
X146151432Y-111394198D01*
X146151430Y-111394199D01*
X146146122Y-111395621D01*
X146141141Y-111397943D01*
X146141140Y-111397944D01*
X145943587Y-111490064D01*
X145943582Y-111490067D01*
X145938600Y-111492390D01*
X145934093Y-111495546D01*
X145934091Y-111495547D01*
X145755545Y-111620566D01*
X145755542Y-111620568D01*
X145751034Y-111623725D01*
X145589124Y-111785635D01*
X145585967Y-111790143D01*
X145585965Y-111790146D01*
X145553613Y-111836350D01*
X145498156Y-111880678D01*
X145427537Y-111887987D01*
X145364176Y-111855956D01*
X145347187Y-111836350D01*
X145314835Y-111790146D01*
X145314833Y-111790143D01*
X145311676Y-111785635D01*
X145149766Y-111623725D01*
X144962201Y-111492390D01*
X144957219Y-111490067D01*
X144957214Y-111490064D01*
X144759660Y-111397944D01*
X144759659Y-111397944D01*
X144754678Y-111395621D01*
X144749370Y-111394199D01*
X144749368Y-111394198D01*
X144538820Y-111337782D01*
X144538818Y-111337782D01*
X144533505Y-111336358D01*
X144305401Y-111316401D01*
X144077297Y-111336358D01*
X144071984Y-111337782D01*
X144071982Y-111337782D01*
X143861434Y-111394198D01*
X143861432Y-111394199D01*
X143856124Y-111395621D01*
X143851143Y-111397943D01*
X143851142Y-111397944D01*
X143653589Y-111490064D01*
X143653584Y-111490067D01*
X143648602Y-111492390D01*
X143644095Y-111495546D01*
X143644093Y-111495547D01*
X143465547Y-111620566D01*
X143465544Y-111620568D01*
X143461036Y-111623725D01*
X143299126Y-111785635D01*
X143263613Y-111836352D01*
X143208158Y-111880680D01*
X143137538Y-111887989D01*
X143074178Y-111855959D01*
X143057188Y-111836352D01*
X143024834Y-111790146D01*
X143024832Y-111790143D01*
X143021675Y-111785635D01*
X142859765Y-111623725D01*
X142672200Y-111492390D01*
X142667218Y-111490067D01*
X142667213Y-111490064D01*
X142469659Y-111397944D01*
X142469658Y-111397944D01*
X142464677Y-111395621D01*
X142459369Y-111394199D01*
X142459367Y-111394198D01*
X142248819Y-111337782D01*
X142248817Y-111337782D01*
X142243504Y-111336358D01*
X142015400Y-111316401D01*
X141787296Y-111336358D01*
X141781983Y-111337782D01*
X141781981Y-111337782D01*
X141571433Y-111394198D01*
X141571431Y-111394199D01*
X141566123Y-111395621D01*
X141561142Y-111397943D01*
X141561141Y-111397944D01*
X141363588Y-111490064D01*
X141363583Y-111490067D01*
X141358601Y-111492390D01*
X141354094Y-111495546D01*
X141354092Y-111495547D01*
X141175546Y-111620566D01*
X141175543Y-111620568D01*
X141171035Y-111623725D01*
X141009125Y-111785635D01*
X141005968Y-111790143D01*
X141005966Y-111790146D01*
X140973613Y-111836351D01*
X140918156Y-111880679D01*
X140847536Y-111887988D01*
X140784176Y-111855957D01*
X140767187Y-111836351D01*
X140734834Y-111790146D01*
X140734832Y-111790143D01*
X140731675Y-111785635D01*
X140569765Y-111623725D01*
X140382200Y-111492390D01*
X140377218Y-111490067D01*
X140377213Y-111490064D01*
X140179659Y-111397944D01*
X140179658Y-111397944D01*
X140174677Y-111395621D01*
X140169369Y-111394199D01*
X140169367Y-111394198D01*
X139958819Y-111337782D01*
X139958817Y-111337782D01*
X139953504Y-111336358D01*
X139725400Y-111316401D01*
X139497296Y-111336358D01*
X139491983Y-111337782D01*
X139491981Y-111337782D01*
X139281433Y-111394198D01*
X139281431Y-111394199D01*
X139276123Y-111395621D01*
X139271142Y-111397943D01*
X139271141Y-111397944D01*
X139073588Y-111490064D01*
X139073583Y-111490067D01*
X139068601Y-111492390D01*
X139064094Y-111495546D01*
X139064092Y-111495547D01*
X138885546Y-111620566D01*
X138885543Y-111620568D01*
X138881035Y-111623725D01*
X138719125Y-111785635D01*
X138715968Y-111790144D01*
X138715962Y-111790151D01*
X138668987Y-111857239D01*
X138613530Y-111901568D01*
X138552802Y-111910299D01*
X138524620Y-111907382D01*
X138509037Y-111915573D01*
X137807422Y-112617188D01*
X137799808Y-112631132D01*
X137799939Y-112632965D01*
X137804190Y-112639580D01*
X138509759Y-113345149D01*
X138523703Y-113352763D01*
X138557481Y-113350347D01*
X138626855Y-113365438D01*
X138669683Y-113403754D01*
X138719125Y-113474365D01*
X138881035Y-113636275D01*
X138885543Y-113639432D01*
X138885546Y-113639434D01*
X138919262Y-113663042D01*
X138963590Y-113718499D01*
X138970899Y-113789119D01*
X138938868Y-113852479D01*
X138877667Y-113888464D01*
X138814380Y-113887962D01*
X138778231Y-113878276D01*
X138767436Y-113876373D01*
X138550374Y-113857382D01*
X138539424Y-113857382D01*
X138322362Y-113876373D01*
X138306152Y-113879231D01*
X138305861Y-113877578D01*
X138242518Y-113876072D01*
X138183720Y-113836280D01*
X138155771Y-113771017D01*
X138155548Y-113743084D01*
X138158018Y-113719219D01*
X138149828Y-113703638D01*
X137448212Y-113002022D01*
X137434268Y-112994408D01*
X137432435Y-112994539D01*
X137425820Y-112998790D01*
X136720251Y-113704359D01*
X136713821Y-113716134D01*
X131940133Y-113716134D01*
X131924227Y-113689715D01*
X131921900Y-113686731D01*
X131921895Y-113686724D01*
X131733127Y-113444678D01*
X131733125Y-113444676D01*
X131730791Y-113441683D01*
X131508958Y-113218685D01*
X131325168Y-113073796D01*
X131264923Y-113026303D01*
X131261942Y-113023953D01*
X130993320Y-112860307D01*
X130706983Y-112730117D01*
X130703363Y-112728972D01*
X130410698Y-112636415D01*
X130410695Y-112636414D01*
X130407725Y-112635475D01*
X136122782Y-112635475D01*
X136141773Y-112852537D01*
X136143676Y-112863332D01*
X136200069Y-113073796D01*
X136203815Y-113084088D01*
X136295899Y-113281560D01*
X136301382Y-113291057D01*
X136337838Y-113343121D01*
X136348315Y-113351496D01*
X136361763Y-113344427D01*
X137063378Y-112642812D01*
X137070992Y-112628868D01*
X137070861Y-112627035D01*
X137066610Y-112620420D01*
X136361041Y-111914851D01*
X136349266Y-111908421D01*
X136337251Y-111917717D01*
X136301382Y-111968943D01*
X136295899Y-111978440D01*
X136203815Y-112175912D01*
X136200069Y-112186204D01*
X136143676Y-112396668D01*
X136141773Y-112407463D01*
X136122782Y-112624525D01*
X136122782Y-112635475D01*
X130407725Y-112635475D01*
X130407080Y-112635271D01*
X130403358Y-112634571D01*
X130101677Y-112577840D01*
X130101675Y-112577840D01*
X130097954Y-112577140D01*
X129784084Y-112556568D01*
X129780304Y-112556776D01*
X129780303Y-112556776D01*
X129690516Y-112561717D01*
X129470015Y-112573852D01*
X129466288Y-112574513D01*
X129466284Y-112574513D01*
X129225491Y-112617188D01*
X129160298Y-112628742D01*
X129156673Y-112629847D01*
X129156668Y-112629848D01*
X129114133Y-112642812D01*
X128859418Y-112720444D01*
X128855954Y-112721975D01*
X128855947Y-112721978D01*
X128678512Y-112800421D01*
X128571734Y-112847627D01*
X128568480Y-112849563D01*
X128568474Y-112849566D01*
X128312219Y-113002022D01*
X128301413Y-113008451D01*
X128298412Y-113010766D01*
X128298408Y-113010769D01*
X128203152Y-113084259D01*
X128052371Y-113200586D01*
X128049670Y-113203245D01*
X128049663Y-113203251D01*
X127845985Y-113403756D01*
X127828215Y-113421249D01*
X127825851Y-113424216D01*
X127825848Y-113424219D01*
X127782783Y-113478262D01*
X127632192Y-113667242D01*
X127467142Y-113935004D01*
X127465990Y-113937504D01*
X127416329Y-113987930D01*
X127347072Y-114003551D01*
X127280364Y-113979249D01*
X127237384Y-113922741D01*
X127229100Y-113877807D01*
X127229100Y-111542915D01*
X136713904Y-111542915D01*
X136720973Y-111556363D01*
X137422588Y-112257978D01*
X137436532Y-112265592D01*
X137438365Y-112265461D01*
X137444980Y-112261210D01*
X138150549Y-111555641D01*
X138156979Y-111543866D01*
X138147683Y-111531851D01*
X138096457Y-111495982D01*
X138086962Y-111490499D01*
X137889488Y-111398415D01*
X137879196Y-111394669D01*
X137668732Y-111338276D01*
X137657937Y-111336373D01*
X137440875Y-111317382D01*
X137429925Y-111317382D01*
X137212863Y-111336373D01*
X137202068Y-111338276D01*
X136991604Y-111394669D01*
X136981312Y-111398415D01*
X136783840Y-111490499D01*
X136774343Y-111495982D01*
X136722279Y-111532438D01*
X136713904Y-111542915D01*
X127229100Y-111542915D01*
X127229100Y-108126695D01*
X132037251Y-108126695D01*
X132037548Y-108131848D01*
X132037548Y-108131851D01*
X132043011Y-108226590D01*
X132050110Y-108349715D01*
X132051247Y-108354761D01*
X132051248Y-108354767D01*
X132069871Y-108437402D01*
X132099222Y-108567639D01*
X132136005Y-108658225D01*
X132172845Y-108748951D01*
X132183266Y-108774616D01*
X132299987Y-108965088D01*
X132446250Y-109133938D01*
X132618126Y-109276632D01*
X132811000Y-109389338D01*
X133019692Y-109469030D01*
X133024760Y-109470061D01*
X133024763Y-109470062D01*
X133132017Y-109491883D01*
X133238597Y-109513567D01*
X133243772Y-109513757D01*
X133243774Y-109513757D01*
X133456673Y-109521564D01*
X133456677Y-109521564D01*
X133461837Y-109521753D01*
X133466957Y-109521097D01*
X133466959Y-109521097D01*
X133678288Y-109494025D01*
X133678289Y-109494025D01*
X133683416Y-109493368D01*
X133688366Y-109491883D01*
X133892429Y-109430661D01*
X133892434Y-109430659D01*
X133897384Y-109429174D01*
X134097994Y-109330896D01*
X134279860Y-109201173D01*
X134438096Y-109043489D01*
X134497594Y-108960689D01*
X134565435Y-108866277D01*
X134568453Y-108862077D01*
X134624364Y-108748949D01*
X134672476Y-108696743D01*
X134741177Y-108678836D01*
X134808654Y-108700914D01*
X134840533Y-108732506D01*
X134873103Y-108779020D01*
X134883802Y-108794300D01*
X135045700Y-108956198D01*
X135050208Y-108959355D01*
X135050211Y-108959357D01*
X135128389Y-109014098D01*
X135233251Y-109087523D01*
X135238233Y-109089846D01*
X135238238Y-109089849D01*
X135435775Y-109181961D01*
X135440757Y-109184284D01*
X135446065Y-109185706D01*
X135446067Y-109185707D01*
X135656598Y-109242119D01*
X135656600Y-109242119D01*
X135661913Y-109243543D01*
X135890000Y-109263498D01*
X136118087Y-109243543D01*
X136123400Y-109242119D01*
X136123402Y-109242119D01*
X136333933Y-109185707D01*
X136333935Y-109185706D01*
X136339243Y-109184284D01*
X136344225Y-109181961D01*
X136541762Y-109089849D01*
X136541767Y-109089846D01*
X136546749Y-109087523D01*
X136651611Y-109014098D01*
X136729789Y-108959357D01*
X136729792Y-108959355D01*
X136734300Y-108956198D01*
X136896198Y-108794300D01*
X136906898Y-108779020D01*
X136977047Y-108678836D01*
X137027523Y-108606749D01*
X137029846Y-108601767D01*
X137029849Y-108601762D01*
X137121961Y-108404225D01*
X137121961Y-108404224D01*
X137124284Y-108399243D01*
X137136202Y-108354767D01*
X137182119Y-108183402D01*
X137182119Y-108183400D01*
X137183543Y-108178087D01*
X137203498Y-107950000D01*
X142196502Y-107950000D01*
X142216457Y-108178087D01*
X142217881Y-108183400D01*
X142217881Y-108183402D01*
X142263799Y-108354767D01*
X142275716Y-108399243D01*
X142278039Y-108404224D01*
X142278039Y-108404225D01*
X142370151Y-108601762D01*
X142370154Y-108601767D01*
X142372477Y-108606749D01*
X142422953Y-108678836D01*
X142493103Y-108779020D01*
X142503802Y-108794300D01*
X142665700Y-108956198D01*
X142670208Y-108959355D01*
X142670211Y-108959357D01*
X142748389Y-109014098D01*
X142853251Y-109087523D01*
X142858233Y-109089846D01*
X142858238Y-109089849D01*
X143055775Y-109181961D01*
X143060757Y-109184284D01*
X143066065Y-109185706D01*
X143066067Y-109185707D01*
X143276598Y-109242119D01*
X143276600Y-109242119D01*
X143281913Y-109243543D01*
X143510000Y-109263498D01*
X143738087Y-109243543D01*
X143743400Y-109242119D01*
X143743402Y-109242119D01*
X143953933Y-109185707D01*
X143953935Y-109185706D01*
X143959243Y-109184284D01*
X143964225Y-109181961D01*
X144161762Y-109089849D01*
X144161767Y-109089846D01*
X144166749Y-109087523D01*
X144271611Y-109014098D01*
X144349789Y-108959357D01*
X144349792Y-108959355D01*
X144354300Y-108956198D01*
X144516198Y-108794300D01*
X144526898Y-108779020D01*
X144597047Y-108678836D01*
X144647523Y-108606749D01*
X144649846Y-108601767D01*
X144649849Y-108601762D01*
X144741961Y-108404225D01*
X144741961Y-108404224D01*
X144744284Y-108399243D01*
X144756202Y-108354767D01*
X144796600Y-108204000D01*
X146768502Y-108204000D01*
X146788457Y-108432087D01*
X146789881Y-108437400D01*
X146789881Y-108437402D01*
X146833922Y-108601762D01*
X146847716Y-108653243D01*
X146850039Y-108658224D01*
X146850039Y-108658225D01*
X146942151Y-108855762D01*
X146942154Y-108855767D01*
X146944477Y-108860749D01*
X146947634Y-108865257D01*
X147069495Y-109039292D01*
X147075802Y-109048300D01*
X147237700Y-109210198D01*
X147242208Y-109213355D01*
X147242211Y-109213357D01*
X147313136Y-109263019D01*
X147425251Y-109341523D01*
X147430233Y-109343846D01*
X147430238Y-109343849D01*
X147608333Y-109426895D01*
X147632757Y-109438284D01*
X147638065Y-109439706D01*
X147638067Y-109439707D01*
X147848598Y-109496119D01*
X147848600Y-109496119D01*
X147853913Y-109497543D01*
X148082000Y-109517498D01*
X148310087Y-109497543D01*
X148315400Y-109496119D01*
X148315402Y-109496119D01*
X148525933Y-109439707D01*
X148525935Y-109439706D01*
X148531243Y-109438284D01*
X148555667Y-109426895D01*
X148733762Y-109343849D01*
X148733767Y-109343846D01*
X148738749Y-109341523D01*
X148850864Y-109263019D01*
X148921789Y-109213357D01*
X148921792Y-109213355D01*
X148926300Y-109210198D01*
X149088198Y-109048300D01*
X149094506Y-109039292D01*
X149216366Y-108865257D01*
X149219523Y-108860749D01*
X149221846Y-108855767D01*
X149221849Y-108855762D01*
X149313961Y-108658225D01*
X149313961Y-108658224D01*
X149316284Y-108653243D01*
X149330079Y-108601762D01*
X149374119Y-108437402D01*
X149374119Y-108437400D01*
X149375543Y-108432087D01*
X149395498Y-108204000D01*
X149388735Y-108126695D01*
X149817251Y-108126695D01*
X149817548Y-108131848D01*
X149817548Y-108131851D01*
X149823011Y-108226590D01*
X149830110Y-108349715D01*
X149831247Y-108354761D01*
X149831248Y-108354767D01*
X149849871Y-108437402D01*
X149879222Y-108567639D01*
X149916005Y-108658225D01*
X149952845Y-108748951D01*
X149963266Y-108774616D01*
X150079987Y-108965088D01*
X150226250Y-109133938D01*
X150398126Y-109276632D01*
X150591000Y-109389338D01*
X150799692Y-109469030D01*
X150804760Y-109470061D01*
X150804763Y-109470062D01*
X150912017Y-109491883D01*
X151018597Y-109513567D01*
X151023772Y-109513757D01*
X151023774Y-109513757D01*
X151236673Y-109521564D01*
X151236677Y-109521564D01*
X151241837Y-109521753D01*
X151246957Y-109521097D01*
X151246959Y-109521097D01*
X151458288Y-109494025D01*
X151458289Y-109494025D01*
X151463416Y-109493368D01*
X151468366Y-109491883D01*
X151672429Y-109430661D01*
X151672434Y-109430659D01*
X151677384Y-109429174D01*
X151877994Y-109330896D01*
X152059860Y-109201173D01*
X152218096Y-109043489D01*
X152277594Y-108960689D01*
X152345435Y-108866277D01*
X152348453Y-108862077D01*
X152380025Y-108798197D01*
X152445136Y-108666453D01*
X152445137Y-108666451D01*
X152447430Y-108661811D01*
X152512370Y-108448069D01*
X152541529Y-108226590D01*
X152543156Y-108160000D01*
X152524852Y-107937361D01*
X152470431Y-107720702D01*
X152381354Y-107515840D01*
X152283261Y-107364211D01*
X152262822Y-107332617D01*
X152262820Y-107332614D01*
X152260014Y-107328277D01*
X152109670Y-107163051D01*
X152105619Y-107159852D01*
X152105615Y-107159848D01*
X151938414Y-107027800D01*
X151938410Y-107027798D01*
X151934359Y-107024598D01*
X151893053Y-107001796D01*
X151843084Y-106951364D01*
X151828312Y-106881921D01*
X151853428Y-106815516D01*
X151880780Y-106788909D01*
X151924603Y-106757650D01*
X152059860Y-106661173D01*
X152084618Y-106636502D01*
X152214435Y-106507137D01*
X152218096Y-106503489D01*
X152277594Y-106420689D01*
X152345435Y-106326277D01*
X152348453Y-106322077D01*
X152447430Y-106121811D01*
X152512370Y-105908069D01*
X152541529Y-105686590D01*
X152543156Y-105620000D01*
X152524852Y-105397361D01*
X152470431Y-105180702D01*
X152381354Y-104975840D01*
X152260014Y-104788277D01*
X152256540Y-104784459D01*
X152256533Y-104784450D01*
X152112435Y-104626088D01*
X152081383Y-104562242D01*
X152089779Y-104491744D01*
X152134956Y-104436976D01*
X152161400Y-104423307D01*
X152268052Y-104383325D01*
X152283649Y-104374786D01*
X152385724Y-104298285D01*
X152398285Y-104285724D01*
X152474786Y-104183649D01*
X152483324Y-104168054D01*
X152528478Y-104047606D01*
X152532105Y-104032351D01*
X152537631Y-103981486D01*
X152538000Y-103974672D01*
X152538000Y-103352115D01*
X152533525Y-103336876D01*
X152532135Y-103335671D01*
X152524452Y-103334000D01*
X149840116Y-103334000D01*
X149824877Y-103338475D01*
X149823672Y-103339865D01*
X149822001Y-103347548D01*
X149822001Y-103974669D01*
X149822371Y-103981490D01*
X149827895Y-104032352D01*
X149831521Y-104047604D01*
X149876676Y-104168054D01*
X149885214Y-104183649D01*
X149961715Y-104285724D01*
X149974276Y-104298285D01*
X150076351Y-104374786D01*
X150091946Y-104383324D01*
X150200827Y-104424142D01*
X150257591Y-104466784D01*
X150282291Y-104533345D01*
X150267083Y-104602694D01*
X150247691Y-104629175D01*
X150124200Y-104758401D01*
X150120629Y-104762138D01*
X149994743Y-104946680D01*
X149900688Y-105149305D01*
X149840989Y-105364570D01*
X149817251Y-105586695D01*
X149817548Y-105591848D01*
X149817548Y-105591851D01*
X149823011Y-105686590D01*
X149830110Y-105809715D01*
X149831247Y-105814761D01*
X149831248Y-105814767D01*
X149851119Y-105902939D01*
X149879222Y-106027639D01*
X149963266Y-106234616D01*
X150079987Y-106425088D01*
X150226250Y-106593938D01*
X150398126Y-106736632D01*
X150468595Y-106777811D01*
X150471445Y-106779476D01*
X150520169Y-106831114D01*
X150533240Y-106900897D01*
X150506509Y-106966669D01*
X150466055Y-107000027D01*
X150453607Y-107006507D01*
X150449474Y-107009610D01*
X150449471Y-107009612D01*
X150326684Y-107101803D01*
X150274965Y-107140635D01*
X150271393Y-107144373D01*
X150129122Y-107293251D01*
X150120629Y-107302138D01*
X150117715Y-107306410D01*
X150117714Y-107306411D01*
X150037048Y-107424663D01*
X149994743Y-107486680D01*
X149900688Y-107689305D01*
X149840989Y-107904570D01*
X149817251Y-108126695D01*
X149388735Y-108126695D01*
X149375543Y-107975913D01*
X149316284Y-107754757D01*
X149288091Y-107694297D01*
X149221849Y-107552238D01*
X149221846Y-107552233D01*
X149219523Y-107547251D01*
X149088198Y-107359700D01*
X148926300Y-107197802D01*
X148921792Y-107194645D01*
X148921789Y-107194643D01*
X148794765Y-107105700D01*
X148738749Y-107066477D01*
X148733767Y-107064154D01*
X148733762Y-107064151D01*
X148536225Y-106972039D01*
X148536224Y-106972039D01*
X148531243Y-106969716D01*
X148525935Y-106968294D01*
X148525933Y-106968293D01*
X148315402Y-106911881D01*
X148315400Y-106911881D01*
X148310087Y-106910457D01*
X148082000Y-106890502D01*
X147853913Y-106910457D01*
X147848600Y-106911881D01*
X147848598Y-106911881D01*
X147638067Y-106968293D01*
X147638065Y-106968294D01*
X147632757Y-106969716D01*
X147627776Y-106972039D01*
X147627775Y-106972039D01*
X147430238Y-107064151D01*
X147430233Y-107064154D01*
X147425251Y-107066477D01*
X147369235Y-107105700D01*
X147242211Y-107194643D01*
X147242208Y-107194645D01*
X147237700Y-107197802D01*
X147075802Y-107359700D01*
X146944477Y-107547251D01*
X146942154Y-107552233D01*
X146942151Y-107552238D01*
X146875909Y-107694297D01*
X146847716Y-107754757D01*
X146788457Y-107975913D01*
X146768502Y-108204000D01*
X144796600Y-108204000D01*
X144802119Y-108183402D01*
X144802119Y-108183400D01*
X144803543Y-108178087D01*
X144823498Y-107950000D01*
X144803543Y-107721913D01*
X144767512Y-107587444D01*
X144745707Y-107506067D01*
X144745706Y-107506065D01*
X144744284Y-107500757D01*
X144708801Y-107424663D01*
X144649849Y-107298238D01*
X144649846Y-107298233D01*
X144647523Y-107293251D01*
X144516198Y-107105700D01*
X144354300Y-106943802D01*
X144349792Y-106940645D01*
X144349789Y-106940643D01*
X144265925Y-106881921D01*
X144166749Y-106812477D01*
X144161767Y-106810154D01*
X144161762Y-106810151D01*
X143964225Y-106718039D01*
X143964224Y-106718039D01*
X143959243Y-106715716D01*
X143953935Y-106714294D01*
X143953933Y-106714293D01*
X143743402Y-106657881D01*
X143743400Y-106657881D01*
X143738087Y-106656457D01*
X143510000Y-106636502D01*
X143281913Y-106656457D01*
X143276600Y-106657881D01*
X143276598Y-106657881D01*
X143066067Y-106714293D01*
X143066065Y-106714294D01*
X143060757Y-106715716D01*
X143055776Y-106718039D01*
X143055775Y-106718039D01*
X142858238Y-106810151D01*
X142858233Y-106810154D01*
X142853251Y-106812477D01*
X142754075Y-106881921D01*
X142670211Y-106940643D01*
X142670208Y-106940645D01*
X142665700Y-106943802D01*
X142503802Y-107105700D01*
X142372477Y-107293251D01*
X142370154Y-107298233D01*
X142370151Y-107298238D01*
X142311199Y-107424663D01*
X142275716Y-107500757D01*
X142274294Y-107506065D01*
X142274293Y-107506067D01*
X142252488Y-107587444D01*
X142216457Y-107721913D01*
X142196502Y-107950000D01*
X137203498Y-107950000D01*
X137183543Y-107721913D01*
X137147512Y-107587444D01*
X137125707Y-107506067D01*
X137125706Y-107506065D01*
X137124284Y-107500757D01*
X137088801Y-107424663D01*
X137029849Y-107298238D01*
X137029846Y-107298233D01*
X137027523Y-107293251D01*
X136896198Y-107105700D01*
X136734300Y-106943802D01*
X136729792Y-106940645D01*
X136729789Y-106940643D01*
X136645925Y-106881921D01*
X136546749Y-106812477D01*
X136541767Y-106810154D01*
X136541762Y-106810151D01*
X136344225Y-106718039D01*
X136344224Y-106718039D01*
X136339243Y-106715716D01*
X136333935Y-106714294D01*
X136333933Y-106714293D01*
X136123402Y-106657881D01*
X136123400Y-106657881D01*
X136118087Y-106656457D01*
X135890000Y-106636502D01*
X135661913Y-106656457D01*
X135656600Y-106657881D01*
X135656598Y-106657881D01*
X135446067Y-106714293D01*
X135446065Y-106714294D01*
X135440757Y-106715716D01*
X135435776Y-106718039D01*
X135435775Y-106718039D01*
X135238238Y-106810151D01*
X135238233Y-106810154D01*
X135233251Y-106812477D01*
X135134075Y-106881921D01*
X135050211Y-106940643D01*
X135050208Y-106940645D01*
X135045700Y-106943802D01*
X134883802Y-107105700D01*
X134752477Y-107293251D01*
X134750153Y-107298236D01*
X134750149Y-107298242D01*
X134725121Y-107351916D01*
X134678204Y-107405202D01*
X134609927Y-107424663D01*
X134541967Y-107404122D01*
X134505134Y-107367106D01*
X134482826Y-107332622D01*
X134482819Y-107332613D01*
X134480014Y-107328277D01*
X134329670Y-107163051D01*
X134325619Y-107159852D01*
X134325615Y-107159848D01*
X134158414Y-107027800D01*
X134158410Y-107027798D01*
X134154359Y-107024598D01*
X134113053Y-107001796D01*
X134063084Y-106951364D01*
X134048312Y-106881921D01*
X134073428Y-106815516D01*
X134100780Y-106788909D01*
X134144603Y-106757650D01*
X134279860Y-106661173D01*
X134304618Y-106636502D01*
X134434435Y-106507137D01*
X134438096Y-106503489D01*
X134497594Y-106420689D01*
X134565435Y-106326277D01*
X134568453Y-106322077D01*
X134667430Y-106121811D01*
X134732370Y-105908069D01*
X134761529Y-105686590D01*
X134763156Y-105620000D01*
X134744852Y-105397361D01*
X134690431Y-105180702D01*
X134601354Y-104975840D01*
X134480014Y-104788277D01*
X134476540Y-104784459D01*
X134476533Y-104784450D01*
X134332435Y-104626088D01*
X134301383Y-104562242D01*
X134309779Y-104491744D01*
X134354956Y-104436976D01*
X134381400Y-104423307D01*
X134488052Y-104383325D01*
X134503649Y-104374786D01*
X134605724Y-104298285D01*
X134618285Y-104285724D01*
X134694786Y-104183649D01*
X134703324Y-104168054D01*
X134748478Y-104047606D01*
X134752105Y-104032351D01*
X134757631Y-103981486D01*
X134758000Y-103974672D01*
X134758000Y-103352115D01*
X134753525Y-103336876D01*
X134752135Y-103335671D01*
X134744452Y-103334000D01*
X132060116Y-103334000D01*
X132044877Y-103338475D01*
X132043672Y-103339865D01*
X132042001Y-103347548D01*
X132042001Y-103974669D01*
X132042371Y-103981490D01*
X132047895Y-104032352D01*
X132051521Y-104047604D01*
X132096676Y-104168054D01*
X132105214Y-104183649D01*
X132181715Y-104285724D01*
X132194276Y-104298285D01*
X132296351Y-104374786D01*
X132311946Y-104383324D01*
X132420827Y-104424142D01*
X132477591Y-104466784D01*
X132502291Y-104533345D01*
X132487083Y-104602694D01*
X132467691Y-104629175D01*
X132344200Y-104758401D01*
X132340629Y-104762138D01*
X132214743Y-104946680D01*
X132120688Y-105149305D01*
X132060989Y-105364570D01*
X132037251Y-105586695D01*
X132037548Y-105591848D01*
X132037548Y-105591851D01*
X132043011Y-105686590D01*
X132050110Y-105809715D01*
X132051247Y-105814761D01*
X132051248Y-105814767D01*
X132071119Y-105902939D01*
X132099222Y-106027639D01*
X132183266Y-106234616D01*
X132299987Y-106425088D01*
X132446250Y-106593938D01*
X132618126Y-106736632D01*
X132688595Y-106777811D01*
X132691445Y-106779476D01*
X132740169Y-106831114D01*
X132753240Y-106900897D01*
X132726509Y-106966669D01*
X132686055Y-107000027D01*
X132673607Y-107006507D01*
X132669474Y-107009610D01*
X132669471Y-107009612D01*
X132546684Y-107101803D01*
X132494965Y-107140635D01*
X132491393Y-107144373D01*
X132349122Y-107293251D01*
X132340629Y-107302138D01*
X132337715Y-107306410D01*
X132337714Y-107306411D01*
X132257048Y-107424663D01*
X132214743Y-107486680D01*
X132120688Y-107689305D01*
X132060989Y-107904570D01*
X132037251Y-108126695D01*
X127229100Y-108126695D01*
X127229100Y-100506695D01*
X132037251Y-100506695D01*
X132037548Y-100511848D01*
X132037548Y-100511851D01*
X132043011Y-100606590D01*
X132050110Y-100729715D01*
X132051247Y-100734761D01*
X132051248Y-100734767D01*
X132069871Y-100817402D01*
X132099222Y-100947639D01*
X132183266Y-101154616D01*
X132185965Y-101159020D01*
X132245373Y-101255965D01*
X132299987Y-101345088D01*
X132446250Y-101513938D01*
X132450225Y-101517238D01*
X132450231Y-101517244D01*
X132455425Y-101521556D01*
X132495059Y-101580460D01*
X132496555Y-101651441D01*
X132459439Y-101711962D01*
X132419168Y-101736480D01*
X132311946Y-101776676D01*
X132296351Y-101785214D01*
X132194276Y-101861715D01*
X132181715Y-101874276D01*
X132105214Y-101976351D01*
X132096676Y-101991946D01*
X132051522Y-102112394D01*
X132047895Y-102127649D01*
X132042369Y-102178514D01*
X132042000Y-102185328D01*
X132042000Y-102807885D01*
X132046475Y-102823124D01*
X132047865Y-102824329D01*
X132055548Y-102826000D01*
X134739884Y-102826000D01*
X134755123Y-102821525D01*
X134756328Y-102820135D01*
X134757999Y-102812452D01*
X134757999Y-102185331D01*
X134757629Y-102178510D01*
X134752105Y-102127648D01*
X134748479Y-102112396D01*
X134703324Y-101991946D01*
X134694786Y-101976351D01*
X134618285Y-101874276D01*
X134605724Y-101861715D01*
X134503649Y-101785214D01*
X134488054Y-101776676D01*
X134377813Y-101735348D01*
X134321049Y-101692706D01*
X134296349Y-101626145D01*
X134311557Y-101556796D01*
X134333104Y-101528115D01*
X134434430Y-101427144D01*
X134434440Y-101427132D01*
X134438096Y-101423489D01*
X134494433Y-101345088D01*
X134558474Y-101255965D01*
X134614469Y-101212317D01*
X134685172Y-101205871D01*
X134748137Y-101238674D01*
X134764010Y-101257220D01*
X134877495Y-101419292D01*
X134883802Y-101428300D01*
X135045700Y-101590198D01*
X135050208Y-101593355D01*
X135050211Y-101593357D01*
X135097037Y-101626145D01*
X135233251Y-101721523D01*
X135238233Y-101723846D01*
X135238238Y-101723849D01*
X135421220Y-101809174D01*
X135440757Y-101818284D01*
X135446065Y-101819706D01*
X135446067Y-101819707D01*
X135656598Y-101876119D01*
X135656600Y-101876119D01*
X135661913Y-101877543D01*
X135890000Y-101897498D01*
X136118087Y-101877543D01*
X136123400Y-101876119D01*
X136123402Y-101876119D01*
X136333933Y-101819707D01*
X136333935Y-101819706D01*
X136339243Y-101818284D01*
X136358780Y-101809174D01*
X136541762Y-101723849D01*
X136541767Y-101723846D01*
X136546749Y-101721523D01*
X136682963Y-101626145D01*
X136729789Y-101593357D01*
X136729792Y-101593355D01*
X136734300Y-101590198D01*
X136896198Y-101428300D01*
X136902506Y-101419292D01*
X136957544Y-101340689D01*
X137027523Y-101240749D01*
X137029846Y-101235767D01*
X137029849Y-101235762D01*
X137121961Y-101038225D01*
X137121961Y-101038224D01*
X137124284Y-101033243D01*
X137183543Y-100812087D01*
X137203498Y-100584000D01*
X142196502Y-100584000D01*
X142216457Y-100812087D01*
X142275716Y-101033243D01*
X142278039Y-101038224D01*
X142278039Y-101038225D01*
X142370151Y-101235762D01*
X142370154Y-101235767D01*
X142372477Y-101240749D01*
X142442456Y-101340689D01*
X142497495Y-101419292D01*
X142503802Y-101428300D01*
X142665700Y-101590198D01*
X142670208Y-101593355D01*
X142670211Y-101593357D01*
X142717037Y-101626145D01*
X142853251Y-101721523D01*
X142858233Y-101723846D01*
X142858238Y-101723849D01*
X143041220Y-101809174D01*
X143060757Y-101818284D01*
X143066065Y-101819706D01*
X143066067Y-101819707D01*
X143276598Y-101876119D01*
X143276600Y-101876119D01*
X143281913Y-101877543D01*
X143510000Y-101897498D01*
X143738087Y-101877543D01*
X143743400Y-101876119D01*
X143743402Y-101876119D01*
X143953933Y-101819707D01*
X143953935Y-101819706D01*
X143959243Y-101818284D01*
X143978780Y-101809174D01*
X144161762Y-101723849D01*
X144161767Y-101723846D01*
X144166749Y-101721523D01*
X144302963Y-101626145D01*
X144349789Y-101593357D01*
X144349792Y-101593355D01*
X144354300Y-101590198D01*
X144516198Y-101428300D01*
X144522506Y-101419292D01*
X144577544Y-101340689D01*
X144647523Y-101240749D01*
X144649846Y-101235767D01*
X144649849Y-101235762D01*
X144741961Y-101038225D01*
X144741961Y-101038224D01*
X144744284Y-101033243D01*
X144803543Y-100812087D01*
X144823498Y-100584000D01*
X146768502Y-100584000D01*
X146788457Y-100812087D01*
X146847716Y-101033243D01*
X146850039Y-101038224D01*
X146850039Y-101038225D01*
X146942151Y-101235762D01*
X146942154Y-101235767D01*
X146944477Y-101240749D01*
X147014456Y-101340689D01*
X147069495Y-101419292D01*
X147075802Y-101428300D01*
X147237700Y-101590198D01*
X147242208Y-101593355D01*
X147242211Y-101593357D01*
X147289037Y-101626145D01*
X147425251Y-101721523D01*
X147430233Y-101723846D01*
X147430238Y-101723849D01*
X147613220Y-101809174D01*
X147632757Y-101818284D01*
X147638065Y-101819706D01*
X147638067Y-101819707D01*
X147848598Y-101876119D01*
X147848600Y-101876119D01*
X147853913Y-101877543D01*
X148082000Y-101897498D01*
X148310087Y-101877543D01*
X148315400Y-101876119D01*
X148315402Y-101876119D01*
X148525933Y-101819707D01*
X148525935Y-101819706D01*
X148531243Y-101818284D01*
X148550780Y-101809174D01*
X148733762Y-101723849D01*
X148733767Y-101723846D01*
X148738749Y-101721523D01*
X148874963Y-101626145D01*
X148921789Y-101593357D01*
X148921792Y-101593355D01*
X148926300Y-101590198D01*
X149088198Y-101428300D01*
X149094506Y-101419292D01*
X149149544Y-101340689D01*
X149219523Y-101240749D01*
X149221846Y-101235767D01*
X149221849Y-101235762D01*
X149313961Y-101038225D01*
X149313961Y-101038224D01*
X149316284Y-101033243D01*
X149375543Y-100812087D01*
X149395498Y-100584000D01*
X149388735Y-100506695D01*
X149817251Y-100506695D01*
X149817548Y-100511848D01*
X149817548Y-100511851D01*
X149823011Y-100606590D01*
X149830110Y-100729715D01*
X149831247Y-100734761D01*
X149831248Y-100734767D01*
X149849871Y-100817402D01*
X149879222Y-100947639D01*
X149963266Y-101154616D01*
X149965965Y-101159020D01*
X150025373Y-101255965D01*
X150079987Y-101345088D01*
X150226250Y-101513938D01*
X150230225Y-101517238D01*
X150230231Y-101517244D01*
X150235425Y-101521556D01*
X150275059Y-101580460D01*
X150276555Y-101651441D01*
X150239439Y-101711962D01*
X150199168Y-101736480D01*
X150091946Y-101776676D01*
X150076351Y-101785214D01*
X149974276Y-101861715D01*
X149961715Y-101874276D01*
X149885214Y-101976351D01*
X149876676Y-101991946D01*
X149831522Y-102112394D01*
X149827895Y-102127649D01*
X149822369Y-102178514D01*
X149822000Y-102185328D01*
X149822000Y-102807885D01*
X149826475Y-102823124D01*
X149827865Y-102824329D01*
X149835548Y-102826000D01*
X152519884Y-102826000D01*
X152535123Y-102821525D01*
X152536328Y-102820135D01*
X152537999Y-102812452D01*
X152537999Y-102185331D01*
X152537629Y-102178510D01*
X152532105Y-102127648D01*
X152528479Y-102112396D01*
X152483324Y-101991946D01*
X152474786Y-101976351D01*
X152398285Y-101874276D01*
X152385724Y-101861715D01*
X152283649Y-101785214D01*
X152268054Y-101776676D01*
X152157813Y-101735348D01*
X152101049Y-101692706D01*
X152076349Y-101626145D01*
X152091557Y-101556796D01*
X152113104Y-101528115D01*
X152214430Y-101427144D01*
X152214440Y-101427132D01*
X152218096Y-101423489D01*
X152277594Y-101340689D01*
X152345435Y-101246277D01*
X152348453Y-101242077D01*
X152443459Y-101049847D01*
X152445136Y-101046453D01*
X152445137Y-101046451D01*
X152447430Y-101041811D01*
X152512370Y-100828069D01*
X152541529Y-100606590D01*
X152543156Y-100540000D01*
X152524852Y-100317361D01*
X152470431Y-100100702D01*
X152381354Y-99895840D01*
X152283261Y-99744211D01*
X152262822Y-99712617D01*
X152262820Y-99712614D01*
X152260014Y-99708277D01*
X152109670Y-99543051D01*
X152105619Y-99539852D01*
X152105615Y-99539848D01*
X151938414Y-99407800D01*
X151938410Y-99407798D01*
X151934359Y-99404598D01*
X151893053Y-99381796D01*
X151843084Y-99331364D01*
X151828312Y-99261921D01*
X151853428Y-99195516D01*
X151880780Y-99168909D01*
X151924603Y-99137650D01*
X152059860Y-99041173D01*
X152218096Y-98883489D01*
X152277594Y-98800689D01*
X152345435Y-98706277D01*
X152348453Y-98702077D01*
X152401128Y-98595498D01*
X152445136Y-98506453D01*
X152445137Y-98506451D01*
X152447430Y-98501811D01*
X152512370Y-98288069D01*
X152541529Y-98066590D01*
X152543156Y-98000000D01*
X152524852Y-97777361D01*
X152470431Y-97560702D01*
X152381354Y-97355840D01*
X152260014Y-97168277D01*
X152109670Y-97003051D01*
X152105619Y-96999852D01*
X152105615Y-96999848D01*
X151938414Y-96867800D01*
X151938410Y-96867798D01*
X151934359Y-96864598D01*
X151893053Y-96841796D01*
X151843084Y-96791364D01*
X151828312Y-96721921D01*
X151853428Y-96655516D01*
X151880780Y-96628909D01*
X151924603Y-96597650D01*
X152059860Y-96501173D01*
X152218096Y-96343489D01*
X152277594Y-96260689D01*
X152345435Y-96166277D01*
X152348453Y-96162077D01*
X152357152Y-96144477D01*
X152445136Y-95966453D01*
X152445137Y-95966451D01*
X152447430Y-95961811D01*
X152512370Y-95748069D01*
X152541529Y-95526590D01*
X152543156Y-95460000D01*
X152524852Y-95237361D01*
X152470431Y-95020702D01*
X152381354Y-94815840D01*
X152283261Y-94664211D01*
X152262822Y-94632617D01*
X152262820Y-94632614D01*
X152260014Y-94628277D01*
X152109670Y-94463051D01*
X152105619Y-94459852D01*
X152105615Y-94459848D01*
X151938414Y-94327800D01*
X151938410Y-94327798D01*
X151934359Y-94324598D01*
X151893053Y-94301796D01*
X151843084Y-94251364D01*
X151828312Y-94181921D01*
X151853428Y-94115516D01*
X151880780Y-94088909D01*
X151924603Y-94057650D01*
X152059860Y-93961173D01*
X152218096Y-93803489D01*
X152277594Y-93720689D01*
X152345435Y-93626277D01*
X152348453Y-93622077D01*
X152447430Y-93421811D01*
X152512370Y-93208069D01*
X152541529Y-92986590D01*
X152543156Y-92920000D01*
X152524852Y-92697361D01*
X152470431Y-92480702D01*
X152381354Y-92275840D01*
X152308976Y-92163961D01*
X152262822Y-92092617D01*
X152262820Y-92092614D01*
X152260014Y-92088277D01*
X152256540Y-92084459D01*
X152256533Y-92084450D01*
X152112435Y-91926088D01*
X152081383Y-91862242D01*
X152089779Y-91791744D01*
X152134956Y-91736976D01*
X152161400Y-91723307D01*
X152268052Y-91683325D01*
X152283649Y-91674786D01*
X152385724Y-91598285D01*
X152398285Y-91585724D01*
X152474786Y-91483649D01*
X152483324Y-91468054D01*
X152528478Y-91347606D01*
X152532105Y-91332351D01*
X152537631Y-91281486D01*
X152538000Y-91274672D01*
X152538000Y-90652115D01*
X152533525Y-90636876D01*
X152532135Y-90635671D01*
X152524452Y-90634000D01*
X149840116Y-90634000D01*
X149824877Y-90638475D01*
X149823672Y-90639865D01*
X149822001Y-90647548D01*
X149822001Y-91274669D01*
X149822371Y-91281490D01*
X149827895Y-91332352D01*
X149831521Y-91347604D01*
X149876676Y-91468054D01*
X149885214Y-91483649D01*
X149961715Y-91585724D01*
X149974276Y-91598285D01*
X150076351Y-91674786D01*
X150091946Y-91683324D01*
X150200827Y-91724142D01*
X150257591Y-91766784D01*
X150282291Y-91833345D01*
X150267083Y-91902694D01*
X150247691Y-91929175D01*
X150236418Y-91940972D01*
X150120629Y-92062138D01*
X150117715Y-92066410D01*
X150117714Y-92066411D01*
X150105409Y-92084450D01*
X149994743Y-92246680D01*
X149900688Y-92449305D01*
X149840989Y-92664570D01*
X149817251Y-92886695D01*
X149817548Y-92891848D01*
X149817548Y-92891851D01*
X149823011Y-92986590D01*
X149830110Y-93109715D01*
X149831247Y-93114761D01*
X149831248Y-93114767D01*
X149851119Y-93202939D01*
X149879222Y-93327639D01*
X149963266Y-93534616D01*
X150079987Y-93725088D01*
X150226250Y-93893938D01*
X150398126Y-94036632D01*
X150468595Y-94077811D01*
X150471445Y-94079476D01*
X150520169Y-94131114D01*
X150533240Y-94200897D01*
X150506509Y-94266669D01*
X150466055Y-94300027D01*
X150453607Y-94306507D01*
X150449474Y-94309610D01*
X150449471Y-94309612D01*
X150279100Y-94437530D01*
X150274965Y-94440635D01*
X150120629Y-94602138D01*
X149994743Y-94786680D01*
X149900688Y-94989305D01*
X149840989Y-95204570D01*
X149817251Y-95426695D01*
X149817548Y-95431848D01*
X149817548Y-95431851D01*
X149823011Y-95526590D01*
X149830110Y-95649715D01*
X149831247Y-95654761D01*
X149831248Y-95654767D01*
X149849871Y-95737402D01*
X149879222Y-95867639D01*
X149963266Y-96074616D01*
X149965965Y-96079020D01*
X150025373Y-96175965D01*
X150079987Y-96265088D01*
X150226250Y-96433938D01*
X150398126Y-96576632D01*
X150468595Y-96617811D01*
X150471445Y-96619476D01*
X150520169Y-96671114D01*
X150533240Y-96740897D01*
X150506509Y-96806669D01*
X150466055Y-96840027D01*
X150453607Y-96846507D01*
X150449474Y-96849610D01*
X150449471Y-96849612D01*
X150425247Y-96867800D01*
X150274965Y-96980635D01*
X150120629Y-97142138D01*
X149994743Y-97326680D01*
X149979003Y-97360590D01*
X149907142Y-97515402D01*
X149900688Y-97529305D01*
X149840989Y-97744570D01*
X149817251Y-97966695D01*
X149817548Y-97971848D01*
X149817548Y-97971851D01*
X149826678Y-98130197D01*
X149830110Y-98189715D01*
X149831247Y-98194761D01*
X149831248Y-98194767D01*
X149851119Y-98282939D01*
X149879222Y-98407639D01*
X149917461Y-98501811D01*
X149955309Y-98595019D01*
X149963266Y-98614616D01*
X150079987Y-98805088D01*
X150226250Y-98973938D01*
X150398126Y-99116632D01*
X150468595Y-99157811D01*
X150471445Y-99159476D01*
X150520169Y-99211114D01*
X150533240Y-99280897D01*
X150506509Y-99346669D01*
X150466055Y-99380027D01*
X150453607Y-99386507D01*
X150449474Y-99389610D01*
X150449471Y-99389612D01*
X150279100Y-99517530D01*
X150274965Y-99520635D01*
X150120629Y-99682138D01*
X149994743Y-99866680D01*
X149900688Y-100069305D01*
X149840989Y-100284570D01*
X149817251Y-100506695D01*
X149388735Y-100506695D01*
X149375543Y-100355913D01*
X149316284Y-100134757D01*
X149298190Y-100095954D01*
X149221849Y-99932238D01*
X149221846Y-99932233D01*
X149219523Y-99927251D01*
X149146098Y-99822389D01*
X149091357Y-99744211D01*
X149091355Y-99744208D01*
X149088198Y-99739700D01*
X148926300Y-99577802D01*
X148921792Y-99574645D01*
X148921789Y-99574643D01*
X148840223Y-99517530D01*
X148738749Y-99446477D01*
X148733767Y-99444154D01*
X148733762Y-99444151D01*
X148536225Y-99352039D01*
X148536224Y-99352039D01*
X148531243Y-99349716D01*
X148525935Y-99348294D01*
X148525933Y-99348293D01*
X148315402Y-99291881D01*
X148315400Y-99291881D01*
X148310087Y-99290457D01*
X148082000Y-99270502D01*
X147853913Y-99290457D01*
X147848600Y-99291881D01*
X147848598Y-99291881D01*
X147638067Y-99348293D01*
X147638065Y-99348294D01*
X147632757Y-99349716D01*
X147627776Y-99352039D01*
X147627775Y-99352039D01*
X147430238Y-99444151D01*
X147430233Y-99444154D01*
X147425251Y-99446477D01*
X147323777Y-99517530D01*
X147242211Y-99574643D01*
X147242208Y-99574645D01*
X147237700Y-99577802D01*
X147075802Y-99739700D01*
X147072645Y-99744208D01*
X147072643Y-99744211D01*
X147017902Y-99822389D01*
X146944477Y-99927251D01*
X146942154Y-99932233D01*
X146942151Y-99932238D01*
X146865810Y-100095954D01*
X146847716Y-100134757D01*
X146788457Y-100355913D01*
X146768502Y-100584000D01*
X144823498Y-100584000D01*
X144803543Y-100355913D01*
X144744284Y-100134757D01*
X144726190Y-100095954D01*
X144649849Y-99932238D01*
X144649846Y-99932233D01*
X144647523Y-99927251D01*
X144574098Y-99822389D01*
X144519357Y-99744211D01*
X144519355Y-99744208D01*
X144516198Y-99739700D01*
X144354300Y-99577802D01*
X144349792Y-99574645D01*
X144349789Y-99574643D01*
X144268223Y-99517530D01*
X144166749Y-99446477D01*
X144161767Y-99444154D01*
X144161762Y-99444151D01*
X143964225Y-99352039D01*
X143964224Y-99352039D01*
X143959243Y-99349716D01*
X143953935Y-99348294D01*
X143953933Y-99348293D01*
X143743402Y-99291881D01*
X143743400Y-99291881D01*
X143738087Y-99290457D01*
X143510000Y-99270502D01*
X143281913Y-99290457D01*
X143276600Y-99291881D01*
X143276598Y-99291881D01*
X143066067Y-99348293D01*
X143066065Y-99348294D01*
X143060757Y-99349716D01*
X143055776Y-99352039D01*
X143055775Y-99352039D01*
X142858238Y-99444151D01*
X142858233Y-99444154D01*
X142853251Y-99446477D01*
X142751777Y-99517530D01*
X142670211Y-99574643D01*
X142670208Y-99574645D01*
X142665700Y-99577802D01*
X142503802Y-99739700D01*
X142500645Y-99744208D01*
X142500643Y-99744211D01*
X142445902Y-99822389D01*
X142372477Y-99927251D01*
X142370154Y-99932233D01*
X142370151Y-99932238D01*
X142293810Y-100095954D01*
X142275716Y-100134757D01*
X142216457Y-100355913D01*
X142196502Y-100584000D01*
X137203498Y-100584000D01*
X137183543Y-100355913D01*
X137124284Y-100134757D01*
X137106190Y-100095954D01*
X137029849Y-99932238D01*
X137029846Y-99932233D01*
X137027523Y-99927251D01*
X136954098Y-99822389D01*
X136899357Y-99744211D01*
X136899355Y-99744208D01*
X136896198Y-99739700D01*
X136734300Y-99577802D01*
X136729792Y-99574645D01*
X136729789Y-99574643D01*
X136648223Y-99517530D01*
X136546749Y-99446477D01*
X136541767Y-99444154D01*
X136541762Y-99444151D01*
X136344225Y-99352039D01*
X136344224Y-99352039D01*
X136339243Y-99349716D01*
X136333935Y-99348294D01*
X136333933Y-99348293D01*
X136123402Y-99291881D01*
X136123400Y-99291881D01*
X136118087Y-99290457D01*
X135890000Y-99270502D01*
X135661913Y-99290457D01*
X135656600Y-99291881D01*
X135656598Y-99291881D01*
X135446067Y-99348293D01*
X135446065Y-99348294D01*
X135440757Y-99349716D01*
X135435776Y-99352039D01*
X135435775Y-99352039D01*
X135238238Y-99444151D01*
X135238233Y-99444154D01*
X135233251Y-99446477D01*
X135131777Y-99517530D01*
X135050211Y-99574643D01*
X135050208Y-99574645D01*
X135045700Y-99577802D01*
X134883802Y-99739700D01*
X134880644Y-99744210D01*
X134880639Y-99744216D01*
X134791837Y-99871039D01*
X134736380Y-99915368D01*
X134665761Y-99922677D01*
X134602400Y-99890647D01*
X134582832Y-99867209D01*
X134482822Y-99712617D01*
X134482820Y-99712614D01*
X134480014Y-99708277D01*
X134329670Y-99543051D01*
X134325619Y-99539852D01*
X134325615Y-99539848D01*
X134158414Y-99407800D01*
X134158410Y-99407798D01*
X134154359Y-99404598D01*
X134113053Y-99381796D01*
X134063084Y-99331364D01*
X134048312Y-99261921D01*
X134073428Y-99195516D01*
X134100780Y-99168909D01*
X134144603Y-99137650D01*
X134279860Y-99041173D01*
X134438096Y-98883489D01*
X134497594Y-98800689D01*
X134565435Y-98706277D01*
X134568453Y-98702077D01*
X134621128Y-98595498D01*
X134665136Y-98506453D01*
X134665137Y-98506451D01*
X134667430Y-98501811D01*
X134732370Y-98288069D01*
X134761529Y-98066590D01*
X134763156Y-98000000D01*
X134744852Y-97777361D01*
X134690431Y-97560702D01*
X134601354Y-97355840D01*
X134553585Y-97282000D01*
X146768502Y-97282000D01*
X146788457Y-97510087D01*
X146847716Y-97731243D01*
X146850039Y-97736224D01*
X146850039Y-97736225D01*
X146942151Y-97933762D01*
X146942154Y-97933767D01*
X146944477Y-97938749D01*
X147075802Y-98126300D01*
X147237700Y-98288198D01*
X147242208Y-98291355D01*
X147242211Y-98291357D01*
X147320389Y-98346098D01*
X147425251Y-98419523D01*
X147430233Y-98421846D01*
X147430238Y-98421849D01*
X147591095Y-98496857D01*
X147632757Y-98516284D01*
X147638065Y-98517706D01*
X147638067Y-98517707D01*
X147848598Y-98574119D01*
X147848600Y-98574119D01*
X147853913Y-98575543D01*
X148082000Y-98595498D01*
X148310087Y-98575543D01*
X148315400Y-98574119D01*
X148315402Y-98574119D01*
X148525933Y-98517707D01*
X148525935Y-98517706D01*
X148531243Y-98516284D01*
X148572905Y-98496857D01*
X148733762Y-98421849D01*
X148733767Y-98421846D01*
X148738749Y-98419523D01*
X148843611Y-98346098D01*
X148921789Y-98291357D01*
X148921792Y-98291355D01*
X148926300Y-98288198D01*
X149088198Y-98126300D01*
X149219523Y-97938749D01*
X149221846Y-97933767D01*
X149221849Y-97933762D01*
X149313961Y-97736225D01*
X149313961Y-97736224D01*
X149316284Y-97731243D01*
X149375543Y-97510087D01*
X149395498Y-97282000D01*
X149375543Y-97053913D01*
X149362938Y-97006870D01*
X149317707Y-96838067D01*
X149317706Y-96838065D01*
X149316284Y-96832757D01*
X149296982Y-96791364D01*
X149221849Y-96630238D01*
X149221846Y-96630233D01*
X149219523Y-96625251D01*
X149088198Y-96437700D01*
X148926300Y-96275802D01*
X148921792Y-96272645D01*
X148921789Y-96272643D01*
X148843611Y-96217902D01*
X148738749Y-96144477D01*
X148733767Y-96142154D01*
X148733762Y-96142151D01*
X148536225Y-96050039D01*
X148536224Y-96050039D01*
X148531243Y-96047716D01*
X148525935Y-96046294D01*
X148525933Y-96046293D01*
X148315402Y-95989881D01*
X148315400Y-95989881D01*
X148310087Y-95988457D01*
X148082000Y-95968502D01*
X147853913Y-95988457D01*
X147848600Y-95989881D01*
X147848598Y-95989881D01*
X147638067Y-96046293D01*
X147638065Y-96046294D01*
X147632757Y-96047716D01*
X147627776Y-96050039D01*
X147627775Y-96050039D01*
X147430238Y-96142151D01*
X147430233Y-96142154D01*
X147425251Y-96144477D01*
X147320389Y-96217902D01*
X147242211Y-96272643D01*
X147242208Y-96272645D01*
X147237700Y-96275802D01*
X147075802Y-96437700D01*
X146944477Y-96625251D01*
X146942154Y-96630233D01*
X146942151Y-96630238D01*
X146867018Y-96791364D01*
X146847716Y-96832757D01*
X146846294Y-96838065D01*
X146846293Y-96838067D01*
X146801062Y-97006870D01*
X146788457Y-97053913D01*
X146768502Y-97282000D01*
X134553585Y-97282000D01*
X134480014Y-97168277D01*
X134329670Y-97003051D01*
X134325619Y-96999852D01*
X134325615Y-96999848D01*
X134158414Y-96867800D01*
X134158410Y-96867798D01*
X134154359Y-96864598D01*
X134113053Y-96841796D01*
X134063084Y-96791364D01*
X134048312Y-96721921D01*
X134073428Y-96655516D01*
X134100780Y-96628909D01*
X134144603Y-96597650D01*
X134279860Y-96501173D01*
X134438096Y-96343489D01*
X134494433Y-96265088D01*
X134558474Y-96175965D01*
X134614469Y-96132317D01*
X134685172Y-96125871D01*
X134748137Y-96158674D01*
X134764010Y-96177220D01*
X134877495Y-96339292D01*
X134883802Y-96348300D01*
X135045700Y-96510198D01*
X135050208Y-96513355D01*
X135050211Y-96513357D01*
X135128389Y-96568098D01*
X135233251Y-96641523D01*
X135238233Y-96643846D01*
X135238238Y-96643849D01*
X135335791Y-96689338D01*
X135440757Y-96738284D01*
X135446065Y-96739706D01*
X135446067Y-96739707D01*
X135656598Y-96796119D01*
X135656600Y-96796119D01*
X135661913Y-96797543D01*
X135890000Y-96817498D01*
X136118087Y-96797543D01*
X136123400Y-96796119D01*
X136123402Y-96796119D01*
X136333933Y-96739707D01*
X136333935Y-96739706D01*
X136339243Y-96738284D01*
X136444209Y-96689338D01*
X136541762Y-96643849D01*
X136541767Y-96643846D01*
X136546749Y-96641523D01*
X136651611Y-96568098D01*
X136729789Y-96513357D01*
X136729792Y-96513355D01*
X136734300Y-96510198D01*
X136896198Y-96348300D01*
X136902506Y-96339292D01*
X136957544Y-96260689D01*
X137027523Y-96160749D01*
X137029846Y-96155767D01*
X137029849Y-96155762D01*
X137121961Y-95958225D01*
X137121961Y-95958224D01*
X137124284Y-95953243D01*
X137183543Y-95732087D01*
X137203498Y-95504000D01*
X142196502Y-95504000D01*
X142216457Y-95732087D01*
X142275716Y-95953243D01*
X142278039Y-95958224D01*
X142278039Y-95958225D01*
X142370151Y-96155762D01*
X142370154Y-96155767D01*
X142372477Y-96160749D01*
X142442456Y-96260689D01*
X142497495Y-96339292D01*
X142503802Y-96348300D01*
X142665700Y-96510198D01*
X142670208Y-96513355D01*
X142670211Y-96513357D01*
X142748389Y-96568098D01*
X142853251Y-96641523D01*
X142858233Y-96643846D01*
X142858238Y-96643849D01*
X142955791Y-96689338D01*
X143060757Y-96738284D01*
X143066065Y-96739706D01*
X143066067Y-96739707D01*
X143276598Y-96796119D01*
X143276600Y-96796119D01*
X143281913Y-96797543D01*
X143510000Y-96817498D01*
X143738087Y-96797543D01*
X143743400Y-96796119D01*
X143743402Y-96796119D01*
X143953933Y-96739707D01*
X143953935Y-96739706D01*
X143959243Y-96738284D01*
X144064209Y-96689338D01*
X144161762Y-96643849D01*
X144161767Y-96643846D01*
X144166749Y-96641523D01*
X144271611Y-96568098D01*
X144349789Y-96513357D01*
X144349792Y-96513355D01*
X144354300Y-96510198D01*
X144516198Y-96348300D01*
X144522506Y-96339292D01*
X144577544Y-96260689D01*
X144647523Y-96160749D01*
X144649846Y-96155767D01*
X144649849Y-96155762D01*
X144741961Y-95958225D01*
X144741961Y-95958224D01*
X144744284Y-95953243D01*
X144803543Y-95732087D01*
X144823498Y-95504000D01*
X144803543Y-95275913D01*
X144744284Y-95054757D01*
X144726190Y-95015954D01*
X144649849Y-94852238D01*
X144649846Y-94852233D01*
X144647523Y-94847251D01*
X144574098Y-94742389D01*
X144519357Y-94664211D01*
X144519355Y-94664208D01*
X144516198Y-94659700D01*
X144354300Y-94497802D01*
X144349792Y-94494645D01*
X144349789Y-94494643D01*
X144268223Y-94437530D01*
X144166749Y-94366477D01*
X144161767Y-94364154D01*
X144161762Y-94364151D01*
X143964225Y-94272039D01*
X143964224Y-94272039D01*
X143959243Y-94269716D01*
X143953935Y-94268294D01*
X143953933Y-94268293D01*
X143743402Y-94211881D01*
X143743400Y-94211881D01*
X143738087Y-94210457D01*
X143510000Y-94190502D01*
X143281913Y-94210457D01*
X143276600Y-94211881D01*
X143276598Y-94211881D01*
X143066067Y-94268293D01*
X143066065Y-94268294D01*
X143060757Y-94269716D01*
X143055776Y-94272039D01*
X143055775Y-94272039D01*
X142858238Y-94364151D01*
X142858233Y-94364154D01*
X142853251Y-94366477D01*
X142751777Y-94437530D01*
X142670211Y-94494643D01*
X142670208Y-94494645D01*
X142665700Y-94497802D01*
X142503802Y-94659700D01*
X142500645Y-94664208D01*
X142500643Y-94664211D01*
X142445902Y-94742389D01*
X142372477Y-94847251D01*
X142370154Y-94852233D01*
X142370151Y-94852238D01*
X142293810Y-95015954D01*
X142275716Y-95054757D01*
X142216457Y-95275913D01*
X142196502Y-95504000D01*
X137203498Y-95504000D01*
X137183543Y-95275913D01*
X137124284Y-95054757D01*
X137106190Y-95015954D01*
X137029849Y-94852238D01*
X137029846Y-94852233D01*
X137027523Y-94847251D01*
X136954098Y-94742389D01*
X136899357Y-94664211D01*
X136899355Y-94664208D01*
X136896198Y-94659700D01*
X136734300Y-94497802D01*
X136729792Y-94494645D01*
X136729789Y-94494643D01*
X136648223Y-94437530D01*
X136546749Y-94366477D01*
X136541767Y-94364154D01*
X136541762Y-94364151D01*
X136344225Y-94272039D01*
X136344224Y-94272039D01*
X136339243Y-94269716D01*
X136333935Y-94268294D01*
X136333933Y-94268293D01*
X136123402Y-94211881D01*
X136123400Y-94211881D01*
X136118087Y-94210457D01*
X135890000Y-94190502D01*
X135661913Y-94210457D01*
X135656600Y-94211881D01*
X135656598Y-94211881D01*
X135446067Y-94268293D01*
X135446065Y-94268294D01*
X135440757Y-94269716D01*
X135435776Y-94272039D01*
X135435775Y-94272039D01*
X135238238Y-94364151D01*
X135238233Y-94364154D01*
X135233251Y-94366477D01*
X135131777Y-94437530D01*
X135050211Y-94494643D01*
X135050208Y-94494645D01*
X135045700Y-94497802D01*
X134883802Y-94659700D01*
X134880644Y-94664210D01*
X134880639Y-94664216D01*
X134791837Y-94791039D01*
X134736380Y-94835368D01*
X134665761Y-94842677D01*
X134602400Y-94810647D01*
X134582832Y-94787209D01*
X134482822Y-94632617D01*
X134482820Y-94632614D01*
X134480014Y-94628277D01*
X134329670Y-94463051D01*
X134325619Y-94459852D01*
X134325615Y-94459848D01*
X134158414Y-94327800D01*
X134158410Y-94327798D01*
X134154359Y-94324598D01*
X134113053Y-94301796D01*
X134063084Y-94251364D01*
X134048312Y-94181921D01*
X134073428Y-94115516D01*
X134100780Y-94088909D01*
X134144603Y-94057650D01*
X134279860Y-93961173D01*
X134438096Y-93803489D01*
X134497594Y-93720689D01*
X134565435Y-93626277D01*
X134568453Y-93622077D01*
X134667430Y-93421811D01*
X134732370Y-93208069D01*
X134761529Y-92986590D01*
X134763156Y-92920000D01*
X134744852Y-92697361D01*
X134690431Y-92480702D01*
X134601354Y-92275840D01*
X134528976Y-92163961D01*
X134482822Y-92092617D01*
X134482820Y-92092614D01*
X134480014Y-92088277D01*
X134476540Y-92084459D01*
X134476533Y-92084450D01*
X134332435Y-91926088D01*
X134301383Y-91862242D01*
X134309779Y-91791744D01*
X134354956Y-91736976D01*
X134381400Y-91723307D01*
X134488052Y-91683325D01*
X134503649Y-91674786D01*
X134602614Y-91600616D01*
X134669121Y-91575768D01*
X134738503Y-91590821D01*
X134781392Y-91629172D01*
X134881024Y-91771462D01*
X134888084Y-91779875D01*
X135042125Y-91933916D01*
X135050533Y-91940972D01*
X135228993Y-92065931D01*
X135238489Y-92071414D01*
X135435947Y-92163490D01*
X135446239Y-92167236D01*
X135618503Y-92213394D01*
X135632599Y-92213058D01*
X135636000Y-92205116D01*
X135636000Y-92199967D01*
X136144000Y-92199967D01*
X136147973Y-92213498D01*
X136156522Y-92214727D01*
X136333761Y-92167236D01*
X136344053Y-92163490D01*
X136541511Y-92071414D01*
X136551007Y-92065931D01*
X136729467Y-91940972D01*
X136737875Y-91933916D01*
X136891916Y-91779875D01*
X136898972Y-91771467D01*
X137023931Y-91593007D01*
X137029414Y-91583511D01*
X137121490Y-91386053D01*
X137125236Y-91375761D01*
X137171394Y-91203497D01*
X137171058Y-91189401D01*
X137163116Y-91186000D01*
X136162115Y-91186000D01*
X136146876Y-91190475D01*
X136145671Y-91191865D01*
X136144000Y-91199548D01*
X136144000Y-92199967D01*
X135636000Y-92199967D01*
X135636000Y-90932000D01*
X142196502Y-90932000D01*
X142216457Y-91160087D01*
X142217881Y-91165400D01*
X142217881Y-91165402D01*
X142262616Y-91332352D01*
X142275716Y-91381243D01*
X142278039Y-91386224D01*
X142278039Y-91386225D01*
X142370151Y-91583762D01*
X142370154Y-91583767D01*
X142372477Y-91588749D01*
X142381804Y-91602069D01*
X142497139Y-91766784D01*
X142503802Y-91776300D01*
X142665700Y-91938198D01*
X142670208Y-91941355D01*
X142670211Y-91941357D01*
X142748389Y-91996098D01*
X142853251Y-92069523D01*
X142858233Y-92071846D01*
X142858238Y-92071849D01*
X143054765Y-92163490D01*
X143060757Y-92166284D01*
X143066065Y-92167706D01*
X143066067Y-92167707D01*
X143276598Y-92224119D01*
X143276600Y-92224119D01*
X143281913Y-92225543D01*
X143510000Y-92245498D01*
X143738087Y-92225543D01*
X143743400Y-92224119D01*
X143743402Y-92224119D01*
X143953933Y-92167707D01*
X143953935Y-92167706D01*
X143959243Y-92166284D01*
X143965235Y-92163490D01*
X144161762Y-92071849D01*
X144161767Y-92071846D01*
X144166749Y-92069523D01*
X144271611Y-91996098D01*
X144349789Y-91941357D01*
X144349792Y-91941355D01*
X144354300Y-91938198D01*
X144516198Y-91776300D01*
X144522862Y-91766784D01*
X144638196Y-91602069D01*
X144647523Y-91588749D01*
X144649846Y-91583767D01*
X144649849Y-91583762D01*
X144741961Y-91386225D01*
X144741961Y-91386224D01*
X144744284Y-91381243D01*
X144757385Y-91332352D01*
X144802119Y-91165402D01*
X144802119Y-91165400D01*
X144803543Y-91160087D01*
X144823498Y-90932000D01*
X144803543Y-90703913D01*
X144786009Y-90638475D01*
X144745707Y-90488067D01*
X144745706Y-90488065D01*
X144744284Y-90482757D01*
X144741961Y-90477775D01*
X144649849Y-90280238D01*
X144649846Y-90280233D01*
X144647523Y-90275251D01*
X144539883Y-90121525D01*
X144519357Y-90092211D01*
X144519355Y-90092208D01*
X144516198Y-90087700D01*
X144354300Y-89925802D01*
X144349792Y-89922645D01*
X144349789Y-89922643D01*
X144271611Y-89867902D01*
X144166749Y-89794477D01*
X144161767Y-89792154D01*
X144161762Y-89792151D01*
X143964225Y-89700039D01*
X143964224Y-89700039D01*
X143959243Y-89697716D01*
X143953935Y-89696294D01*
X143953933Y-89696293D01*
X143825951Y-89662000D01*
X146768502Y-89662000D01*
X146788457Y-89890087D01*
X146789881Y-89895400D01*
X146789881Y-89895402D01*
X146842703Y-90092533D01*
X146847716Y-90111243D01*
X146850039Y-90116224D01*
X146850039Y-90116225D01*
X146942151Y-90313762D01*
X146942154Y-90313767D01*
X146944477Y-90318749D01*
X146947634Y-90323257D01*
X147063156Y-90488239D01*
X147075802Y-90506300D01*
X147237700Y-90668198D01*
X147242208Y-90671355D01*
X147242211Y-90671357D01*
X147288706Y-90703913D01*
X147425251Y-90799523D01*
X147430233Y-90801846D01*
X147430238Y-90801849D01*
X147627775Y-90893961D01*
X147632757Y-90896284D01*
X147638065Y-90897706D01*
X147638067Y-90897707D01*
X147848598Y-90954119D01*
X147848600Y-90954119D01*
X147853913Y-90955543D01*
X148082000Y-90975498D01*
X148310087Y-90955543D01*
X148315400Y-90954119D01*
X148315402Y-90954119D01*
X148525933Y-90897707D01*
X148525935Y-90897706D01*
X148531243Y-90896284D01*
X148536225Y-90893961D01*
X148733762Y-90801849D01*
X148733767Y-90801846D01*
X148738749Y-90799523D01*
X148875294Y-90703913D01*
X148921789Y-90671357D01*
X148921792Y-90671355D01*
X148926300Y-90668198D01*
X149088198Y-90506300D01*
X149100845Y-90488239D01*
X149216366Y-90323257D01*
X149219523Y-90318749D01*
X149221846Y-90313767D01*
X149221849Y-90313762D01*
X149313961Y-90116225D01*
X149313961Y-90116224D01*
X149316284Y-90111243D01*
X149321298Y-90092533D01*
X149374119Y-89895402D01*
X149374119Y-89895400D01*
X149375543Y-89890087D01*
X149395498Y-89662000D01*
X149375543Y-89433913D01*
X149373864Y-89427648D01*
X149317707Y-89218067D01*
X149317706Y-89218065D01*
X149316284Y-89212757D01*
X149286568Y-89149030D01*
X149221849Y-89010238D01*
X149221846Y-89010233D01*
X149219523Y-89005251D01*
X149132143Y-88880460D01*
X149091357Y-88822211D01*
X149091355Y-88822208D01*
X149088198Y-88817700D01*
X148926300Y-88655802D01*
X148921792Y-88652645D01*
X148921789Y-88652643D01*
X148843611Y-88597902D01*
X148738749Y-88524477D01*
X148733767Y-88522154D01*
X148733762Y-88522151D01*
X148536225Y-88430039D01*
X148536224Y-88430039D01*
X148531243Y-88427716D01*
X148525935Y-88426294D01*
X148525933Y-88426293D01*
X148315402Y-88369881D01*
X148315400Y-88369881D01*
X148310087Y-88368457D01*
X148082000Y-88348502D01*
X147853913Y-88368457D01*
X147848600Y-88369881D01*
X147848598Y-88369881D01*
X147638067Y-88426293D01*
X147638065Y-88426294D01*
X147632757Y-88427716D01*
X147627776Y-88430039D01*
X147627775Y-88430039D01*
X147430238Y-88522151D01*
X147430233Y-88522154D01*
X147425251Y-88524477D01*
X147320389Y-88597902D01*
X147242211Y-88652643D01*
X147242208Y-88652645D01*
X147237700Y-88655802D01*
X147075802Y-88817700D01*
X147072645Y-88822208D01*
X147072643Y-88822211D01*
X147031857Y-88880460D01*
X146944477Y-89005251D01*
X146942154Y-89010233D01*
X146942151Y-89010238D01*
X146877432Y-89149030D01*
X146847716Y-89212757D01*
X146846294Y-89218065D01*
X146846293Y-89218067D01*
X146790136Y-89427648D01*
X146788457Y-89433913D01*
X146768502Y-89662000D01*
X143825951Y-89662000D01*
X143743402Y-89639881D01*
X143743400Y-89639881D01*
X143738087Y-89638457D01*
X143510000Y-89618502D01*
X143281913Y-89638457D01*
X143276600Y-89639881D01*
X143276598Y-89639881D01*
X143066067Y-89696293D01*
X143066065Y-89696294D01*
X143060757Y-89697716D01*
X143055776Y-89700039D01*
X143055775Y-89700039D01*
X142858238Y-89792151D01*
X142858233Y-89792154D01*
X142853251Y-89794477D01*
X142748389Y-89867902D01*
X142670211Y-89922643D01*
X142670208Y-89922645D01*
X142665700Y-89925802D01*
X142503802Y-90087700D01*
X142500645Y-90092208D01*
X142500643Y-90092211D01*
X142480117Y-90121525D01*
X142372477Y-90275251D01*
X142370154Y-90280233D01*
X142370151Y-90280238D01*
X142278039Y-90477775D01*
X142275716Y-90482757D01*
X142274294Y-90488065D01*
X142274293Y-90488067D01*
X142233991Y-90638475D01*
X142216457Y-90703913D01*
X142196502Y-90932000D01*
X135636000Y-90932000D01*
X135636000Y-90659885D01*
X136144000Y-90659885D01*
X136148475Y-90675124D01*
X136149865Y-90676329D01*
X136157548Y-90678000D01*
X137157967Y-90678000D01*
X137171498Y-90674027D01*
X137172727Y-90665478D01*
X137125236Y-90488239D01*
X137121490Y-90477947D01*
X137029414Y-90280489D01*
X137023931Y-90270993D01*
X136898972Y-90092533D01*
X136891916Y-90084125D01*
X136737875Y-89930084D01*
X136729467Y-89923028D01*
X136551007Y-89798069D01*
X136541511Y-89792586D01*
X136344053Y-89700510D01*
X136333761Y-89696764D01*
X136161497Y-89650606D01*
X136147401Y-89650942D01*
X136144000Y-89658884D01*
X136144000Y-90659885D01*
X135636000Y-90659885D01*
X135636000Y-89664033D01*
X135632027Y-89650502D01*
X135623478Y-89649273D01*
X135446239Y-89696764D01*
X135435947Y-89700510D01*
X135238489Y-89792586D01*
X135228993Y-89798069D01*
X135050533Y-89923028D01*
X135042125Y-89930084D01*
X134973094Y-89999115D01*
X134910782Y-90033141D01*
X134839967Y-90028076D01*
X134783131Y-89985529D01*
X134758320Y-89919009D01*
X134757999Y-89910020D01*
X134757999Y-89485331D01*
X134757629Y-89478510D01*
X134752105Y-89427648D01*
X134748479Y-89412396D01*
X134703324Y-89291946D01*
X134694786Y-89276351D01*
X134618285Y-89174276D01*
X134605724Y-89161715D01*
X134503649Y-89085214D01*
X134488054Y-89076676D01*
X134377813Y-89035348D01*
X134321049Y-88992706D01*
X134296349Y-88926145D01*
X134311557Y-88856796D01*
X134333104Y-88828115D01*
X134434430Y-88727144D01*
X134434440Y-88727132D01*
X134438096Y-88723489D01*
X134494433Y-88645088D01*
X134558474Y-88555965D01*
X134614469Y-88512317D01*
X134685172Y-88505871D01*
X134748137Y-88538674D01*
X134764010Y-88557220D01*
X134877495Y-88719292D01*
X134883802Y-88728300D01*
X135045700Y-88890198D01*
X135050208Y-88893355D01*
X135050211Y-88893357D01*
X135097037Y-88926145D01*
X135233251Y-89021523D01*
X135238233Y-89023846D01*
X135238238Y-89023849D01*
X135421220Y-89109174D01*
X135440757Y-89118284D01*
X135446065Y-89119706D01*
X135446067Y-89119707D01*
X135656598Y-89176119D01*
X135656600Y-89176119D01*
X135661913Y-89177543D01*
X135890000Y-89197498D01*
X136118087Y-89177543D01*
X136123400Y-89176119D01*
X136123402Y-89176119D01*
X136333933Y-89119707D01*
X136333935Y-89119706D01*
X136339243Y-89118284D01*
X136358780Y-89109174D01*
X136541762Y-89023849D01*
X136541767Y-89023846D01*
X136546749Y-89021523D01*
X136682963Y-88926145D01*
X136729789Y-88893357D01*
X136729792Y-88893355D01*
X136734300Y-88890198D01*
X136896198Y-88728300D01*
X136902506Y-88719292D01*
X136957544Y-88640689D01*
X137027523Y-88540749D01*
X137029846Y-88535767D01*
X137029849Y-88535762D01*
X137121961Y-88338225D01*
X137121961Y-88338224D01*
X137124284Y-88333243D01*
X137183543Y-88112087D01*
X137203498Y-87884000D01*
X142196502Y-87884000D01*
X142216457Y-88112087D01*
X142275716Y-88333243D01*
X142278039Y-88338224D01*
X142278039Y-88338225D01*
X142370151Y-88535762D01*
X142370154Y-88535767D01*
X142372477Y-88540749D01*
X142442456Y-88640689D01*
X142497495Y-88719292D01*
X142503802Y-88728300D01*
X142665700Y-88890198D01*
X142670208Y-88893355D01*
X142670211Y-88893357D01*
X142717037Y-88926145D01*
X142853251Y-89021523D01*
X142858233Y-89023846D01*
X142858238Y-89023849D01*
X143041220Y-89109174D01*
X143060757Y-89118284D01*
X143066065Y-89119706D01*
X143066067Y-89119707D01*
X143276598Y-89176119D01*
X143276600Y-89176119D01*
X143281913Y-89177543D01*
X143510000Y-89197498D01*
X143738087Y-89177543D01*
X143743400Y-89176119D01*
X143743402Y-89176119D01*
X143953933Y-89119707D01*
X143953935Y-89119706D01*
X143959243Y-89118284D01*
X143978780Y-89109174D01*
X144161762Y-89023849D01*
X144161767Y-89023846D01*
X144166749Y-89021523D01*
X144302963Y-88926145D01*
X144349789Y-88893357D01*
X144349792Y-88893355D01*
X144354300Y-88890198D01*
X144516198Y-88728300D01*
X144522506Y-88719292D01*
X144577544Y-88640689D01*
X144647523Y-88540749D01*
X144649846Y-88535767D01*
X144649849Y-88535762D01*
X144741961Y-88338225D01*
X144741961Y-88338224D01*
X144744284Y-88333243D01*
X144803543Y-88112087D01*
X144823498Y-87884000D01*
X144816735Y-87806695D01*
X149817251Y-87806695D01*
X149817548Y-87811848D01*
X149817548Y-87811851D01*
X149823011Y-87906590D01*
X149830110Y-88029715D01*
X149831247Y-88034761D01*
X149831248Y-88034767D01*
X149849871Y-88117402D01*
X149879222Y-88247639D01*
X149963266Y-88454616D01*
X149965965Y-88459020D01*
X150025373Y-88555965D01*
X150079987Y-88645088D01*
X150226250Y-88813938D01*
X150230225Y-88817238D01*
X150230231Y-88817244D01*
X150235425Y-88821556D01*
X150275059Y-88880460D01*
X150276555Y-88951441D01*
X150239439Y-89011962D01*
X150199168Y-89036480D01*
X150091946Y-89076676D01*
X150076351Y-89085214D01*
X149974276Y-89161715D01*
X149961715Y-89174276D01*
X149885214Y-89276351D01*
X149876676Y-89291946D01*
X149831522Y-89412394D01*
X149827895Y-89427649D01*
X149822369Y-89478514D01*
X149822000Y-89485328D01*
X149822000Y-90107885D01*
X149826475Y-90123124D01*
X149827865Y-90124329D01*
X149835548Y-90126000D01*
X152519884Y-90126000D01*
X152535123Y-90121525D01*
X152536328Y-90120135D01*
X152537999Y-90112452D01*
X152537999Y-89485331D01*
X152537629Y-89478510D01*
X152532105Y-89427648D01*
X152528479Y-89412396D01*
X152483324Y-89291946D01*
X152474786Y-89276351D01*
X152398285Y-89174276D01*
X152385724Y-89161715D01*
X152283649Y-89085214D01*
X152268054Y-89076676D01*
X152157813Y-89035348D01*
X152101049Y-88992706D01*
X152076349Y-88926145D01*
X152091557Y-88856796D01*
X152113104Y-88828115D01*
X152214430Y-88727144D01*
X152214440Y-88727132D01*
X152218096Y-88723489D01*
X152277594Y-88640689D01*
X152345435Y-88546277D01*
X152348453Y-88542077D01*
X152357152Y-88524477D01*
X152445136Y-88346453D01*
X152445137Y-88346451D01*
X152447430Y-88341811D01*
X152512370Y-88128069D01*
X152541529Y-87906590D01*
X152543156Y-87840000D01*
X152524852Y-87617361D01*
X152470431Y-87400702D01*
X152381354Y-87195840D01*
X152283261Y-87044211D01*
X152262822Y-87012617D01*
X152262820Y-87012614D01*
X152260014Y-87008277D01*
X152109670Y-86843051D01*
X152105619Y-86839852D01*
X152105615Y-86839848D01*
X151938414Y-86707800D01*
X151938410Y-86707798D01*
X151934359Y-86704598D01*
X151893053Y-86681796D01*
X151843084Y-86631364D01*
X151828312Y-86561921D01*
X151853428Y-86495516D01*
X151880780Y-86468909D01*
X151924603Y-86437650D01*
X152059860Y-86341173D01*
X152218096Y-86183489D01*
X152277594Y-86100689D01*
X152345435Y-86006277D01*
X152348453Y-86002077D01*
X152364126Y-85970366D01*
X152445136Y-85806453D01*
X152445137Y-85806451D01*
X152447430Y-85801811D01*
X152512370Y-85588069D01*
X152541529Y-85366590D01*
X152543156Y-85300000D01*
X152524852Y-85077361D01*
X152470431Y-84860702D01*
X152381354Y-84655840D01*
X152260014Y-84468277D01*
X152109670Y-84303051D01*
X152105619Y-84299852D01*
X152105615Y-84299848D01*
X151938414Y-84167800D01*
X151938410Y-84167798D01*
X151934359Y-84164598D01*
X151893053Y-84141796D01*
X151843084Y-84091364D01*
X151828312Y-84021921D01*
X151853428Y-83955516D01*
X151880780Y-83928909D01*
X151924603Y-83897650D01*
X152059860Y-83801173D01*
X152218096Y-83643489D01*
X152277594Y-83560689D01*
X152345435Y-83466277D01*
X152348453Y-83462077D01*
X152447430Y-83261811D01*
X152502200Y-83081543D01*
X152510865Y-83053023D01*
X152510865Y-83053021D01*
X152512370Y-83048069D01*
X152541529Y-82826590D01*
X152542243Y-82797357D01*
X152543074Y-82763365D01*
X152543074Y-82763361D01*
X152543156Y-82760000D01*
X152524852Y-82537361D01*
X152470431Y-82320702D01*
X152381354Y-82115840D01*
X152260014Y-81928277D01*
X152109670Y-81763051D01*
X152105619Y-81759852D01*
X152105615Y-81759848D01*
X151938414Y-81627800D01*
X151938410Y-81627798D01*
X151934359Y-81624598D01*
X151893053Y-81601796D01*
X151843084Y-81551364D01*
X151828312Y-81481921D01*
X151853428Y-81415516D01*
X151880780Y-81388909D01*
X151943646Y-81344067D01*
X152059860Y-81261173D01*
X152218096Y-81103489D01*
X152277594Y-81020689D01*
X152345435Y-80926277D01*
X152348453Y-80922077D01*
X152447430Y-80721811D01*
X152512370Y-80508069D01*
X152541529Y-80286590D01*
X152543156Y-80220000D01*
X152524852Y-79997361D01*
X152470431Y-79780702D01*
X152381354Y-79575840D01*
X152308976Y-79463961D01*
X152262822Y-79392617D01*
X152262820Y-79392614D01*
X152260014Y-79388277D01*
X152244670Y-79371414D01*
X152112798Y-79226488D01*
X152081746Y-79162642D01*
X152090141Y-79092143D01*
X152135317Y-79037375D01*
X152161761Y-79023706D01*
X152268297Y-78983767D01*
X152276705Y-78980615D01*
X152393261Y-78893261D01*
X152480615Y-78776705D01*
X152531745Y-78640316D01*
X152538500Y-78578134D01*
X152538500Y-76781866D01*
X152531745Y-76719684D01*
X152480615Y-76583295D01*
X152393261Y-76466739D01*
X152276705Y-76379385D01*
X152249905Y-76369338D01*
X152158203Y-76334960D01*
X152101439Y-76292318D01*
X152076739Y-76225756D01*
X152091947Y-76156408D01*
X152113493Y-76127727D01*
X152131251Y-76110031D01*
X152218096Y-76023489D01*
X152277594Y-75940689D01*
X152345435Y-75846277D01*
X152348453Y-75842077D01*
X152443459Y-75649847D01*
X152445136Y-75646453D01*
X152445137Y-75646451D01*
X152447430Y-75641811D01*
X152512370Y-75428069D01*
X152541529Y-75206590D01*
X152543156Y-75140000D01*
X152524852Y-74917361D01*
X152470431Y-74700702D01*
X152381354Y-74495840D01*
X152283261Y-74344211D01*
X152262822Y-74312617D01*
X152262820Y-74312614D01*
X152260014Y-74308277D01*
X152109670Y-74143051D01*
X152105619Y-74139852D01*
X152105615Y-74139848D01*
X151938414Y-74007800D01*
X151938410Y-74007798D01*
X151934359Y-74004598D01*
X151893053Y-73981796D01*
X151843084Y-73931364D01*
X151828312Y-73861921D01*
X151853428Y-73795516D01*
X151880780Y-73768909D01*
X151924603Y-73737650D01*
X152059860Y-73641173D01*
X152218096Y-73483489D01*
X152277594Y-73400689D01*
X152345435Y-73306277D01*
X152348453Y-73302077D01*
X152364126Y-73270366D01*
X152445136Y-73106453D01*
X152445137Y-73106451D01*
X152447430Y-73101811D01*
X152512370Y-72888069D01*
X152541529Y-72666590D01*
X152543156Y-72600000D01*
X152524852Y-72377361D01*
X152470431Y-72160702D01*
X152381354Y-71955840D01*
X152260014Y-71768277D01*
X152109670Y-71603051D01*
X152105619Y-71599852D01*
X152105615Y-71599848D01*
X151938414Y-71467800D01*
X151938410Y-71467798D01*
X151934359Y-71464598D01*
X151893053Y-71441796D01*
X151843084Y-71391364D01*
X151828312Y-71321921D01*
X151853428Y-71255516D01*
X151880780Y-71228909D01*
X151924603Y-71197650D01*
X152059860Y-71101173D01*
X152218096Y-70943489D01*
X152277594Y-70860689D01*
X152345435Y-70766277D01*
X152348453Y-70762077D01*
X152447430Y-70561811D01*
X152502200Y-70381543D01*
X152510865Y-70353023D01*
X152510865Y-70353021D01*
X152512370Y-70348069D01*
X152541529Y-70126590D01*
X152542243Y-70097357D01*
X152543074Y-70063365D01*
X152543074Y-70063361D01*
X152543156Y-70060000D01*
X152524852Y-69837361D01*
X152470431Y-69620702D01*
X152381354Y-69415840D01*
X152260014Y-69228277D01*
X152109670Y-69063051D01*
X152105619Y-69059852D01*
X152105615Y-69059848D01*
X151938414Y-68927800D01*
X151938410Y-68927798D01*
X151934359Y-68924598D01*
X151893053Y-68901796D01*
X151843084Y-68851364D01*
X151828312Y-68781921D01*
X151853428Y-68715516D01*
X151880780Y-68688909D01*
X151943646Y-68644067D01*
X152059860Y-68561173D01*
X152218096Y-68403489D01*
X152277594Y-68320689D01*
X152345435Y-68226277D01*
X152348453Y-68222077D01*
X152447430Y-68021811D01*
X152512370Y-67808069D01*
X152541529Y-67586590D01*
X152543156Y-67520000D01*
X152524852Y-67297361D01*
X152470431Y-67080702D01*
X152381354Y-66875840D01*
X152260014Y-66688277D01*
X152256540Y-66684459D01*
X152256533Y-66684450D01*
X152112435Y-66526088D01*
X152081383Y-66462242D01*
X152089779Y-66391744D01*
X152134956Y-66336976D01*
X152161400Y-66323307D01*
X152268052Y-66283325D01*
X152283649Y-66274786D01*
X152385724Y-66198285D01*
X152398285Y-66185724D01*
X152474786Y-66083649D01*
X152483324Y-66068054D01*
X152528478Y-65947606D01*
X152532105Y-65932351D01*
X152537631Y-65881486D01*
X152538000Y-65874672D01*
X152538000Y-65252115D01*
X152533525Y-65236876D01*
X152532135Y-65235671D01*
X152524452Y-65234000D01*
X149840116Y-65234000D01*
X149824877Y-65238475D01*
X149823672Y-65239865D01*
X149822001Y-65247548D01*
X149822001Y-65874669D01*
X149822371Y-65881490D01*
X149827895Y-65932352D01*
X149831521Y-65947604D01*
X149876676Y-66068054D01*
X149885214Y-66083649D01*
X149961715Y-66185724D01*
X149974276Y-66198285D01*
X150076351Y-66274786D01*
X150091946Y-66283324D01*
X150200827Y-66324142D01*
X150257591Y-66366784D01*
X150282291Y-66433345D01*
X150267083Y-66502694D01*
X150247691Y-66529175D01*
X150124200Y-66658401D01*
X150120629Y-66662138D01*
X149994743Y-66846680D01*
X149900688Y-67049305D01*
X149840989Y-67264570D01*
X149817251Y-67486695D01*
X149817548Y-67491848D01*
X149817548Y-67491851D01*
X149823011Y-67586590D01*
X149830110Y-67709715D01*
X149831247Y-67714761D01*
X149831248Y-67714767D01*
X149851119Y-67802939D01*
X149879222Y-67927639D01*
X149963266Y-68134616D01*
X149965965Y-68139020D01*
X150030113Y-68243700D01*
X150079987Y-68325088D01*
X150226250Y-68493938D01*
X150398126Y-68636632D01*
X150410850Y-68644067D01*
X150471445Y-68679476D01*
X150520169Y-68731114D01*
X150533240Y-68800897D01*
X150506509Y-68866669D01*
X150466055Y-68900027D01*
X150453607Y-68906507D01*
X150449474Y-68909610D01*
X150449471Y-68909612D01*
X150279100Y-69037530D01*
X150274965Y-69040635D01*
X150120629Y-69202138D01*
X149994743Y-69386680D01*
X149900688Y-69589305D01*
X149840989Y-69804570D01*
X149817251Y-70026695D01*
X149817548Y-70031848D01*
X149817548Y-70031851D01*
X149823011Y-70126590D01*
X149830110Y-70249715D01*
X149831247Y-70254761D01*
X149831248Y-70254767D01*
X149845941Y-70319961D01*
X149879222Y-70467639D01*
X149963266Y-70674616D01*
X149965965Y-70679020D01*
X150054492Y-70823483D01*
X150079987Y-70865088D01*
X150226250Y-71033938D01*
X150398126Y-71176632D01*
X150468595Y-71217811D01*
X150471445Y-71219476D01*
X150520169Y-71271114D01*
X150533240Y-71340897D01*
X150506509Y-71406669D01*
X150466055Y-71440027D01*
X150453607Y-71446507D01*
X150449474Y-71449610D01*
X150449471Y-71449612D01*
X150279100Y-71577530D01*
X150274965Y-71580635D01*
X150209346Y-71649301D01*
X150172516Y-71687842D01*
X150120629Y-71742138D01*
X150117715Y-71746410D01*
X150117714Y-71746411D01*
X150105731Y-71763978D01*
X149994743Y-71926680D01*
X149900688Y-72129305D01*
X149840989Y-72344570D01*
X149817251Y-72566695D01*
X149817548Y-72571848D01*
X149817548Y-72571851D01*
X149823011Y-72666590D01*
X149830110Y-72789715D01*
X149831247Y-72794761D01*
X149831248Y-72794767D01*
X149845388Y-72857507D01*
X149879222Y-73007639D01*
X149963266Y-73214616D01*
X149965965Y-73219020D01*
X150059243Y-73371236D01*
X150079987Y-73405088D01*
X150226250Y-73573938D01*
X150398126Y-73716632D01*
X150468595Y-73757811D01*
X150471445Y-73759476D01*
X150520169Y-73811114D01*
X150533240Y-73880897D01*
X150506509Y-73946669D01*
X150466055Y-73980027D01*
X150453607Y-73986507D01*
X150449474Y-73989610D01*
X150449471Y-73989612D01*
X150279100Y-74117530D01*
X150274965Y-74120635D01*
X150120629Y-74282138D01*
X149994743Y-74466680D01*
X149900688Y-74669305D01*
X149840989Y-74884570D01*
X149817251Y-75106695D01*
X149817548Y-75111848D01*
X149817548Y-75111851D01*
X149823011Y-75206590D01*
X149830110Y-75329715D01*
X149831247Y-75334761D01*
X149831248Y-75334767D01*
X149849871Y-75417402D01*
X149879222Y-75547639D01*
X149963266Y-75754616D01*
X149965965Y-75759020D01*
X150025373Y-75855965D01*
X150079987Y-75945088D01*
X150226250Y-76113938D01*
X150230230Y-76117242D01*
X150234981Y-76121187D01*
X150274616Y-76180090D01*
X150276113Y-76251071D01*
X150238997Y-76311593D01*
X150198725Y-76336112D01*
X150110095Y-76369338D01*
X150083295Y-76379385D01*
X149966739Y-76466739D01*
X149879385Y-76583295D01*
X149828255Y-76719684D01*
X149821500Y-76781866D01*
X149821500Y-78578134D01*
X149828255Y-78640316D01*
X149879385Y-78776705D01*
X149966739Y-78893261D01*
X150083295Y-78980615D01*
X150091704Y-78983767D01*
X150091705Y-78983768D01*
X150200451Y-79024535D01*
X150257216Y-79067176D01*
X150281916Y-79133738D01*
X150266709Y-79203087D01*
X150247316Y-79229568D01*
X150120629Y-79362138D01*
X150117715Y-79366410D01*
X150117714Y-79366411D01*
X150105409Y-79384450D01*
X149994743Y-79546680D01*
X149900688Y-79749305D01*
X149840989Y-79964570D01*
X149817251Y-80186695D01*
X149817548Y-80191848D01*
X149817548Y-80191851D01*
X149823011Y-80286590D01*
X149830110Y-80409715D01*
X149831247Y-80414761D01*
X149831248Y-80414767D01*
X149851119Y-80502939D01*
X149879222Y-80627639D01*
X149963266Y-80834616D01*
X149965965Y-80839020D01*
X150030113Y-80943700D01*
X150079987Y-81025088D01*
X150226250Y-81193938D01*
X150398126Y-81336632D01*
X150410850Y-81344067D01*
X150471445Y-81379476D01*
X150520169Y-81431114D01*
X150533240Y-81500897D01*
X150506509Y-81566669D01*
X150466055Y-81600027D01*
X150453607Y-81606507D01*
X150449474Y-81609610D01*
X150449471Y-81609612D01*
X150279100Y-81737530D01*
X150274965Y-81740635D01*
X150120629Y-81902138D01*
X149994743Y-82086680D01*
X149900688Y-82289305D01*
X149840989Y-82504570D01*
X149817251Y-82726695D01*
X149817548Y-82731848D01*
X149817548Y-82731851D01*
X149823011Y-82826590D01*
X149830110Y-82949715D01*
X149831247Y-82954761D01*
X149831248Y-82954767D01*
X149845941Y-83019961D01*
X149879222Y-83167639D01*
X149963266Y-83374616D01*
X149965965Y-83379020D01*
X150054492Y-83523483D01*
X150079987Y-83565088D01*
X150226250Y-83733938D01*
X150398126Y-83876632D01*
X150468595Y-83917811D01*
X150471445Y-83919476D01*
X150520169Y-83971114D01*
X150533240Y-84040897D01*
X150506509Y-84106669D01*
X150466055Y-84140027D01*
X150453607Y-84146507D01*
X150449474Y-84149610D01*
X150449471Y-84149612D01*
X150279100Y-84277530D01*
X150274965Y-84280635D01*
X150209346Y-84349301D01*
X150172516Y-84387842D01*
X150120629Y-84442138D01*
X150117715Y-84446410D01*
X150117714Y-84446411D01*
X150105731Y-84463978D01*
X149994743Y-84626680D01*
X149900688Y-84829305D01*
X149840989Y-85044570D01*
X149817251Y-85266695D01*
X149817548Y-85271848D01*
X149817548Y-85271851D01*
X149823011Y-85366590D01*
X149830110Y-85489715D01*
X149831247Y-85494761D01*
X149831248Y-85494767D01*
X149845388Y-85557507D01*
X149879222Y-85707639D01*
X149963266Y-85914616D01*
X149965965Y-85919020D01*
X150059243Y-86071236D01*
X150079987Y-86105088D01*
X150226250Y-86273938D01*
X150398126Y-86416632D01*
X150468595Y-86457811D01*
X150471445Y-86459476D01*
X150520169Y-86511114D01*
X150533240Y-86580897D01*
X150506509Y-86646669D01*
X150466055Y-86680027D01*
X150453607Y-86686507D01*
X150449474Y-86689610D01*
X150449471Y-86689612D01*
X150279100Y-86817530D01*
X150274965Y-86820635D01*
X150120629Y-86982138D01*
X149994743Y-87166680D01*
X149900688Y-87369305D01*
X149840989Y-87584570D01*
X149817251Y-87806695D01*
X144816735Y-87806695D01*
X144803543Y-87655913D01*
X144744284Y-87434757D01*
X144726190Y-87395954D01*
X144649849Y-87232238D01*
X144649846Y-87232233D01*
X144647523Y-87227251D01*
X144574098Y-87122389D01*
X144519357Y-87044211D01*
X144519355Y-87044208D01*
X144516198Y-87039700D01*
X144354300Y-86877802D01*
X144349792Y-86874645D01*
X144349789Y-86874643D01*
X144268223Y-86817530D01*
X144166749Y-86746477D01*
X144161767Y-86744154D01*
X144161762Y-86744151D01*
X143964225Y-86652039D01*
X143964224Y-86652039D01*
X143959243Y-86649716D01*
X143953935Y-86648294D01*
X143953933Y-86648293D01*
X143743402Y-86591881D01*
X143743400Y-86591881D01*
X143738087Y-86590457D01*
X143510000Y-86570502D01*
X143281913Y-86590457D01*
X143276600Y-86591881D01*
X143276598Y-86591881D01*
X143066067Y-86648293D01*
X143066065Y-86648294D01*
X143060757Y-86649716D01*
X143055776Y-86652039D01*
X143055775Y-86652039D01*
X142858238Y-86744151D01*
X142858233Y-86744154D01*
X142853251Y-86746477D01*
X142751777Y-86817530D01*
X142670211Y-86874643D01*
X142670208Y-86874645D01*
X142665700Y-86877802D01*
X142503802Y-87039700D01*
X142500645Y-87044208D01*
X142500643Y-87044211D01*
X142445902Y-87122389D01*
X142372477Y-87227251D01*
X142370154Y-87232233D01*
X142370151Y-87232238D01*
X142293810Y-87395954D01*
X142275716Y-87434757D01*
X142216457Y-87655913D01*
X142196502Y-87884000D01*
X137203498Y-87884000D01*
X137183543Y-87655913D01*
X137124284Y-87434757D01*
X137106190Y-87395954D01*
X137029849Y-87232238D01*
X137029846Y-87232233D01*
X137027523Y-87227251D01*
X136954098Y-87122389D01*
X136899357Y-87044211D01*
X136899355Y-87044208D01*
X136896198Y-87039700D01*
X136734300Y-86877802D01*
X136729792Y-86874645D01*
X136729789Y-86874643D01*
X136648223Y-86817530D01*
X136546749Y-86746477D01*
X136541767Y-86744154D01*
X136541762Y-86744151D01*
X136344225Y-86652039D01*
X136344224Y-86652039D01*
X136339243Y-86649716D01*
X136333935Y-86648294D01*
X136333933Y-86648293D01*
X136123402Y-86591881D01*
X136123400Y-86591881D01*
X136118087Y-86590457D01*
X135890000Y-86570502D01*
X135661913Y-86590457D01*
X135656600Y-86591881D01*
X135656598Y-86591881D01*
X135446067Y-86648293D01*
X135446065Y-86648294D01*
X135440757Y-86649716D01*
X135435776Y-86652039D01*
X135435775Y-86652039D01*
X135238238Y-86744151D01*
X135238233Y-86744154D01*
X135233251Y-86746477D01*
X135131777Y-86817530D01*
X135050211Y-86874643D01*
X135050208Y-86874645D01*
X135045700Y-86877802D01*
X134883802Y-87039700D01*
X134880644Y-87044210D01*
X134880639Y-87044216D01*
X134791837Y-87171039D01*
X134736380Y-87215368D01*
X134665761Y-87222677D01*
X134602400Y-87190647D01*
X134582832Y-87167209D01*
X134482822Y-87012617D01*
X134482820Y-87012614D01*
X134480014Y-87008277D01*
X134329670Y-86843051D01*
X134325619Y-86839852D01*
X134325615Y-86839848D01*
X134158414Y-86707800D01*
X134158410Y-86707798D01*
X134154359Y-86704598D01*
X134113053Y-86681796D01*
X134063084Y-86631364D01*
X134048312Y-86561921D01*
X134073428Y-86495516D01*
X134100780Y-86468909D01*
X134144603Y-86437650D01*
X134279860Y-86341173D01*
X134438096Y-86183489D01*
X134497594Y-86100689D01*
X134565435Y-86006277D01*
X134568453Y-86002077D01*
X134584126Y-85970366D01*
X134607999Y-85922062D01*
X135168493Y-85922062D01*
X135177789Y-85934077D01*
X135228994Y-85969931D01*
X135238489Y-85975414D01*
X135435947Y-86067490D01*
X135446239Y-86071236D01*
X135656688Y-86127625D01*
X135667481Y-86129528D01*
X135884525Y-86148517D01*
X135895475Y-86148517D01*
X136112519Y-86129528D01*
X136123312Y-86127625D01*
X136333761Y-86071236D01*
X136344053Y-86067490D01*
X136541511Y-85975414D01*
X136551006Y-85969931D01*
X136603048Y-85933491D01*
X136611424Y-85923012D01*
X136604356Y-85909566D01*
X135902812Y-85208022D01*
X135888868Y-85200408D01*
X135887035Y-85200539D01*
X135880420Y-85204790D01*
X135174923Y-85910287D01*
X135168493Y-85922062D01*
X134607999Y-85922062D01*
X134665136Y-85806453D01*
X134665137Y-85806451D01*
X134667430Y-85801811D01*
X134714718Y-85646169D01*
X134753659Y-85586805D01*
X134776651Y-85571267D01*
X134816435Y-85550355D01*
X135517978Y-84848812D01*
X135524356Y-84837132D01*
X136254408Y-84837132D01*
X136254539Y-84838965D01*
X136258790Y-84845580D01*
X136964287Y-85551077D01*
X136976062Y-85557507D01*
X136988077Y-85548211D01*
X137023931Y-85497006D01*
X137029414Y-85487511D01*
X137121490Y-85290053D01*
X137125236Y-85279761D01*
X137181625Y-85069312D01*
X137183528Y-85058519D01*
X137202517Y-84841475D01*
X137202517Y-84836000D01*
X142196502Y-84836000D01*
X142216457Y-85064087D01*
X142217881Y-85069400D01*
X142217881Y-85069402D01*
X142272128Y-85271851D01*
X142275716Y-85285243D01*
X142278039Y-85290224D01*
X142278039Y-85290225D01*
X142370151Y-85487762D01*
X142370154Y-85487767D01*
X142372477Y-85492749D01*
X142503802Y-85680300D01*
X142665700Y-85842198D01*
X142670208Y-85845355D01*
X142670211Y-85845357D01*
X142748389Y-85900098D01*
X142853251Y-85973523D01*
X142858233Y-85975846D01*
X142858238Y-85975849D01*
X143054765Y-86067490D01*
X143060757Y-86070284D01*
X143066065Y-86071706D01*
X143066067Y-86071707D01*
X143276598Y-86128119D01*
X143276600Y-86128119D01*
X143281913Y-86129543D01*
X143510000Y-86149498D01*
X143738087Y-86129543D01*
X143743400Y-86128119D01*
X143743402Y-86128119D01*
X143953933Y-86071707D01*
X143953935Y-86071706D01*
X143959243Y-86070284D01*
X143965235Y-86067490D01*
X144161762Y-85975849D01*
X144161767Y-85975846D01*
X144166749Y-85973523D01*
X144271611Y-85900098D01*
X144349789Y-85845357D01*
X144349792Y-85845355D01*
X144354300Y-85842198D01*
X144516198Y-85680300D01*
X144647523Y-85492749D01*
X144649846Y-85487767D01*
X144649849Y-85487762D01*
X144741961Y-85290225D01*
X144741961Y-85290224D01*
X144744284Y-85285243D01*
X144747873Y-85271851D01*
X144802119Y-85069402D01*
X144802119Y-85069400D01*
X144803543Y-85064087D01*
X144823498Y-84836000D01*
X144803543Y-84607913D01*
X144766683Y-84470349D01*
X144745707Y-84392067D01*
X144745706Y-84392065D01*
X144744284Y-84386757D01*
X144707035Y-84306875D01*
X144649849Y-84184238D01*
X144649846Y-84184233D01*
X144647523Y-84179251D01*
X144516198Y-83991700D01*
X144354300Y-83829802D01*
X144349792Y-83826645D01*
X144349789Y-83826643D01*
X144223920Y-83738509D01*
X144166749Y-83698477D01*
X144161767Y-83696154D01*
X144161762Y-83696151D01*
X143964225Y-83604039D01*
X143964224Y-83604039D01*
X143959243Y-83601716D01*
X143953935Y-83600294D01*
X143953933Y-83600293D01*
X143743402Y-83543881D01*
X143743400Y-83543881D01*
X143738087Y-83542457D01*
X143510000Y-83522502D01*
X143281913Y-83542457D01*
X143276600Y-83543881D01*
X143276598Y-83543881D01*
X143066067Y-83600293D01*
X143066065Y-83600294D01*
X143060757Y-83601716D01*
X143055776Y-83604039D01*
X143055775Y-83604039D01*
X142858238Y-83696151D01*
X142858233Y-83696154D01*
X142853251Y-83698477D01*
X142796080Y-83738509D01*
X142670211Y-83826643D01*
X142670208Y-83826645D01*
X142665700Y-83829802D01*
X142503802Y-83991700D01*
X142372477Y-84179251D01*
X142370154Y-84184233D01*
X142370151Y-84184238D01*
X142312965Y-84306875D01*
X142275716Y-84386757D01*
X142274294Y-84392065D01*
X142274293Y-84392067D01*
X142253317Y-84470349D01*
X142216457Y-84607913D01*
X142196502Y-84836000D01*
X137202517Y-84836000D01*
X137202517Y-84830525D01*
X137183528Y-84613481D01*
X137181625Y-84602688D01*
X137125236Y-84392239D01*
X137121490Y-84381947D01*
X137029414Y-84184489D01*
X137023931Y-84174994D01*
X136987491Y-84122952D01*
X136977012Y-84114576D01*
X136963566Y-84121644D01*
X136262022Y-84823188D01*
X136254408Y-84837132D01*
X135524356Y-84837132D01*
X135525592Y-84834868D01*
X135525461Y-84833035D01*
X135521210Y-84826420D01*
X134815713Y-84120923D01*
X134803938Y-84114493D01*
X134791923Y-84123789D01*
X134756069Y-84174994D01*
X134750586Y-84184489D01*
X134658508Y-84381951D01*
X134656364Y-84387842D01*
X134614268Y-84445013D01*
X134547946Y-84470349D01*
X134478455Y-84455807D01*
X134444770Y-84429544D01*
X134333151Y-84306875D01*
X134333142Y-84306866D01*
X134329670Y-84303051D01*
X134325619Y-84299852D01*
X134325615Y-84299848D01*
X134158414Y-84167800D01*
X134158410Y-84167798D01*
X134154359Y-84164598D01*
X134113053Y-84141796D01*
X134063084Y-84091364D01*
X134048312Y-84021921D01*
X134073428Y-83955516D01*
X134100780Y-83928909D01*
X134144603Y-83897650D01*
X134279860Y-83801173D01*
X134332228Y-83748988D01*
X135168576Y-83748988D01*
X135175644Y-83762434D01*
X135877188Y-84463978D01*
X135891132Y-84471592D01*
X135892965Y-84471461D01*
X135899580Y-84467210D01*
X136605077Y-83761713D01*
X136611507Y-83749938D01*
X136602211Y-83737923D01*
X136551006Y-83702069D01*
X136541511Y-83696586D01*
X136344053Y-83604510D01*
X136333761Y-83600764D01*
X136123312Y-83544375D01*
X136112519Y-83542472D01*
X135895475Y-83523483D01*
X135884525Y-83523483D01*
X135667481Y-83542472D01*
X135656688Y-83544375D01*
X135446239Y-83600764D01*
X135435947Y-83604510D01*
X135238489Y-83696586D01*
X135228994Y-83702069D01*
X135176952Y-83738509D01*
X135168576Y-83748988D01*
X134332228Y-83748988D01*
X134438096Y-83643489D01*
X134497594Y-83560689D01*
X134565435Y-83466277D01*
X134568453Y-83462077D01*
X134667430Y-83261811D01*
X134722200Y-83081543D01*
X134730865Y-83053023D01*
X134730865Y-83053021D01*
X134732370Y-83048069D01*
X134761529Y-82826590D01*
X134761898Y-82811473D01*
X134783556Y-82743861D01*
X134838330Y-82698691D01*
X134908829Y-82690305D01*
X134976955Y-82725453D01*
X135045700Y-82794198D01*
X135050208Y-82797355D01*
X135050211Y-82797357D01*
X135087176Y-82823240D01*
X135233251Y-82925523D01*
X135238233Y-82927846D01*
X135238238Y-82927849D01*
X135435775Y-83019961D01*
X135440757Y-83022284D01*
X135446065Y-83023706D01*
X135446067Y-83023707D01*
X135656598Y-83080119D01*
X135656600Y-83080119D01*
X135661913Y-83081543D01*
X135890000Y-83101498D01*
X136118087Y-83081543D01*
X136123400Y-83080119D01*
X136123402Y-83080119D01*
X136333933Y-83023707D01*
X136333935Y-83023706D01*
X136339243Y-83022284D01*
X136344225Y-83019961D01*
X136541762Y-82927849D01*
X136541767Y-82927846D01*
X136546749Y-82925523D01*
X136692824Y-82823240D01*
X136729789Y-82797357D01*
X136729792Y-82797355D01*
X136734300Y-82794198D01*
X136896198Y-82632300D01*
X137027523Y-82444749D01*
X137029846Y-82439767D01*
X137029849Y-82439762D01*
X137121961Y-82242225D01*
X137121961Y-82242224D01*
X137124284Y-82237243D01*
X137163370Y-82091375D01*
X137182119Y-82021402D01*
X137182119Y-82021400D01*
X137183543Y-82016087D01*
X137203498Y-81788000D01*
X142196502Y-81788000D01*
X142216457Y-82016087D01*
X142217881Y-82021400D01*
X142217881Y-82021402D01*
X142236631Y-82091375D01*
X142275716Y-82237243D01*
X142278039Y-82242224D01*
X142278039Y-82242225D01*
X142370151Y-82439762D01*
X142370154Y-82439767D01*
X142372477Y-82444749D01*
X142503802Y-82632300D01*
X142665700Y-82794198D01*
X142670208Y-82797355D01*
X142670211Y-82797357D01*
X142707176Y-82823240D01*
X142853251Y-82925523D01*
X142858233Y-82927846D01*
X142858238Y-82927849D01*
X143055775Y-83019961D01*
X143060757Y-83022284D01*
X143066065Y-83023706D01*
X143066067Y-83023707D01*
X143276598Y-83080119D01*
X143276600Y-83080119D01*
X143281913Y-83081543D01*
X143510000Y-83101498D01*
X143738087Y-83081543D01*
X143743400Y-83080119D01*
X143743402Y-83080119D01*
X143953933Y-83023707D01*
X143953935Y-83023706D01*
X143959243Y-83022284D01*
X143964225Y-83019961D01*
X144161762Y-82927849D01*
X144161767Y-82927846D01*
X144166749Y-82925523D01*
X144312824Y-82823240D01*
X144349789Y-82797357D01*
X144349792Y-82797355D01*
X144354300Y-82794198D01*
X144516198Y-82632300D01*
X144647523Y-82444749D01*
X144649846Y-82439767D01*
X144649849Y-82439762D01*
X144741961Y-82242225D01*
X144741961Y-82242224D01*
X144744284Y-82237243D01*
X144783370Y-82091375D01*
X144802119Y-82021402D01*
X144802119Y-82021400D01*
X144803543Y-82016087D01*
X144823498Y-81788000D01*
X144803543Y-81559913D01*
X144801252Y-81551364D01*
X144745707Y-81344067D01*
X144745706Y-81344065D01*
X144744284Y-81338757D01*
X144709504Y-81264171D01*
X144649849Y-81136238D01*
X144649846Y-81136233D01*
X144647523Y-81131251D01*
X144516198Y-80943700D01*
X144354300Y-80781802D01*
X144349792Y-80778645D01*
X144349789Y-80778643D01*
X144261549Y-80716857D01*
X144166749Y-80650477D01*
X144161767Y-80648154D01*
X144161762Y-80648151D01*
X143964225Y-80556039D01*
X143964224Y-80556039D01*
X143959243Y-80553716D01*
X143953935Y-80552294D01*
X143953933Y-80552293D01*
X143743402Y-80495881D01*
X143743400Y-80495881D01*
X143738087Y-80494457D01*
X143510000Y-80474502D01*
X143281913Y-80494457D01*
X143276600Y-80495881D01*
X143276598Y-80495881D01*
X143066067Y-80552293D01*
X143066065Y-80552294D01*
X143060757Y-80553716D01*
X143055776Y-80556039D01*
X143055775Y-80556039D01*
X142858238Y-80648151D01*
X142858233Y-80648154D01*
X142853251Y-80650477D01*
X142758451Y-80716857D01*
X142670211Y-80778643D01*
X142670208Y-80778645D01*
X142665700Y-80781802D01*
X142503802Y-80943700D01*
X142372477Y-81131251D01*
X142370154Y-81136233D01*
X142370151Y-81136238D01*
X142310496Y-81264171D01*
X142275716Y-81338757D01*
X142274294Y-81344065D01*
X142274293Y-81344067D01*
X142218748Y-81551364D01*
X142216457Y-81559913D01*
X142196502Y-81788000D01*
X137203498Y-81788000D01*
X137183543Y-81559913D01*
X137181252Y-81551364D01*
X137125707Y-81344067D01*
X137125706Y-81344065D01*
X137124284Y-81338757D01*
X137089504Y-81264171D01*
X137029849Y-81136238D01*
X137029846Y-81136233D01*
X137027523Y-81131251D01*
X136896198Y-80943700D01*
X136734300Y-80781802D01*
X136729792Y-80778645D01*
X136729789Y-80778643D01*
X136641549Y-80716857D01*
X136546749Y-80650477D01*
X136541767Y-80648154D01*
X136541762Y-80648151D01*
X136344225Y-80556039D01*
X136344224Y-80556039D01*
X136339243Y-80553716D01*
X136333935Y-80552294D01*
X136333933Y-80552293D01*
X136123402Y-80495881D01*
X136123400Y-80495881D01*
X136118087Y-80494457D01*
X135890000Y-80474502D01*
X135661913Y-80494457D01*
X135656600Y-80495881D01*
X135656598Y-80495881D01*
X135446067Y-80552293D01*
X135446065Y-80552294D01*
X135440757Y-80553716D01*
X135435776Y-80556039D01*
X135435775Y-80556039D01*
X135238238Y-80648151D01*
X135238233Y-80648154D01*
X135233251Y-80650477D01*
X135138451Y-80716857D01*
X135050211Y-80778643D01*
X135050208Y-80778645D01*
X135045700Y-80781802D01*
X134883802Y-80943700D01*
X134752477Y-81131251D01*
X134750154Y-81136233D01*
X134750151Y-81136238D01*
X134690496Y-81264171D01*
X134655716Y-81338757D01*
X134654294Y-81344065D01*
X134654293Y-81344067D01*
X134598748Y-81551364D01*
X134596457Y-81559913D01*
X134595978Y-81565389D01*
X134595977Y-81565394D01*
X134581919Y-81726085D01*
X134556056Y-81792204D01*
X134498552Y-81833843D01*
X134427665Y-81837784D01*
X134363205Y-81799904D01*
X134333152Y-81766876D01*
X134333142Y-81766867D01*
X134329670Y-81763051D01*
X134325619Y-81759852D01*
X134325615Y-81759848D01*
X134158414Y-81627800D01*
X134158410Y-81627798D01*
X134154359Y-81624598D01*
X134113053Y-81601796D01*
X134063084Y-81551364D01*
X134048312Y-81481921D01*
X134073428Y-81415516D01*
X134100780Y-81388909D01*
X134163646Y-81344067D01*
X134279860Y-81261173D01*
X134438096Y-81103489D01*
X134497594Y-81020689D01*
X134565435Y-80926277D01*
X134568453Y-80922077D01*
X134667430Y-80721811D01*
X134732370Y-80508069D01*
X134761529Y-80286590D01*
X134763156Y-80220000D01*
X134744852Y-79997361D01*
X134690431Y-79780702D01*
X134601354Y-79575840D01*
X134528976Y-79463961D01*
X134482822Y-79392617D01*
X134482820Y-79392614D01*
X134480014Y-79388277D01*
X134476540Y-79384459D01*
X134476533Y-79384450D01*
X134332435Y-79226088D01*
X134301383Y-79162242D01*
X134309779Y-79091744D01*
X134354956Y-79036976D01*
X134381400Y-79023307D01*
X134488052Y-78983325D01*
X134503649Y-78974786D01*
X134602614Y-78900616D01*
X134669121Y-78875768D01*
X134738503Y-78890821D01*
X134781392Y-78929172D01*
X134881024Y-79071462D01*
X134888084Y-79079875D01*
X135042125Y-79233916D01*
X135050533Y-79240972D01*
X135228993Y-79365931D01*
X135238489Y-79371414D01*
X135435947Y-79463490D01*
X135446239Y-79467236D01*
X135618503Y-79513394D01*
X135632599Y-79513058D01*
X135636000Y-79505116D01*
X135636000Y-79499967D01*
X136144000Y-79499967D01*
X136147973Y-79513498D01*
X136156522Y-79514727D01*
X136333761Y-79467236D01*
X136344053Y-79463490D01*
X136541511Y-79371414D01*
X136551007Y-79365931D01*
X136729467Y-79240972D01*
X136737875Y-79233916D01*
X136891916Y-79079875D01*
X136898972Y-79071467D01*
X137023931Y-78893007D01*
X137029414Y-78883511D01*
X137121490Y-78686053D01*
X137125236Y-78675761D01*
X137171394Y-78503497D01*
X137171058Y-78489401D01*
X137163116Y-78486000D01*
X136162115Y-78486000D01*
X136146876Y-78490475D01*
X136145671Y-78491865D01*
X136144000Y-78499548D01*
X136144000Y-79499967D01*
X135636000Y-79499967D01*
X135636000Y-78232000D01*
X142196502Y-78232000D01*
X142216457Y-78460087D01*
X142217881Y-78465400D01*
X142217881Y-78465402D01*
X142264750Y-78640316D01*
X142275716Y-78681243D01*
X142278039Y-78686224D01*
X142278039Y-78686225D01*
X142370151Y-78883762D01*
X142370154Y-78883767D01*
X142372477Y-78888749D01*
X142438699Y-78983324D01*
X142497139Y-79066784D01*
X142503802Y-79076300D01*
X142665700Y-79238198D01*
X142670208Y-79241355D01*
X142670211Y-79241357D01*
X142748389Y-79296098D01*
X142853251Y-79369523D01*
X142858233Y-79371846D01*
X142858238Y-79371849D01*
X143054765Y-79463490D01*
X143060757Y-79466284D01*
X143066065Y-79467706D01*
X143066067Y-79467707D01*
X143276598Y-79524119D01*
X143276600Y-79524119D01*
X143281913Y-79525543D01*
X143510000Y-79545498D01*
X143738087Y-79525543D01*
X143743400Y-79524119D01*
X143743402Y-79524119D01*
X143953933Y-79467707D01*
X143953935Y-79467706D01*
X143959243Y-79466284D01*
X143965235Y-79463490D01*
X144161762Y-79371849D01*
X144161767Y-79371846D01*
X144166749Y-79369523D01*
X144271611Y-79296098D01*
X144349789Y-79241357D01*
X144349792Y-79241355D01*
X144354300Y-79238198D01*
X144516198Y-79076300D01*
X144522862Y-79066784D01*
X144581301Y-78983324D01*
X144647523Y-78888749D01*
X144649846Y-78883767D01*
X144649849Y-78883762D01*
X144741961Y-78686225D01*
X144741961Y-78686224D01*
X144744284Y-78681243D01*
X144755251Y-78640316D01*
X144802119Y-78465402D01*
X144802119Y-78465400D01*
X144803543Y-78460087D01*
X144823498Y-78232000D01*
X144803543Y-78003913D01*
X144744284Y-77782757D01*
X144649966Y-77580489D01*
X144649849Y-77580238D01*
X144649846Y-77580233D01*
X144647523Y-77575251D01*
X144516198Y-77387700D01*
X144354300Y-77225802D01*
X144349792Y-77222645D01*
X144349789Y-77222643D01*
X144271611Y-77167902D01*
X144166749Y-77094477D01*
X144161767Y-77092154D01*
X144161762Y-77092151D01*
X143964225Y-77000039D01*
X143964224Y-77000039D01*
X143959243Y-76997716D01*
X143953935Y-76996294D01*
X143953933Y-76996293D01*
X143743402Y-76939881D01*
X143743400Y-76939881D01*
X143738087Y-76938457D01*
X143510000Y-76918502D01*
X143281913Y-76938457D01*
X143276600Y-76939881D01*
X143276598Y-76939881D01*
X143066067Y-76996293D01*
X143066065Y-76996294D01*
X143060757Y-76997716D01*
X143055776Y-77000039D01*
X143055775Y-77000039D01*
X142858238Y-77092151D01*
X142858233Y-77092154D01*
X142853251Y-77094477D01*
X142748389Y-77167902D01*
X142670211Y-77222643D01*
X142670208Y-77222645D01*
X142665700Y-77225802D01*
X142503802Y-77387700D01*
X142372477Y-77575251D01*
X142370154Y-77580233D01*
X142370151Y-77580238D01*
X142370034Y-77580489D01*
X142275716Y-77782757D01*
X142216457Y-78003913D01*
X142196502Y-78232000D01*
X135636000Y-78232000D01*
X135636000Y-77959885D01*
X136144000Y-77959885D01*
X136148475Y-77975124D01*
X136149865Y-77976329D01*
X136157548Y-77978000D01*
X137157967Y-77978000D01*
X137171498Y-77974027D01*
X137172727Y-77965478D01*
X137125236Y-77788239D01*
X137121490Y-77777947D01*
X137029414Y-77580489D01*
X137023931Y-77570993D01*
X136898972Y-77392533D01*
X136891916Y-77384125D01*
X136737875Y-77230084D01*
X136729467Y-77223028D01*
X136551007Y-77098069D01*
X136541511Y-77092586D01*
X136344053Y-77000510D01*
X136333761Y-76996764D01*
X136161497Y-76950606D01*
X136147401Y-76950942D01*
X136144000Y-76958884D01*
X136144000Y-77959885D01*
X135636000Y-77959885D01*
X135636000Y-76964033D01*
X135632027Y-76950502D01*
X135623478Y-76949273D01*
X135446239Y-76996764D01*
X135435947Y-77000510D01*
X135238489Y-77092586D01*
X135228993Y-77098069D01*
X135050533Y-77223028D01*
X135042125Y-77230084D01*
X134973094Y-77299115D01*
X134910782Y-77333141D01*
X134839967Y-77328076D01*
X134783131Y-77285529D01*
X134758320Y-77219009D01*
X134757999Y-77210020D01*
X134757999Y-76785331D01*
X134757629Y-76778510D01*
X134752105Y-76727648D01*
X134748479Y-76712396D01*
X134703324Y-76591946D01*
X134694786Y-76576351D01*
X134618285Y-76474276D01*
X134605724Y-76461715D01*
X134503649Y-76385214D01*
X134488054Y-76376676D01*
X134377813Y-76335348D01*
X134321049Y-76292706D01*
X134296349Y-76226145D01*
X134311557Y-76156796D01*
X134333104Y-76128115D01*
X134434430Y-76027144D01*
X134434440Y-76027132D01*
X134438096Y-76023489D01*
X134494433Y-75945088D01*
X134558474Y-75855965D01*
X134614469Y-75812317D01*
X134685172Y-75805871D01*
X134748137Y-75838674D01*
X134764010Y-75857220D01*
X134877495Y-76019292D01*
X134883802Y-76028300D01*
X135045700Y-76190198D01*
X135050208Y-76193355D01*
X135050211Y-76193357D01*
X135096482Y-76225756D01*
X135233251Y-76321523D01*
X135238233Y-76323846D01*
X135238238Y-76323849D01*
X135421220Y-76409174D01*
X135440757Y-76418284D01*
X135446065Y-76419706D01*
X135446067Y-76419707D01*
X135656598Y-76476119D01*
X135656600Y-76476119D01*
X135661913Y-76477543D01*
X135890000Y-76497498D01*
X136118087Y-76477543D01*
X136123400Y-76476119D01*
X136123402Y-76476119D01*
X136333933Y-76419707D01*
X136333935Y-76419706D01*
X136339243Y-76418284D01*
X136358780Y-76409174D01*
X136541762Y-76323849D01*
X136541767Y-76323846D01*
X136546749Y-76321523D01*
X136683518Y-76225756D01*
X136729789Y-76193357D01*
X136729792Y-76193355D01*
X136734300Y-76190198D01*
X136896198Y-76028300D01*
X136902506Y-76019292D01*
X136957544Y-75940689D01*
X137027523Y-75840749D01*
X137029846Y-75835767D01*
X137029849Y-75835762D01*
X137121961Y-75638225D01*
X137121961Y-75638224D01*
X137124284Y-75633243D01*
X137183543Y-75412087D01*
X137203498Y-75184000D01*
X142196502Y-75184000D01*
X142216457Y-75412087D01*
X142275716Y-75633243D01*
X142278039Y-75638224D01*
X142278039Y-75638225D01*
X142370151Y-75835762D01*
X142370154Y-75835767D01*
X142372477Y-75840749D01*
X142442456Y-75940689D01*
X142497495Y-76019292D01*
X142503802Y-76028300D01*
X142665700Y-76190198D01*
X142670208Y-76193355D01*
X142670211Y-76193357D01*
X142716482Y-76225756D01*
X142853251Y-76321523D01*
X142858233Y-76323846D01*
X142858238Y-76323849D01*
X143041220Y-76409174D01*
X143060757Y-76418284D01*
X143066065Y-76419706D01*
X143066067Y-76419707D01*
X143276598Y-76476119D01*
X143276600Y-76476119D01*
X143281913Y-76477543D01*
X143510000Y-76497498D01*
X143738087Y-76477543D01*
X143743400Y-76476119D01*
X143743402Y-76476119D01*
X143953933Y-76419707D01*
X143953935Y-76419706D01*
X143959243Y-76418284D01*
X143978780Y-76409174D01*
X144161762Y-76323849D01*
X144161767Y-76323846D01*
X144166749Y-76321523D01*
X144303518Y-76225756D01*
X144349789Y-76193357D01*
X144349792Y-76193355D01*
X144354300Y-76190198D01*
X144516198Y-76028300D01*
X144522506Y-76019292D01*
X144577544Y-75940689D01*
X144647523Y-75840749D01*
X144649846Y-75835767D01*
X144649849Y-75835762D01*
X144741961Y-75638225D01*
X144741961Y-75638224D01*
X144744284Y-75633243D01*
X144803543Y-75412087D01*
X144823498Y-75184000D01*
X144803543Y-74955913D01*
X144744284Y-74734757D01*
X144726190Y-74695954D01*
X144649849Y-74532238D01*
X144649846Y-74532233D01*
X144647523Y-74527251D01*
X144574098Y-74422389D01*
X144519357Y-74344211D01*
X144519355Y-74344208D01*
X144516198Y-74339700D01*
X144354300Y-74177802D01*
X144349792Y-74174645D01*
X144349789Y-74174643D01*
X144268223Y-74117530D01*
X144166749Y-74046477D01*
X144161767Y-74044154D01*
X144161762Y-74044151D01*
X143964225Y-73952039D01*
X143964224Y-73952039D01*
X143959243Y-73949716D01*
X143953935Y-73948294D01*
X143953933Y-73948293D01*
X143743402Y-73891881D01*
X143743400Y-73891881D01*
X143738087Y-73890457D01*
X143510000Y-73870502D01*
X143281913Y-73890457D01*
X143276600Y-73891881D01*
X143276598Y-73891881D01*
X143066067Y-73948293D01*
X143066065Y-73948294D01*
X143060757Y-73949716D01*
X143055776Y-73952039D01*
X143055775Y-73952039D01*
X142858238Y-74044151D01*
X142858233Y-74044154D01*
X142853251Y-74046477D01*
X142751777Y-74117530D01*
X142670211Y-74174643D01*
X142670208Y-74174645D01*
X142665700Y-74177802D01*
X142503802Y-74339700D01*
X142500645Y-74344208D01*
X142500643Y-74344211D01*
X142445902Y-74422389D01*
X142372477Y-74527251D01*
X142370154Y-74532233D01*
X142370151Y-74532238D01*
X142293810Y-74695954D01*
X142275716Y-74734757D01*
X142216457Y-74955913D01*
X142196502Y-75184000D01*
X137203498Y-75184000D01*
X137183543Y-74955913D01*
X137124284Y-74734757D01*
X137106190Y-74695954D01*
X137029849Y-74532238D01*
X137029846Y-74532233D01*
X137027523Y-74527251D01*
X136954098Y-74422389D01*
X136899357Y-74344211D01*
X136899355Y-74344208D01*
X136896198Y-74339700D01*
X136734300Y-74177802D01*
X136729792Y-74174645D01*
X136729789Y-74174643D01*
X136648223Y-74117530D01*
X136546749Y-74046477D01*
X136541767Y-74044154D01*
X136541762Y-74044151D01*
X136344225Y-73952039D01*
X136344224Y-73952039D01*
X136339243Y-73949716D01*
X136333935Y-73948294D01*
X136333933Y-73948293D01*
X136123402Y-73891881D01*
X136123400Y-73891881D01*
X136118087Y-73890457D01*
X135890000Y-73870502D01*
X135661913Y-73890457D01*
X135656600Y-73891881D01*
X135656598Y-73891881D01*
X135446067Y-73948293D01*
X135446065Y-73948294D01*
X135440757Y-73949716D01*
X135435776Y-73952039D01*
X135435775Y-73952039D01*
X135238238Y-74044151D01*
X135238233Y-74044154D01*
X135233251Y-74046477D01*
X135131777Y-74117530D01*
X135050211Y-74174643D01*
X135050208Y-74174645D01*
X135045700Y-74177802D01*
X134883802Y-74339700D01*
X134880644Y-74344210D01*
X134880639Y-74344216D01*
X134791837Y-74471039D01*
X134736380Y-74515368D01*
X134665761Y-74522677D01*
X134602400Y-74490647D01*
X134582832Y-74467209D01*
X134482822Y-74312617D01*
X134482820Y-74312614D01*
X134480014Y-74308277D01*
X134329670Y-74143051D01*
X134325619Y-74139852D01*
X134325615Y-74139848D01*
X134158414Y-74007800D01*
X134158410Y-74007798D01*
X134154359Y-74004598D01*
X134113053Y-73981796D01*
X134063084Y-73931364D01*
X134048312Y-73861921D01*
X134073428Y-73795516D01*
X134100780Y-73768909D01*
X134144603Y-73737650D01*
X134279860Y-73641173D01*
X134438096Y-73483489D01*
X134497594Y-73400689D01*
X134565435Y-73306277D01*
X134568453Y-73302077D01*
X134584126Y-73270366D01*
X134607999Y-73222062D01*
X135168493Y-73222062D01*
X135177789Y-73234077D01*
X135228994Y-73269931D01*
X135238489Y-73275414D01*
X135435947Y-73367490D01*
X135446239Y-73371236D01*
X135656688Y-73427625D01*
X135667481Y-73429528D01*
X135884525Y-73448517D01*
X135895475Y-73448517D01*
X136112519Y-73429528D01*
X136123312Y-73427625D01*
X136333761Y-73371236D01*
X136344053Y-73367490D01*
X136541511Y-73275414D01*
X136551006Y-73269931D01*
X136603048Y-73233491D01*
X136611424Y-73223012D01*
X136604356Y-73209566D01*
X135902812Y-72508022D01*
X135888868Y-72500408D01*
X135887035Y-72500539D01*
X135880420Y-72504790D01*
X135174923Y-73210287D01*
X135168493Y-73222062D01*
X134607999Y-73222062D01*
X134665136Y-73106453D01*
X134665137Y-73106451D01*
X134667430Y-73101811D01*
X134714718Y-72946169D01*
X134753659Y-72886805D01*
X134776651Y-72871267D01*
X134816435Y-72850355D01*
X135517978Y-72148812D01*
X135524356Y-72137132D01*
X136254408Y-72137132D01*
X136254539Y-72138965D01*
X136258790Y-72145580D01*
X136964287Y-72851077D01*
X136976062Y-72857507D01*
X136988077Y-72848211D01*
X137023931Y-72797006D01*
X137029414Y-72787511D01*
X137121490Y-72590053D01*
X137125236Y-72579761D01*
X137181625Y-72369312D01*
X137183528Y-72358519D01*
X137202517Y-72141475D01*
X137202517Y-72136000D01*
X142196502Y-72136000D01*
X142216457Y-72364087D01*
X142217881Y-72369400D01*
X142217881Y-72369402D01*
X142272128Y-72571851D01*
X142275716Y-72585243D01*
X142278039Y-72590224D01*
X142278039Y-72590225D01*
X142370151Y-72787762D01*
X142370154Y-72787767D01*
X142372477Y-72792749D01*
X142503802Y-72980300D01*
X142665700Y-73142198D01*
X142670208Y-73145355D01*
X142670211Y-73145357D01*
X142748389Y-73200098D01*
X142853251Y-73273523D01*
X142858233Y-73275846D01*
X142858238Y-73275849D01*
X143054765Y-73367490D01*
X143060757Y-73370284D01*
X143066065Y-73371706D01*
X143066067Y-73371707D01*
X143276598Y-73428119D01*
X143276600Y-73428119D01*
X143281913Y-73429543D01*
X143510000Y-73449498D01*
X143738087Y-73429543D01*
X143743400Y-73428119D01*
X143743402Y-73428119D01*
X143953933Y-73371707D01*
X143953935Y-73371706D01*
X143959243Y-73370284D01*
X143965235Y-73367490D01*
X144161762Y-73275849D01*
X144161767Y-73275846D01*
X144166749Y-73273523D01*
X144271611Y-73200098D01*
X144349789Y-73145357D01*
X144349792Y-73145355D01*
X144354300Y-73142198D01*
X144516198Y-72980300D01*
X144647523Y-72792749D01*
X144649846Y-72787767D01*
X144649849Y-72787762D01*
X144741961Y-72590225D01*
X144741961Y-72590224D01*
X144744284Y-72585243D01*
X144747873Y-72571851D01*
X144802119Y-72369402D01*
X144802119Y-72369400D01*
X144803543Y-72364087D01*
X144823498Y-72136000D01*
X144803543Y-71907913D01*
X144766683Y-71770349D01*
X144745707Y-71692067D01*
X144745706Y-71692065D01*
X144744284Y-71686757D01*
X144707035Y-71606875D01*
X144649849Y-71484238D01*
X144649846Y-71484233D01*
X144647523Y-71479251D01*
X144516198Y-71291700D01*
X144354300Y-71129802D01*
X144349792Y-71126645D01*
X144349789Y-71126643D01*
X144223920Y-71038509D01*
X144166749Y-70998477D01*
X144161767Y-70996154D01*
X144161762Y-70996151D01*
X143964225Y-70904039D01*
X143964224Y-70904039D01*
X143959243Y-70901716D01*
X143953935Y-70900294D01*
X143953933Y-70900293D01*
X143743402Y-70843881D01*
X143743400Y-70843881D01*
X143738087Y-70842457D01*
X143510000Y-70822502D01*
X143281913Y-70842457D01*
X143276600Y-70843881D01*
X143276598Y-70843881D01*
X143066067Y-70900293D01*
X143066065Y-70900294D01*
X143060757Y-70901716D01*
X143055776Y-70904039D01*
X143055775Y-70904039D01*
X142858238Y-70996151D01*
X142858233Y-70996154D01*
X142853251Y-70998477D01*
X142796080Y-71038509D01*
X142670211Y-71126643D01*
X142670208Y-71126645D01*
X142665700Y-71129802D01*
X142503802Y-71291700D01*
X142372477Y-71479251D01*
X142370154Y-71484233D01*
X142370151Y-71484238D01*
X142312965Y-71606875D01*
X142275716Y-71686757D01*
X142274294Y-71692065D01*
X142274293Y-71692067D01*
X142253317Y-71770349D01*
X142216457Y-71907913D01*
X142196502Y-72136000D01*
X137202517Y-72136000D01*
X137202517Y-72130525D01*
X137183528Y-71913481D01*
X137181625Y-71902688D01*
X137125236Y-71692239D01*
X137121490Y-71681947D01*
X137029414Y-71484489D01*
X137023931Y-71474994D01*
X136987491Y-71422952D01*
X136977012Y-71414576D01*
X136963566Y-71421644D01*
X136262022Y-72123188D01*
X136254408Y-72137132D01*
X135524356Y-72137132D01*
X135525592Y-72134868D01*
X135525461Y-72133035D01*
X135521210Y-72126420D01*
X134815713Y-71420923D01*
X134803938Y-71414493D01*
X134791923Y-71423789D01*
X134756069Y-71474994D01*
X134750586Y-71484489D01*
X134658508Y-71681951D01*
X134656364Y-71687842D01*
X134614268Y-71745013D01*
X134547946Y-71770349D01*
X134478455Y-71755807D01*
X134444770Y-71729544D01*
X134333151Y-71606875D01*
X134333142Y-71606866D01*
X134329670Y-71603051D01*
X134325619Y-71599852D01*
X134325615Y-71599848D01*
X134158414Y-71467800D01*
X134158410Y-71467798D01*
X134154359Y-71464598D01*
X134113053Y-71441796D01*
X134063084Y-71391364D01*
X134048312Y-71321921D01*
X134073428Y-71255516D01*
X134100780Y-71228909D01*
X134144603Y-71197650D01*
X134279860Y-71101173D01*
X134332228Y-71048988D01*
X135168576Y-71048988D01*
X135175644Y-71062434D01*
X135877188Y-71763978D01*
X135891132Y-71771592D01*
X135892965Y-71771461D01*
X135899580Y-71767210D01*
X136605077Y-71061713D01*
X136611507Y-71049938D01*
X136602211Y-71037923D01*
X136551006Y-71002069D01*
X136541511Y-70996586D01*
X136344053Y-70904510D01*
X136333761Y-70900764D01*
X136123312Y-70844375D01*
X136112519Y-70842472D01*
X135895475Y-70823483D01*
X135884525Y-70823483D01*
X135667481Y-70842472D01*
X135656688Y-70844375D01*
X135446239Y-70900764D01*
X135435947Y-70904510D01*
X135238489Y-70996586D01*
X135228994Y-71002069D01*
X135176952Y-71038509D01*
X135168576Y-71048988D01*
X134332228Y-71048988D01*
X134438096Y-70943489D01*
X134497594Y-70860689D01*
X134565435Y-70766277D01*
X134568453Y-70762077D01*
X134667430Y-70561811D01*
X134722200Y-70381543D01*
X134730865Y-70353023D01*
X134730865Y-70353021D01*
X134732370Y-70348069D01*
X134761529Y-70126590D01*
X134761898Y-70111473D01*
X134783556Y-70043861D01*
X134838330Y-69998691D01*
X134908829Y-69990305D01*
X134976955Y-70025453D01*
X135045700Y-70094198D01*
X135050208Y-70097355D01*
X135050211Y-70097357D01*
X135087176Y-70123240D01*
X135233251Y-70225523D01*
X135238233Y-70227846D01*
X135238238Y-70227849D01*
X135435775Y-70319961D01*
X135440757Y-70322284D01*
X135446065Y-70323706D01*
X135446067Y-70323707D01*
X135656598Y-70380119D01*
X135656600Y-70380119D01*
X135661913Y-70381543D01*
X135890000Y-70401498D01*
X136118087Y-70381543D01*
X136123400Y-70380119D01*
X136123402Y-70380119D01*
X136333933Y-70323707D01*
X136333935Y-70323706D01*
X136339243Y-70322284D01*
X136344225Y-70319961D01*
X136541762Y-70227849D01*
X136541767Y-70227846D01*
X136546749Y-70225523D01*
X136692824Y-70123240D01*
X136729789Y-70097357D01*
X136729792Y-70097355D01*
X136734300Y-70094198D01*
X136896198Y-69932300D01*
X137027523Y-69744749D01*
X137029846Y-69739767D01*
X137029849Y-69739762D01*
X137121961Y-69542225D01*
X137121961Y-69542224D01*
X137124284Y-69537243D01*
X137163370Y-69391375D01*
X137182119Y-69321402D01*
X137182119Y-69321400D01*
X137183543Y-69316087D01*
X137203498Y-69088000D01*
X142196502Y-69088000D01*
X142216457Y-69316087D01*
X142217881Y-69321400D01*
X142217881Y-69321402D01*
X142236631Y-69391375D01*
X142275716Y-69537243D01*
X142278039Y-69542224D01*
X142278039Y-69542225D01*
X142370151Y-69739762D01*
X142370154Y-69739767D01*
X142372477Y-69744749D01*
X142503802Y-69932300D01*
X142665700Y-70094198D01*
X142670208Y-70097355D01*
X142670211Y-70097357D01*
X142707176Y-70123240D01*
X142853251Y-70225523D01*
X142858233Y-70227846D01*
X142858238Y-70227849D01*
X143055775Y-70319961D01*
X143060757Y-70322284D01*
X143066065Y-70323706D01*
X143066067Y-70323707D01*
X143276598Y-70380119D01*
X143276600Y-70380119D01*
X143281913Y-70381543D01*
X143510000Y-70401498D01*
X143738087Y-70381543D01*
X143743400Y-70380119D01*
X143743402Y-70380119D01*
X143953933Y-70323707D01*
X143953935Y-70323706D01*
X143959243Y-70322284D01*
X143964225Y-70319961D01*
X144161762Y-70227849D01*
X144161767Y-70227846D01*
X144166749Y-70225523D01*
X144312824Y-70123240D01*
X144349789Y-70097357D01*
X144349792Y-70097355D01*
X144354300Y-70094198D01*
X144516198Y-69932300D01*
X144647523Y-69744749D01*
X144649846Y-69739767D01*
X144649849Y-69739762D01*
X144741961Y-69542225D01*
X144741961Y-69542224D01*
X144744284Y-69537243D01*
X144783370Y-69391375D01*
X144802119Y-69321402D01*
X144802119Y-69321400D01*
X144803543Y-69316087D01*
X144823498Y-69088000D01*
X144803543Y-68859913D01*
X144801252Y-68851364D01*
X144745707Y-68644067D01*
X144745706Y-68644065D01*
X144744284Y-68638757D01*
X144709504Y-68564171D01*
X144649849Y-68436238D01*
X144649846Y-68436233D01*
X144647523Y-68431251D01*
X144516198Y-68243700D01*
X144354300Y-68081802D01*
X144349792Y-68078645D01*
X144349789Y-68078643D01*
X144261549Y-68016857D01*
X144166749Y-67950477D01*
X144161767Y-67948154D01*
X144161762Y-67948151D01*
X143964225Y-67856039D01*
X143964224Y-67856039D01*
X143959243Y-67853716D01*
X143953935Y-67852294D01*
X143953933Y-67852293D01*
X143743402Y-67795881D01*
X143743400Y-67795881D01*
X143738087Y-67794457D01*
X143510000Y-67774502D01*
X143281913Y-67794457D01*
X143276600Y-67795881D01*
X143276598Y-67795881D01*
X143066067Y-67852293D01*
X143066065Y-67852294D01*
X143060757Y-67853716D01*
X143055776Y-67856039D01*
X143055775Y-67856039D01*
X142858238Y-67948151D01*
X142858233Y-67948154D01*
X142853251Y-67950477D01*
X142758451Y-68016857D01*
X142670211Y-68078643D01*
X142670208Y-68078645D01*
X142665700Y-68081802D01*
X142503802Y-68243700D01*
X142372477Y-68431251D01*
X142370154Y-68436233D01*
X142370151Y-68436238D01*
X142310496Y-68564171D01*
X142275716Y-68638757D01*
X142274294Y-68644065D01*
X142274293Y-68644067D01*
X142218748Y-68851364D01*
X142216457Y-68859913D01*
X142196502Y-69088000D01*
X137203498Y-69088000D01*
X137183543Y-68859913D01*
X137181252Y-68851364D01*
X137125707Y-68644067D01*
X137125706Y-68644065D01*
X137124284Y-68638757D01*
X137089504Y-68564171D01*
X137029849Y-68436238D01*
X137029846Y-68436233D01*
X137027523Y-68431251D01*
X136896198Y-68243700D01*
X136734300Y-68081802D01*
X136729792Y-68078645D01*
X136729789Y-68078643D01*
X136641549Y-68016857D01*
X136546749Y-67950477D01*
X136541767Y-67948154D01*
X136541762Y-67948151D01*
X136344225Y-67856039D01*
X136344224Y-67856039D01*
X136339243Y-67853716D01*
X136333935Y-67852294D01*
X136333933Y-67852293D01*
X136123402Y-67795881D01*
X136123400Y-67795881D01*
X136118087Y-67794457D01*
X135890000Y-67774502D01*
X135661913Y-67794457D01*
X135656600Y-67795881D01*
X135656598Y-67795881D01*
X135446067Y-67852293D01*
X135446065Y-67852294D01*
X135440757Y-67853716D01*
X135435776Y-67856039D01*
X135435775Y-67856039D01*
X135238238Y-67948151D01*
X135238233Y-67948154D01*
X135233251Y-67950477D01*
X135138451Y-68016857D01*
X135050211Y-68078643D01*
X135050208Y-68078645D01*
X135045700Y-68081802D01*
X134883802Y-68243700D01*
X134752477Y-68431251D01*
X134750154Y-68436233D01*
X134750151Y-68436238D01*
X134690496Y-68564171D01*
X134655716Y-68638757D01*
X134654294Y-68644065D01*
X134654293Y-68644067D01*
X134598748Y-68851364D01*
X134596457Y-68859913D01*
X134595978Y-68865389D01*
X134595977Y-68865394D01*
X134581919Y-69026085D01*
X134556056Y-69092204D01*
X134498552Y-69133843D01*
X134427665Y-69137784D01*
X134363205Y-69099904D01*
X134333152Y-69066876D01*
X134333142Y-69066867D01*
X134329670Y-69063051D01*
X134325619Y-69059852D01*
X134325615Y-69059848D01*
X134158414Y-68927800D01*
X134158410Y-68927798D01*
X134154359Y-68924598D01*
X134113053Y-68901796D01*
X134063084Y-68851364D01*
X134048312Y-68781921D01*
X134073428Y-68715516D01*
X134100780Y-68688909D01*
X134163646Y-68644067D01*
X134279860Y-68561173D01*
X134438096Y-68403489D01*
X134497594Y-68320689D01*
X134565435Y-68226277D01*
X134568453Y-68222077D01*
X134667430Y-68021811D01*
X134732370Y-67808069D01*
X134761529Y-67586590D01*
X134763156Y-67520000D01*
X134744852Y-67297361D01*
X134690431Y-67080702D01*
X134601354Y-66875840D01*
X134480014Y-66688277D01*
X134476540Y-66684459D01*
X134476533Y-66684450D01*
X134332435Y-66526088D01*
X134301383Y-66462242D01*
X134309779Y-66391744D01*
X134354956Y-66336976D01*
X134381400Y-66323307D01*
X134488052Y-66283325D01*
X134503649Y-66274786D01*
X134605724Y-66198285D01*
X134618285Y-66185724D01*
X134694786Y-66083649D01*
X134703324Y-66068054D01*
X134748478Y-65947606D01*
X134752105Y-65932351D01*
X134757631Y-65881486D01*
X134758000Y-65874672D01*
X134758000Y-65252115D01*
X134753525Y-65236876D01*
X134752135Y-65235671D01*
X134744452Y-65234000D01*
X132060116Y-65234000D01*
X132044877Y-65238475D01*
X132043672Y-65239865D01*
X132042001Y-65247548D01*
X132042001Y-65874669D01*
X132042371Y-65881490D01*
X132047895Y-65932352D01*
X132051521Y-65947604D01*
X132096676Y-66068054D01*
X132105214Y-66083649D01*
X132181715Y-66185724D01*
X132194276Y-66198285D01*
X132296351Y-66274786D01*
X132311946Y-66283324D01*
X132420827Y-66324142D01*
X132477591Y-66366784D01*
X132502291Y-66433345D01*
X132487083Y-66502694D01*
X132467691Y-66529175D01*
X132344200Y-66658401D01*
X132340629Y-66662138D01*
X132214743Y-66846680D01*
X132120688Y-67049305D01*
X132060989Y-67264570D01*
X132037251Y-67486695D01*
X132037548Y-67491848D01*
X132037548Y-67491851D01*
X132043011Y-67586590D01*
X132050110Y-67709715D01*
X132051247Y-67714761D01*
X132051248Y-67714767D01*
X132071119Y-67802939D01*
X132099222Y-67927639D01*
X132183266Y-68134616D01*
X132185965Y-68139020D01*
X132250113Y-68243700D01*
X132299987Y-68325088D01*
X132446250Y-68493938D01*
X132618126Y-68636632D01*
X132630850Y-68644067D01*
X132691445Y-68679476D01*
X132740169Y-68731114D01*
X132753240Y-68800897D01*
X132726509Y-68866669D01*
X132686055Y-68900027D01*
X132673607Y-68906507D01*
X132669474Y-68909610D01*
X132669471Y-68909612D01*
X132499100Y-69037530D01*
X132494965Y-69040635D01*
X132340629Y-69202138D01*
X132214743Y-69386680D01*
X132120688Y-69589305D01*
X132060989Y-69804570D01*
X132037251Y-70026695D01*
X132037548Y-70031848D01*
X132037548Y-70031851D01*
X132043011Y-70126590D01*
X132050110Y-70249715D01*
X132051247Y-70254761D01*
X132051248Y-70254767D01*
X132065941Y-70319961D01*
X132099222Y-70467639D01*
X132183266Y-70674616D01*
X132185965Y-70679020D01*
X132274492Y-70823483D01*
X132299987Y-70865088D01*
X132446250Y-71033938D01*
X132618126Y-71176632D01*
X132688595Y-71217811D01*
X132691445Y-71219476D01*
X132740169Y-71271114D01*
X132753240Y-71340897D01*
X132726509Y-71406669D01*
X132686055Y-71440027D01*
X132673607Y-71446507D01*
X132669474Y-71449610D01*
X132669471Y-71449612D01*
X132499100Y-71577530D01*
X132494965Y-71580635D01*
X132429346Y-71649301D01*
X132392516Y-71687842D01*
X132340629Y-71742138D01*
X132337715Y-71746410D01*
X132337714Y-71746411D01*
X132325731Y-71763978D01*
X132214743Y-71926680D01*
X132120688Y-72129305D01*
X132060989Y-72344570D01*
X132037251Y-72566695D01*
X132037548Y-72571848D01*
X132037548Y-72571851D01*
X132043011Y-72666590D01*
X132050110Y-72789715D01*
X132051247Y-72794761D01*
X132051248Y-72794767D01*
X132065388Y-72857507D01*
X132099222Y-73007639D01*
X132183266Y-73214616D01*
X132185965Y-73219020D01*
X132279243Y-73371236D01*
X132299987Y-73405088D01*
X132446250Y-73573938D01*
X132618126Y-73716632D01*
X132688595Y-73757811D01*
X132691445Y-73759476D01*
X132740169Y-73811114D01*
X132753240Y-73880897D01*
X132726509Y-73946669D01*
X132686055Y-73980027D01*
X132673607Y-73986507D01*
X132669474Y-73989610D01*
X132669471Y-73989612D01*
X132499100Y-74117530D01*
X132494965Y-74120635D01*
X132340629Y-74282138D01*
X132214743Y-74466680D01*
X132120688Y-74669305D01*
X132060989Y-74884570D01*
X132037251Y-75106695D01*
X132037548Y-75111848D01*
X132037548Y-75111851D01*
X132043011Y-75206590D01*
X132050110Y-75329715D01*
X132051247Y-75334761D01*
X132051248Y-75334767D01*
X132069871Y-75417402D01*
X132099222Y-75547639D01*
X132183266Y-75754616D01*
X132185965Y-75759020D01*
X132245373Y-75855965D01*
X132299987Y-75945088D01*
X132446250Y-76113938D01*
X132450225Y-76117238D01*
X132450231Y-76117244D01*
X132455425Y-76121556D01*
X132495059Y-76180460D01*
X132496555Y-76251441D01*
X132459439Y-76311962D01*
X132419168Y-76336480D01*
X132311946Y-76376676D01*
X132296351Y-76385214D01*
X132194276Y-76461715D01*
X132181715Y-76474276D01*
X132105214Y-76576351D01*
X132096676Y-76591946D01*
X132051522Y-76712394D01*
X132047895Y-76727649D01*
X132042369Y-76778514D01*
X132042000Y-76785328D01*
X132042000Y-77407885D01*
X132046475Y-77423124D01*
X132047865Y-77424329D01*
X132055548Y-77426000D01*
X133528000Y-77426000D01*
X133596121Y-77446002D01*
X133642614Y-77499658D01*
X133654000Y-77552000D01*
X133654000Y-77808000D01*
X133633998Y-77876121D01*
X133580342Y-77922614D01*
X133528000Y-77934000D01*
X132060116Y-77934000D01*
X132044877Y-77938475D01*
X132043672Y-77939865D01*
X132042001Y-77947548D01*
X132042001Y-78574669D01*
X132042371Y-78581490D01*
X132047895Y-78632352D01*
X132051521Y-78647604D01*
X132096676Y-78768054D01*
X132105214Y-78783649D01*
X132181715Y-78885724D01*
X132194276Y-78898285D01*
X132296351Y-78974786D01*
X132311946Y-78983324D01*
X132420827Y-79024142D01*
X132477591Y-79066784D01*
X132502291Y-79133345D01*
X132487083Y-79202694D01*
X132467691Y-79229175D01*
X132456418Y-79240972D01*
X132340629Y-79362138D01*
X132337715Y-79366410D01*
X132337714Y-79366411D01*
X132325409Y-79384450D01*
X132214743Y-79546680D01*
X132120688Y-79749305D01*
X132060989Y-79964570D01*
X132037251Y-80186695D01*
X132037548Y-80191848D01*
X132037548Y-80191851D01*
X132043011Y-80286590D01*
X132050110Y-80409715D01*
X132051247Y-80414761D01*
X132051248Y-80414767D01*
X132071119Y-80502939D01*
X132099222Y-80627639D01*
X132183266Y-80834616D01*
X132185965Y-80839020D01*
X132250113Y-80943700D01*
X132299987Y-81025088D01*
X132446250Y-81193938D01*
X132618126Y-81336632D01*
X132630850Y-81344067D01*
X132691445Y-81379476D01*
X132740169Y-81431114D01*
X132753240Y-81500897D01*
X132726509Y-81566669D01*
X132686055Y-81600027D01*
X132673607Y-81606507D01*
X132669474Y-81609610D01*
X132669471Y-81609612D01*
X132499100Y-81737530D01*
X132494965Y-81740635D01*
X132340629Y-81902138D01*
X132214743Y-82086680D01*
X132120688Y-82289305D01*
X132060989Y-82504570D01*
X132037251Y-82726695D01*
X132037548Y-82731848D01*
X132037548Y-82731851D01*
X132043011Y-82826590D01*
X132050110Y-82949715D01*
X132051247Y-82954761D01*
X132051248Y-82954767D01*
X132065941Y-83019961D01*
X132099222Y-83167639D01*
X132183266Y-83374616D01*
X132185965Y-83379020D01*
X132274492Y-83523483D01*
X132299987Y-83565088D01*
X132446250Y-83733938D01*
X132618126Y-83876632D01*
X132688595Y-83917811D01*
X132691445Y-83919476D01*
X132740169Y-83971114D01*
X132753240Y-84040897D01*
X132726509Y-84106669D01*
X132686055Y-84140027D01*
X132673607Y-84146507D01*
X132669474Y-84149610D01*
X132669471Y-84149612D01*
X132499100Y-84277530D01*
X132494965Y-84280635D01*
X132429346Y-84349301D01*
X132392516Y-84387842D01*
X132340629Y-84442138D01*
X132337715Y-84446410D01*
X132337714Y-84446411D01*
X132325731Y-84463978D01*
X132214743Y-84626680D01*
X132120688Y-84829305D01*
X132060989Y-85044570D01*
X132037251Y-85266695D01*
X132037548Y-85271848D01*
X132037548Y-85271851D01*
X132043011Y-85366590D01*
X132050110Y-85489715D01*
X132051247Y-85494761D01*
X132051248Y-85494767D01*
X132065388Y-85557507D01*
X132099222Y-85707639D01*
X132183266Y-85914616D01*
X132185965Y-85919020D01*
X132279243Y-86071236D01*
X132299987Y-86105088D01*
X132446250Y-86273938D01*
X132618126Y-86416632D01*
X132688595Y-86457811D01*
X132691445Y-86459476D01*
X132740169Y-86511114D01*
X132753240Y-86580897D01*
X132726509Y-86646669D01*
X132686055Y-86680027D01*
X132673607Y-86686507D01*
X132669474Y-86689610D01*
X132669471Y-86689612D01*
X132499100Y-86817530D01*
X132494965Y-86820635D01*
X132340629Y-86982138D01*
X132214743Y-87166680D01*
X132120688Y-87369305D01*
X132060989Y-87584570D01*
X132037251Y-87806695D01*
X132037548Y-87811848D01*
X132037548Y-87811851D01*
X132043011Y-87906590D01*
X132050110Y-88029715D01*
X132051247Y-88034761D01*
X132051248Y-88034767D01*
X132069871Y-88117402D01*
X132099222Y-88247639D01*
X132183266Y-88454616D01*
X132185965Y-88459020D01*
X132245373Y-88555965D01*
X132299987Y-88645088D01*
X132446250Y-88813938D01*
X132450225Y-88817238D01*
X132450231Y-88817244D01*
X132455425Y-88821556D01*
X132495059Y-88880460D01*
X132496555Y-88951441D01*
X132459439Y-89011962D01*
X132419168Y-89036480D01*
X132311946Y-89076676D01*
X132296351Y-89085214D01*
X132194276Y-89161715D01*
X132181715Y-89174276D01*
X132105214Y-89276351D01*
X132096676Y-89291946D01*
X132051522Y-89412394D01*
X132047895Y-89427649D01*
X132042369Y-89478514D01*
X132042000Y-89485328D01*
X132042000Y-90107885D01*
X132046475Y-90123124D01*
X132047865Y-90124329D01*
X132055548Y-90126000D01*
X133528000Y-90126000D01*
X133596121Y-90146002D01*
X133642614Y-90199658D01*
X133654000Y-90252000D01*
X133654000Y-90508000D01*
X133633998Y-90576121D01*
X133580342Y-90622614D01*
X133528000Y-90634000D01*
X132060116Y-90634000D01*
X132044877Y-90638475D01*
X132043672Y-90639865D01*
X132042001Y-90647548D01*
X132042001Y-91274669D01*
X132042371Y-91281490D01*
X132047895Y-91332352D01*
X132051521Y-91347604D01*
X132096676Y-91468054D01*
X132105214Y-91483649D01*
X132181715Y-91585724D01*
X132194276Y-91598285D01*
X132296351Y-91674786D01*
X132311946Y-91683324D01*
X132420827Y-91724142D01*
X132477591Y-91766784D01*
X132502291Y-91833345D01*
X132487083Y-91902694D01*
X132467691Y-91929175D01*
X132456418Y-91940972D01*
X132340629Y-92062138D01*
X132337715Y-92066410D01*
X132337714Y-92066411D01*
X132325409Y-92084450D01*
X132214743Y-92246680D01*
X132120688Y-92449305D01*
X132060989Y-92664570D01*
X132037251Y-92886695D01*
X132037548Y-92891848D01*
X132037548Y-92891851D01*
X132043011Y-92986590D01*
X132050110Y-93109715D01*
X132051247Y-93114761D01*
X132051248Y-93114767D01*
X132071119Y-93202939D01*
X132099222Y-93327639D01*
X132183266Y-93534616D01*
X132299987Y-93725088D01*
X132446250Y-93893938D01*
X132618126Y-94036632D01*
X132688595Y-94077811D01*
X132691445Y-94079476D01*
X132740169Y-94131114D01*
X132753240Y-94200897D01*
X132726509Y-94266669D01*
X132686055Y-94300027D01*
X132673607Y-94306507D01*
X132669474Y-94309610D01*
X132669471Y-94309612D01*
X132499100Y-94437530D01*
X132494965Y-94440635D01*
X132340629Y-94602138D01*
X132214743Y-94786680D01*
X132120688Y-94989305D01*
X132060989Y-95204570D01*
X132037251Y-95426695D01*
X132037548Y-95431848D01*
X132037548Y-95431851D01*
X132043011Y-95526590D01*
X132050110Y-95649715D01*
X132051247Y-95654761D01*
X132051248Y-95654767D01*
X132069871Y-95737402D01*
X132099222Y-95867639D01*
X132183266Y-96074616D01*
X132185965Y-96079020D01*
X132245373Y-96175965D01*
X132299987Y-96265088D01*
X132446250Y-96433938D01*
X132618126Y-96576632D01*
X132688595Y-96617811D01*
X132691445Y-96619476D01*
X132740169Y-96671114D01*
X132753240Y-96740897D01*
X132726509Y-96806669D01*
X132686055Y-96840027D01*
X132673607Y-96846507D01*
X132669474Y-96849610D01*
X132669471Y-96849612D01*
X132645247Y-96867800D01*
X132494965Y-96980635D01*
X132340629Y-97142138D01*
X132214743Y-97326680D01*
X132199003Y-97360590D01*
X132127142Y-97515402D01*
X132120688Y-97529305D01*
X132060989Y-97744570D01*
X132037251Y-97966695D01*
X132037548Y-97971848D01*
X132037548Y-97971851D01*
X132046678Y-98130197D01*
X132050110Y-98189715D01*
X132051247Y-98194761D01*
X132051248Y-98194767D01*
X132071119Y-98282939D01*
X132099222Y-98407639D01*
X132137461Y-98501811D01*
X132175309Y-98595019D01*
X132183266Y-98614616D01*
X132299987Y-98805088D01*
X132446250Y-98973938D01*
X132618126Y-99116632D01*
X132688595Y-99157811D01*
X132691445Y-99159476D01*
X132740169Y-99211114D01*
X132753240Y-99280897D01*
X132726509Y-99346669D01*
X132686055Y-99380027D01*
X132673607Y-99386507D01*
X132669474Y-99389610D01*
X132669471Y-99389612D01*
X132499100Y-99517530D01*
X132494965Y-99520635D01*
X132340629Y-99682138D01*
X132214743Y-99866680D01*
X132120688Y-100069305D01*
X132060989Y-100284570D01*
X132037251Y-100506695D01*
X127229100Y-100506695D01*
X127229100Y-64898134D01*
X135856500Y-64898134D01*
X135863255Y-64960316D01*
X135914385Y-65096705D01*
X136001739Y-65213261D01*
X136118295Y-65300615D01*
X136254684Y-65351745D01*
X136316866Y-65358500D01*
X138113134Y-65358500D01*
X138175316Y-65351745D01*
X138311705Y-65300615D01*
X138428261Y-65213261D01*
X138515615Y-65096705D01*
X138537799Y-65037529D01*
X138559598Y-64979382D01*
X138602240Y-64922618D01*
X138668802Y-64897918D01*
X138738150Y-64913126D01*
X138772817Y-64941114D01*
X138801250Y-64973938D01*
X138973126Y-65116632D01*
X139166000Y-65229338D01*
X139170825Y-65231180D01*
X139170826Y-65231181D01*
X139182584Y-65235671D01*
X139374692Y-65309030D01*
X139379760Y-65310061D01*
X139379763Y-65310062D01*
X139474862Y-65329410D01*
X139593597Y-65353567D01*
X139598772Y-65353757D01*
X139598774Y-65353757D01*
X139811673Y-65361564D01*
X139811677Y-65361564D01*
X139816837Y-65361753D01*
X139821957Y-65361097D01*
X139821959Y-65361097D01*
X140033288Y-65334025D01*
X140033289Y-65334025D01*
X140038416Y-65333368D01*
X140043366Y-65331883D01*
X140247429Y-65270661D01*
X140247434Y-65270659D01*
X140252384Y-65269174D01*
X140452994Y-65170896D01*
X140634860Y-65041173D01*
X140793096Y-64883489D01*
X140923453Y-64702077D01*
X140924776Y-64703028D01*
X140971645Y-64659857D01*
X141041580Y-64647625D01*
X141107026Y-64675144D01*
X141134875Y-64706994D01*
X141194987Y-64805088D01*
X141341250Y-64973938D01*
X141513126Y-65116632D01*
X141706000Y-65229338D01*
X141710825Y-65231180D01*
X141710826Y-65231181D01*
X141722584Y-65235671D01*
X141914692Y-65309030D01*
X141919760Y-65310061D01*
X141919763Y-65310062D01*
X142014862Y-65329410D01*
X142133597Y-65353567D01*
X142138772Y-65353757D01*
X142138774Y-65353757D01*
X142351673Y-65361564D01*
X142351677Y-65361564D01*
X142356837Y-65361753D01*
X142361957Y-65361097D01*
X142361959Y-65361097D01*
X142573288Y-65334025D01*
X142573289Y-65334025D01*
X142578416Y-65333368D01*
X142583366Y-65331883D01*
X142787429Y-65270661D01*
X142787434Y-65270659D01*
X142792384Y-65269174D01*
X142992994Y-65170896D01*
X143174860Y-65041173D01*
X143333096Y-64883489D01*
X143463453Y-64702077D01*
X143464776Y-64703028D01*
X143511645Y-64659857D01*
X143581580Y-64647625D01*
X143647026Y-64675144D01*
X143674875Y-64706994D01*
X143734987Y-64805088D01*
X143881250Y-64973938D01*
X144053126Y-65116632D01*
X144246000Y-65229338D01*
X144250825Y-65231180D01*
X144250826Y-65231181D01*
X144262584Y-65235671D01*
X144454692Y-65309030D01*
X144459760Y-65310061D01*
X144459763Y-65310062D01*
X144554862Y-65329410D01*
X144673597Y-65353567D01*
X144678772Y-65353757D01*
X144678774Y-65353757D01*
X144891673Y-65361564D01*
X144891677Y-65361564D01*
X144896837Y-65361753D01*
X144901957Y-65361097D01*
X144901959Y-65361097D01*
X145113288Y-65334025D01*
X145113289Y-65334025D01*
X145118416Y-65333368D01*
X145123366Y-65331883D01*
X145327429Y-65270661D01*
X145327434Y-65270659D01*
X145332384Y-65269174D01*
X145532994Y-65170896D01*
X145714860Y-65041173D01*
X145873096Y-64883489D01*
X146003453Y-64702077D01*
X146004640Y-64702930D01*
X146051960Y-64659362D01*
X146121897Y-64647145D01*
X146187338Y-64674678D01*
X146215166Y-64706511D01*
X146272694Y-64800388D01*
X146278777Y-64808699D01*
X146418213Y-64969667D01*
X146425580Y-64976883D01*
X146589434Y-65112916D01*
X146597881Y-65118831D01*
X146781756Y-65226279D01*
X146791042Y-65230729D01*
X146990001Y-65306703D01*
X146999899Y-65309579D01*
X147103250Y-65330606D01*
X147117299Y-65329410D01*
X147121000Y-65319065D01*
X147121000Y-65318517D01*
X147629000Y-65318517D01*
X147633064Y-65332359D01*
X147646478Y-65334393D01*
X147653184Y-65333534D01*
X147663262Y-65331392D01*
X147867255Y-65270191D01*
X147876842Y-65266433D01*
X148068095Y-65172739D01*
X148076945Y-65167464D01*
X148250328Y-65043792D01*
X148258200Y-65037139D01*
X148409052Y-64886812D01*
X148415730Y-64878965D01*
X148540003Y-64706020D01*
X148545313Y-64697183D01*
X148639670Y-64506267D01*
X148643469Y-64496672D01*
X148705377Y-64292910D01*
X148707555Y-64282837D01*
X148708986Y-64271962D01*
X148706775Y-64257778D01*
X148693617Y-64254000D01*
X147647115Y-64254000D01*
X147631876Y-64258475D01*
X147630671Y-64259865D01*
X147629000Y-64267548D01*
X147629000Y-65318517D01*
X147121000Y-65318517D01*
X147121000Y-63727885D01*
X147629000Y-63727885D01*
X147633475Y-63743124D01*
X147634865Y-63744329D01*
X147642548Y-63746000D01*
X148693344Y-63746000D01*
X148706875Y-63742027D01*
X148708180Y-63732947D01*
X148666214Y-63565875D01*
X148662894Y-63556124D01*
X148577972Y-63360814D01*
X148573105Y-63351739D01*
X148457426Y-63172926D01*
X148451136Y-63164757D01*
X148307806Y-63007240D01*
X148300273Y-63000215D01*
X148133139Y-62868222D01*
X148124552Y-62862517D01*
X147938117Y-62759599D01*
X147928705Y-62755369D01*
X147727959Y-62684280D01*
X147717988Y-62681646D01*
X147646837Y-62668972D01*
X147633540Y-62670432D01*
X147629000Y-62684989D01*
X147629000Y-63727885D01*
X147121000Y-63727885D01*
X147121000Y-62683102D01*
X147117082Y-62669758D01*
X147102806Y-62667771D01*
X147064324Y-62673660D01*
X147054288Y-62676051D01*
X146851868Y-62742212D01*
X146842359Y-62746209D01*
X146653463Y-62844542D01*
X146644738Y-62850036D01*
X146474433Y-62977905D01*
X146466726Y-62984748D01*
X146319590Y-63138717D01*
X146313109Y-63146722D01*
X146208498Y-63300074D01*
X146153587Y-63345076D01*
X146083062Y-63353247D01*
X146019315Y-63321993D01*
X145998618Y-63297509D01*
X145917822Y-63172617D01*
X145917820Y-63172614D01*
X145915014Y-63168277D01*
X145764670Y-63003051D01*
X145760619Y-62999852D01*
X145760615Y-62999848D01*
X145593414Y-62867800D01*
X145593410Y-62867798D01*
X145589359Y-62864598D01*
X145553028Y-62844542D01*
X145537136Y-62835769D01*
X145393789Y-62756638D01*
X145388920Y-62754914D01*
X145388916Y-62754912D01*
X145188087Y-62683795D01*
X145188083Y-62683794D01*
X145183212Y-62682069D01*
X145178119Y-62681162D01*
X145178116Y-62681161D01*
X144968373Y-62643800D01*
X144968367Y-62643799D01*
X144963284Y-62642894D01*
X144889452Y-62641992D01*
X144745081Y-62640228D01*
X144745079Y-62640228D01*
X144739911Y-62640165D01*
X144519091Y-62673955D01*
X144306756Y-62743357D01*
X144108607Y-62846507D01*
X144104474Y-62849610D01*
X144104471Y-62849612D01*
X143975491Y-62946453D01*
X143929965Y-62980635D01*
X143926393Y-62984373D01*
X143818729Y-63097037D01*
X143775629Y-63142138D01*
X143668201Y-63299621D01*
X143613293Y-63344621D01*
X143542768Y-63352792D01*
X143479021Y-63321538D01*
X143458324Y-63297054D01*
X143377822Y-63172617D01*
X143377820Y-63172614D01*
X143375014Y-63168277D01*
X143224670Y-63003051D01*
X143220619Y-62999852D01*
X143220615Y-62999848D01*
X143053414Y-62867800D01*
X143053410Y-62867798D01*
X143049359Y-62864598D01*
X143013028Y-62844542D01*
X142997136Y-62835769D01*
X142853789Y-62756638D01*
X142848920Y-62754914D01*
X142848916Y-62754912D01*
X142648087Y-62683795D01*
X142648083Y-62683794D01*
X142643212Y-62682069D01*
X142638119Y-62681162D01*
X142638116Y-62681161D01*
X142428373Y-62643800D01*
X142428367Y-62643799D01*
X142423284Y-62642894D01*
X142349452Y-62641992D01*
X142205081Y-62640228D01*
X142205079Y-62640228D01*
X142199911Y-62640165D01*
X141979091Y-62673955D01*
X141766756Y-62743357D01*
X141568607Y-62846507D01*
X141564474Y-62849610D01*
X141564471Y-62849612D01*
X141435491Y-62946453D01*
X141389965Y-62980635D01*
X141386393Y-62984373D01*
X141278729Y-63097037D01*
X141235629Y-63142138D01*
X141128201Y-63299621D01*
X141073293Y-63344621D01*
X141002768Y-63352792D01*
X140939021Y-63321538D01*
X140918324Y-63297054D01*
X140837822Y-63172617D01*
X140837820Y-63172614D01*
X140835014Y-63168277D01*
X140684670Y-63003051D01*
X140680619Y-62999852D01*
X140680615Y-62999848D01*
X140513414Y-62867800D01*
X140513410Y-62867798D01*
X140509359Y-62864598D01*
X140473028Y-62844542D01*
X140457136Y-62835769D01*
X140313789Y-62756638D01*
X140308920Y-62754914D01*
X140308916Y-62754912D01*
X140108087Y-62683795D01*
X140108083Y-62683794D01*
X140103212Y-62682069D01*
X140098119Y-62681162D01*
X140098116Y-62681161D01*
X139888373Y-62643800D01*
X139888367Y-62643799D01*
X139883284Y-62642894D01*
X139809452Y-62641992D01*
X139665081Y-62640228D01*
X139665079Y-62640228D01*
X139659911Y-62640165D01*
X139439091Y-62673955D01*
X139226756Y-62743357D01*
X139028607Y-62846507D01*
X139024474Y-62849610D01*
X139024471Y-62849612D01*
X138895491Y-62946453D01*
X138849965Y-62980635D01*
X138775059Y-63059020D01*
X138769283Y-63065064D01*
X138707759Y-63100494D01*
X138636846Y-63097037D01*
X138579060Y-63055791D01*
X138560207Y-63022243D01*
X138518767Y-62911703D01*
X138515615Y-62903295D01*
X138428261Y-62786739D01*
X138311705Y-62699385D01*
X138175316Y-62648255D01*
X138113134Y-62641500D01*
X136316866Y-62641500D01*
X136254684Y-62648255D01*
X136118295Y-62699385D01*
X136001739Y-62786739D01*
X135914385Y-62903295D01*
X135863255Y-63039684D01*
X135856500Y-63101866D01*
X135856500Y-64898134D01*
X127229100Y-64898134D01*
X127229100Y-59130700D01*
X127249102Y-59062579D01*
X127302758Y-59016086D01*
X127355100Y-59004700D01*
X132127692Y-59004700D01*
X132195813Y-59024702D01*
G37*
%TD.AperFunction*%
%TD*%
M02*
