%TF.GenerationSoftware,KiCad,Pcbnew,(6.0.11)*%
%TF.CreationDate,2023-02-12T19:00:00-06:00*%
%TF.ProjectId,video_if_ql_vga,76696465-6f5f-4696-965f-716c5f766761,v1.0*%
%TF.SameCoordinates,Original*%
%TF.FileFunction,Legend,Top*%
%TF.FilePolarity,Positive*%
%FSLAX46Y46*%
G04 Gerber Fmt 4.6, Leading zero omitted, Abs format (unit mm)*
G04 Created by KiCad (PCBNEW (6.0.11)) date 2023-02-12 19:00:00*
%MOMM*%
%LPD*%
G01*
G04 APERTURE LIST*
%ADD10C,0.150000*%
%ADD11C,0.120000*%
%ADD12C,0.152400*%
G04 APERTURE END LIST*
D10*
X133056380Y-121459047D02*
X133770666Y-121459047D01*
X133913523Y-121506666D01*
X134008761Y-121601904D01*
X134056380Y-121744761D01*
X134056380Y-121840000D01*
X134056380Y-120506666D02*
X134056380Y-120982857D01*
X133056380Y-120982857D01*
X133961142Y-119601904D02*
X134008761Y-119649523D01*
X134056380Y-119792380D01*
X134056380Y-119887619D01*
X134008761Y-120030476D01*
X133913523Y-120125714D01*
X133818285Y-120173333D01*
X133627809Y-120220952D01*
X133484952Y-120220952D01*
X133294476Y-120173333D01*
X133199238Y-120125714D01*
X133104000Y-120030476D01*
X133056380Y-119887619D01*
X133056380Y-119792380D01*
X133104000Y-119649523D01*
X133151619Y-119601904D01*
X133056380Y-118887619D02*
X133770666Y-118887619D01*
X133913523Y-118935238D01*
X134008761Y-119030476D01*
X134056380Y-119173333D01*
X134056380Y-119268571D01*
X134056380Y-117935238D02*
X134056380Y-118411428D01*
X133056380Y-118411428D01*
X133961142Y-117030476D02*
X134008761Y-117078095D01*
X134056380Y-117220952D01*
X134056380Y-117316190D01*
X134008761Y-117459047D01*
X133913523Y-117554285D01*
X133818285Y-117601904D01*
X133627809Y-117649523D01*
X133484952Y-117649523D01*
X133294476Y-117601904D01*
X133199238Y-117554285D01*
X133104000Y-117459047D01*
X133056380Y-117316190D01*
X133056380Y-117220952D01*
X133104000Y-117078095D01*
X133151619Y-117030476D01*
X133056380Y-116316190D02*
X133770666Y-116316190D01*
X133913523Y-116363809D01*
X134008761Y-116459047D01*
X134056380Y-116601904D01*
X134056380Y-116697142D01*
X134056380Y-115363809D02*
X134056380Y-115840000D01*
X133056380Y-115840000D01*
X133961142Y-114459047D02*
X134008761Y-114506666D01*
X134056380Y-114649523D01*
X134056380Y-114744761D01*
X134008761Y-114887619D01*
X133913523Y-114982857D01*
X133818285Y-115030476D01*
X133627809Y-115078095D01*
X133484952Y-115078095D01*
X133294476Y-115030476D01*
X133199238Y-114982857D01*
X133104000Y-114887619D01*
X133056380Y-114744761D01*
X133056380Y-114649523D01*
X133104000Y-114506666D01*
X133151619Y-114459047D01*
X133056380Y-113744761D02*
X133770666Y-113744761D01*
X133913523Y-113792380D01*
X134008761Y-113887619D01*
X134056380Y-114030476D01*
X134056380Y-114125714D01*
X134056380Y-112792380D02*
X134056380Y-113268571D01*
X133056380Y-113268571D01*
X133961142Y-111887619D02*
X134008761Y-111935238D01*
X134056380Y-112078095D01*
X134056380Y-112173333D01*
X134008761Y-112316190D01*
X133913523Y-112411428D01*
X133818285Y-112459047D01*
X133627809Y-112506666D01*
X133484952Y-112506666D01*
X133294476Y-112459047D01*
X133199238Y-112411428D01*
X133104000Y-112316190D01*
X133056380Y-112173333D01*
X133056380Y-112078095D01*
X133104000Y-111935238D01*
X133151619Y-111887619D01*
%TO.C,R11*%
X145661142Y-88336380D02*
X145327809Y-87860190D01*
X145089714Y-88336380D02*
X145089714Y-87336380D01*
X145470666Y-87336380D01*
X145565904Y-87384000D01*
X145613523Y-87431619D01*
X145661142Y-87526857D01*
X145661142Y-87669714D01*
X145613523Y-87764952D01*
X145565904Y-87812571D01*
X145470666Y-87860190D01*
X145089714Y-87860190D01*
X146613523Y-88336380D02*
X146042095Y-88336380D01*
X146327809Y-88336380D02*
X146327809Y-87336380D01*
X146232571Y-87479238D01*
X146137333Y-87574476D01*
X146042095Y-87622095D01*
X147565904Y-88336380D02*
X146994476Y-88336380D01*
X147280190Y-88336380D02*
X147280190Y-87336380D01*
X147184952Y-87479238D01*
X147089714Y-87574476D01*
X146994476Y-87622095D01*
X137914285Y-87336380D02*
X138533333Y-87336380D01*
X138200000Y-87717333D01*
X138342857Y-87717333D01*
X138438095Y-87764952D01*
X138485714Y-87812571D01*
X138533333Y-87907809D01*
X138533333Y-88145904D01*
X138485714Y-88241142D01*
X138438095Y-88288761D01*
X138342857Y-88336380D01*
X138057142Y-88336380D01*
X137961904Y-88288761D01*
X137914285Y-88241142D01*
X138866666Y-87336380D02*
X139485714Y-87336380D01*
X139152380Y-87717333D01*
X139295238Y-87717333D01*
X139390476Y-87764952D01*
X139438095Y-87812571D01*
X139485714Y-87907809D01*
X139485714Y-88145904D01*
X139438095Y-88241142D01*
X139390476Y-88288761D01*
X139295238Y-88336380D01*
X139009523Y-88336380D01*
X138914285Y-88288761D01*
X138866666Y-88241142D01*
X140104761Y-87336380D02*
X140200000Y-87336380D01*
X140295238Y-87384000D01*
X140342857Y-87431619D01*
X140390476Y-87526857D01*
X140438095Y-87717333D01*
X140438095Y-87955428D01*
X140390476Y-88145904D01*
X140342857Y-88241142D01*
X140295238Y-88288761D01*
X140200000Y-88336380D01*
X140104761Y-88336380D01*
X140009523Y-88288761D01*
X139961904Y-88241142D01*
X139914285Y-88145904D01*
X139866666Y-87955428D01*
X139866666Y-87717333D01*
X139914285Y-87526857D01*
X139961904Y-87431619D01*
X140009523Y-87384000D01*
X140104761Y-87336380D01*
X141438095Y-88336380D02*
X141104761Y-87860190D01*
X140866666Y-88336380D02*
X140866666Y-87336380D01*
X141247619Y-87336380D01*
X141342857Y-87384000D01*
X141390476Y-87431619D01*
X141438095Y-87526857D01*
X141438095Y-87669714D01*
X141390476Y-87764952D01*
X141342857Y-87812571D01*
X141247619Y-87860190D01*
X140866666Y-87860190D01*
%TO.C,R10*%
X145661142Y-91384380D02*
X145327809Y-90908190D01*
X145089714Y-91384380D02*
X145089714Y-90384380D01*
X145470666Y-90384380D01*
X145565904Y-90432000D01*
X145613523Y-90479619D01*
X145661142Y-90574857D01*
X145661142Y-90717714D01*
X145613523Y-90812952D01*
X145565904Y-90860571D01*
X145470666Y-90908190D01*
X145089714Y-90908190D01*
X146613523Y-91384380D02*
X146042095Y-91384380D01*
X146327809Y-91384380D02*
X146327809Y-90384380D01*
X146232571Y-90527238D01*
X146137333Y-90622476D01*
X146042095Y-90670095D01*
X147232571Y-90384380D02*
X147327809Y-90384380D01*
X147423047Y-90432000D01*
X147470666Y-90479619D01*
X147518285Y-90574857D01*
X147565904Y-90765333D01*
X147565904Y-91003428D01*
X147518285Y-91193904D01*
X147470666Y-91289142D01*
X147423047Y-91336761D01*
X147327809Y-91384380D01*
X147232571Y-91384380D01*
X147137333Y-91336761D01*
X147089714Y-91289142D01*
X147042095Y-91193904D01*
X146994476Y-91003428D01*
X146994476Y-90765333D01*
X147042095Y-90574857D01*
X147089714Y-90479619D01*
X147137333Y-90432000D01*
X147232571Y-90384380D01*
X138438095Y-90384380D02*
X138247619Y-90384380D01*
X138152380Y-90432000D01*
X138104761Y-90479619D01*
X138009523Y-90622476D01*
X137961904Y-90812952D01*
X137961904Y-91193904D01*
X138009523Y-91289142D01*
X138057142Y-91336761D01*
X138152380Y-91384380D01*
X138342857Y-91384380D01*
X138438095Y-91336761D01*
X138485714Y-91289142D01*
X138533333Y-91193904D01*
X138533333Y-90955809D01*
X138485714Y-90860571D01*
X138438095Y-90812952D01*
X138342857Y-90765333D01*
X138152380Y-90765333D01*
X138057142Y-90812952D01*
X138009523Y-90860571D01*
X137961904Y-90955809D01*
X139104761Y-90812952D02*
X139009523Y-90765333D01*
X138961904Y-90717714D01*
X138914285Y-90622476D01*
X138914285Y-90574857D01*
X138961904Y-90479619D01*
X139009523Y-90432000D01*
X139104761Y-90384380D01*
X139295238Y-90384380D01*
X139390476Y-90432000D01*
X139438095Y-90479619D01*
X139485714Y-90574857D01*
X139485714Y-90622476D01*
X139438095Y-90717714D01*
X139390476Y-90765333D01*
X139295238Y-90812952D01*
X139104761Y-90812952D01*
X139009523Y-90860571D01*
X138961904Y-90908190D01*
X138914285Y-91003428D01*
X138914285Y-91193904D01*
X138961904Y-91289142D01*
X139009523Y-91336761D01*
X139104761Y-91384380D01*
X139295238Y-91384380D01*
X139390476Y-91336761D01*
X139438095Y-91289142D01*
X139485714Y-91193904D01*
X139485714Y-91003428D01*
X139438095Y-90908190D01*
X139390476Y-90860571D01*
X139295238Y-90812952D01*
X140104761Y-90384380D02*
X140200000Y-90384380D01*
X140295238Y-90432000D01*
X140342857Y-90479619D01*
X140390476Y-90574857D01*
X140438095Y-90765333D01*
X140438095Y-91003428D01*
X140390476Y-91193904D01*
X140342857Y-91289142D01*
X140295238Y-91336761D01*
X140200000Y-91384380D01*
X140104761Y-91384380D01*
X140009523Y-91336761D01*
X139961904Y-91289142D01*
X139914285Y-91193904D01*
X139866666Y-91003428D01*
X139866666Y-90765333D01*
X139914285Y-90574857D01*
X139961904Y-90479619D01*
X140009523Y-90432000D01*
X140104761Y-90384380D01*
X141438095Y-91384380D02*
X141104761Y-90908190D01*
X140866666Y-91384380D02*
X140866666Y-90384380D01*
X141247619Y-90384380D01*
X141342857Y-90432000D01*
X141390476Y-90479619D01*
X141438095Y-90574857D01*
X141438095Y-90717714D01*
X141390476Y-90812952D01*
X141342857Y-90860571D01*
X141247619Y-90908190D01*
X140866666Y-90908190D01*
%TO.C,R9*%
X145629333Y-82240380D02*
X145296000Y-81764190D01*
X145057904Y-82240380D02*
X145057904Y-81240380D01*
X145438857Y-81240380D01*
X145534095Y-81288000D01*
X145581714Y-81335619D01*
X145629333Y-81430857D01*
X145629333Y-81573714D01*
X145581714Y-81668952D01*
X145534095Y-81716571D01*
X145438857Y-81764190D01*
X145057904Y-81764190D01*
X146105523Y-82240380D02*
X146296000Y-82240380D01*
X146391238Y-82192761D01*
X146438857Y-82145142D01*
X146534095Y-82002285D01*
X146581714Y-81811809D01*
X146581714Y-81430857D01*
X146534095Y-81335619D01*
X146486476Y-81288000D01*
X146391238Y-81240380D01*
X146200761Y-81240380D01*
X146105523Y-81288000D01*
X146057904Y-81335619D01*
X146010285Y-81430857D01*
X146010285Y-81668952D01*
X146057904Y-81764190D01*
X146105523Y-81811809D01*
X146200761Y-81859428D01*
X146391238Y-81859428D01*
X146486476Y-81811809D01*
X146534095Y-81764190D01*
X146581714Y-81668952D01*
X137914285Y-81240380D02*
X138533333Y-81240380D01*
X138200000Y-81621333D01*
X138342857Y-81621333D01*
X138438095Y-81668952D01*
X138485714Y-81716571D01*
X138533333Y-81811809D01*
X138533333Y-82049904D01*
X138485714Y-82145142D01*
X138438095Y-82192761D01*
X138342857Y-82240380D01*
X138057142Y-82240380D01*
X137961904Y-82192761D01*
X137914285Y-82145142D01*
X138866666Y-81240380D02*
X139485714Y-81240380D01*
X139152380Y-81621333D01*
X139295238Y-81621333D01*
X139390476Y-81668952D01*
X139438095Y-81716571D01*
X139485714Y-81811809D01*
X139485714Y-82049904D01*
X139438095Y-82145142D01*
X139390476Y-82192761D01*
X139295238Y-82240380D01*
X139009523Y-82240380D01*
X138914285Y-82192761D01*
X138866666Y-82145142D01*
X140104761Y-81240380D02*
X140200000Y-81240380D01*
X140295238Y-81288000D01*
X140342857Y-81335619D01*
X140390476Y-81430857D01*
X140438095Y-81621333D01*
X140438095Y-81859428D01*
X140390476Y-82049904D01*
X140342857Y-82145142D01*
X140295238Y-82192761D01*
X140200000Y-82240380D01*
X140104761Y-82240380D01*
X140009523Y-82192761D01*
X139961904Y-82145142D01*
X139914285Y-82049904D01*
X139866666Y-81859428D01*
X139866666Y-81621333D01*
X139914285Y-81430857D01*
X139961904Y-81335619D01*
X140009523Y-81288000D01*
X140104761Y-81240380D01*
X141438095Y-82240380D02*
X141104761Y-81764190D01*
X140866666Y-82240380D02*
X140866666Y-81240380D01*
X141247619Y-81240380D01*
X141342857Y-81288000D01*
X141390476Y-81335619D01*
X141438095Y-81430857D01*
X141438095Y-81573714D01*
X141390476Y-81668952D01*
X141342857Y-81716571D01*
X141247619Y-81764190D01*
X140866666Y-81764190D01*
%TO.C,R12*%
X146164380Y-105036857D02*
X145688190Y-105370190D01*
X146164380Y-105608285D02*
X145164380Y-105608285D01*
X145164380Y-105227333D01*
X145212000Y-105132095D01*
X145259619Y-105084476D01*
X145354857Y-105036857D01*
X145497714Y-105036857D01*
X145592952Y-105084476D01*
X145640571Y-105132095D01*
X145688190Y-105227333D01*
X145688190Y-105608285D01*
X146164380Y-104084476D02*
X146164380Y-104655904D01*
X146164380Y-104370190D02*
X145164380Y-104370190D01*
X145307238Y-104465428D01*
X145402476Y-104560666D01*
X145450095Y-104655904D01*
X145259619Y-103703523D02*
X145212000Y-103655904D01*
X145164380Y-103560666D01*
X145164380Y-103322571D01*
X145212000Y-103227333D01*
X145259619Y-103179714D01*
X145354857Y-103132095D01*
X145450095Y-103132095D01*
X145592952Y-103179714D01*
X146164380Y-103751142D01*
X146164380Y-103132095D01*
X148534380Y-105560666D02*
X148534380Y-106132095D01*
X148534380Y-105846380D02*
X147534380Y-105846380D01*
X147677238Y-105941619D01*
X147772476Y-106036857D01*
X147820095Y-106132095D01*
X147534380Y-104941619D02*
X147534380Y-104846380D01*
X147582000Y-104751142D01*
X147629619Y-104703523D01*
X147724857Y-104655904D01*
X147915333Y-104608285D01*
X148153428Y-104608285D01*
X148343904Y-104655904D01*
X148439142Y-104703523D01*
X148486761Y-104751142D01*
X148534380Y-104846380D01*
X148534380Y-104941619D01*
X148486761Y-105036857D01*
X148439142Y-105084476D01*
X148343904Y-105132095D01*
X148153428Y-105179714D01*
X147915333Y-105179714D01*
X147724857Y-105132095D01*
X147629619Y-105084476D01*
X147582000Y-105036857D01*
X147534380Y-104941619D01*
X147534380Y-103989238D02*
X147534380Y-103894000D01*
X147582000Y-103798761D01*
X147629619Y-103751142D01*
X147724857Y-103703523D01*
X147915333Y-103655904D01*
X148153428Y-103655904D01*
X148343904Y-103703523D01*
X148439142Y-103751142D01*
X148486761Y-103798761D01*
X148534380Y-103894000D01*
X148534380Y-103989238D01*
X148486761Y-104084476D01*
X148439142Y-104132095D01*
X148343904Y-104179714D01*
X148153428Y-104227333D01*
X147915333Y-104227333D01*
X147724857Y-104179714D01*
X147629619Y-104132095D01*
X147582000Y-104084476D01*
X147534380Y-103989238D01*
X148534380Y-102655904D02*
X148058190Y-102989238D01*
X148534380Y-103227333D02*
X147534380Y-103227333D01*
X147534380Y-102846380D01*
X147582000Y-102751142D01*
X147629619Y-102703523D01*
X147724857Y-102655904D01*
X147867714Y-102655904D01*
X147962952Y-102703523D01*
X148010571Y-102751142D01*
X148058190Y-102846380D01*
X148058190Y-103227333D01*
%TO.C,R6*%
X145629333Y-78684380D02*
X145296000Y-78208190D01*
X145057904Y-78684380D02*
X145057904Y-77684380D01*
X145438857Y-77684380D01*
X145534095Y-77732000D01*
X145581714Y-77779619D01*
X145629333Y-77874857D01*
X145629333Y-78017714D01*
X145581714Y-78112952D01*
X145534095Y-78160571D01*
X145438857Y-78208190D01*
X145057904Y-78208190D01*
X146486476Y-77684380D02*
X146296000Y-77684380D01*
X146200761Y-77732000D01*
X146153142Y-77779619D01*
X146057904Y-77922476D01*
X146010285Y-78112952D01*
X146010285Y-78493904D01*
X146057904Y-78589142D01*
X146105523Y-78636761D01*
X146200761Y-78684380D01*
X146391238Y-78684380D01*
X146486476Y-78636761D01*
X146534095Y-78589142D01*
X146581714Y-78493904D01*
X146581714Y-78255809D01*
X146534095Y-78160571D01*
X146486476Y-78112952D01*
X146391238Y-78065333D01*
X146200761Y-78065333D01*
X146105523Y-78112952D01*
X146057904Y-78160571D01*
X146010285Y-78255809D01*
X138438095Y-77684380D02*
X138247619Y-77684380D01*
X138152380Y-77732000D01*
X138104761Y-77779619D01*
X138009523Y-77922476D01*
X137961904Y-78112952D01*
X137961904Y-78493904D01*
X138009523Y-78589142D01*
X138057142Y-78636761D01*
X138152380Y-78684380D01*
X138342857Y-78684380D01*
X138438095Y-78636761D01*
X138485714Y-78589142D01*
X138533333Y-78493904D01*
X138533333Y-78255809D01*
X138485714Y-78160571D01*
X138438095Y-78112952D01*
X138342857Y-78065333D01*
X138152380Y-78065333D01*
X138057142Y-78112952D01*
X138009523Y-78160571D01*
X137961904Y-78255809D01*
X139104761Y-78112952D02*
X139009523Y-78065333D01*
X138961904Y-78017714D01*
X138914285Y-77922476D01*
X138914285Y-77874857D01*
X138961904Y-77779619D01*
X139009523Y-77732000D01*
X139104761Y-77684380D01*
X139295238Y-77684380D01*
X139390476Y-77732000D01*
X139438095Y-77779619D01*
X139485714Y-77874857D01*
X139485714Y-77922476D01*
X139438095Y-78017714D01*
X139390476Y-78065333D01*
X139295238Y-78112952D01*
X139104761Y-78112952D01*
X139009523Y-78160571D01*
X138961904Y-78208190D01*
X138914285Y-78303428D01*
X138914285Y-78493904D01*
X138961904Y-78589142D01*
X139009523Y-78636761D01*
X139104761Y-78684380D01*
X139295238Y-78684380D01*
X139390476Y-78636761D01*
X139438095Y-78589142D01*
X139485714Y-78493904D01*
X139485714Y-78303428D01*
X139438095Y-78208190D01*
X139390476Y-78160571D01*
X139295238Y-78112952D01*
X140104761Y-77684380D02*
X140200000Y-77684380D01*
X140295238Y-77732000D01*
X140342857Y-77779619D01*
X140390476Y-77874857D01*
X140438095Y-78065333D01*
X140438095Y-78303428D01*
X140390476Y-78493904D01*
X140342857Y-78589142D01*
X140295238Y-78636761D01*
X140200000Y-78684380D01*
X140104761Y-78684380D01*
X140009523Y-78636761D01*
X139961904Y-78589142D01*
X139914285Y-78493904D01*
X139866666Y-78303428D01*
X139866666Y-78065333D01*
X139914285Y-77874857D01*
X139961904Y-77779619D01*
X140009523Y-77732000D01*
X140104761Y-77684380D01*
X141438095Y-78684380D02*
X141104761Y-78208190D01*
X140866666Y-78684380D02*
X140866666Y-77684380D01*
X141247619Y-77684380D01*
X141342857Y-77732000D01*
X141390476Y-77779619D01*
X141438095Y-77874857D01*
X141438095Y-78017714D01*
X141390476Y-78112952D01*
X141342857Y-78160571D01*
X141247619Y-78208190D01*
X140866666Y-78208190D01*
%TO.C,R13*%
X146164380Y-94114857D02*
X145688190Y-94448190D01*
X146164380Y-94686285D02*
X145164380Y-94686285D01*
X145164380Y-94305333D01*
X145212000Y-94210095D01*
X145259619Y-94162476D01*
X145354857Y-94114857D01*
X145497714Y-94114857D01*
X145592952Y-94162476D01*
X145640571Y-94210095D01*
X145688190Y-94305333D01*
X145688190Y-94686285D01*
X146164380Y-93162476D02*
X146164380Y-93733904D01*
X146164380Y-93448190D02*
X145164380Y-93448190D01*
X145307238Y-93543428D01*
X145402476Y-93638666D01*
X145450095Y-93733904D01*
X145164380Y-92829142D02*
X145164380Y-92210095D01*
X145545333Y-92543428D01*
X145545333Y-92400571D01*
X145592952Y-92305333D01*
X145640571Y-92257714D01*
X145735809Y-92210095D01*
X145973904Y-92210095D01*
X146069142Y-92257714D01*
X146116761Y-92305333D01*
X146164380Y-92400571D01*
X146164380Y-92686285D01*
X146116761Y-92781523D01*
X146069142Y-92829142D01*
X148534380Y-94638666D02*
X148534380Y-95210095D01*
X148534380Y-94924380D02*
X147534380Y-94924380D01*
X147677238Y-95019619D01*
X147772476Y-95114857D01*
X147820095Y-95210095D01*
X147534380Y-94019619D02*
X147534380Y-93924380D01*
X147582000Y-93829142D01*
X147629619Y-93781523D01*
X147724857Y-93733904D01*
X147915333Y-93686285D01*
X148153428Y-93686285D01*
X148343904Y-93733904D01*
X148439142Y-93781523D01*
X148486761Y-93829142D01*
X148534380Y-93924380D01*
X148534380Y-94019619D01*
X148486761Y-94114857D01*
X148439142Y-94162476D01*
X148343904Y-94210095D01*
X148153428Y-94257714D01*
X147915333Y-94257714D01*
X147724857Y-94210095D01*
X147629619Y-94162476D01*
X147582000Y-94114857D01*
X147534380Y-94019619D01*
X147534380Y-93067238D02*
X147534380Y-92972000D01*
X147582000Y-92876761D01*
X147629619Y-92829142D01*
X147724857Y-92781523D01*
X147915333Y-92733904D01*
X148153428Y-92733904D01*
X148343904Y-92781523D01*
X148439142Y-92829142D01*
X148486761Y-92876761D01*
X148534380Y-92972000D01*
X148534380Y-93067238D01*
X148486761Y-93162476D01*
X148439142Y-93210095D01*
X148343904Y-93257714D01*
X148153428Y-93305333D01*
X147915333Y-93305333D01*
X147724857Y-93257714D01*
X147629619Y-93210095D01*
X147582000Y-93162476D01*
X147534380Y-93067238D01*
X148534380Y-91733904D02*
X148058190Y-92067238D01*
X148534380Y-92305333D02*
X147534380Y-92305333D01*
X147534380Y-91924380D01*
X147582000Y-91829142D01*
X147629619Y-91781523D01*
X147724857Y-91733904D01*
X147867714Y-91733904D01*
X147962952Y-91781523D01*
X148010571Y-91829142D01*
X148058190Y-91924380D01*
X148058190Y-92305333D01*
%TO.C,R1*%
X139533333Y-98242380D02*
X139200000Y-97766190D01*
X138961904Y-98242380D02*
X138961904Y-97242380D01*
X139342857Y-97242380D01*
X139438095Y-97290000D01*
X139485714Y-97337619D01*
X139533333Y-97432857D01*
X139533333Y-97575714D01*
X139485714Y-97670952D01*
X139438095Y-97718571D01*
X139342857Y-97766190D01*
X138961904Y-97766190D01*
X140485714Y-98242380D02*
X139914285Y-98242380D01*
X140200000Y-98242380D02*
X140200000Y-97242380D01*
X140104761Y-97385238D01*
X140009523Y-97480476D01*
X139914285Y-97528095D01*
X137914285Y-94956380D02*
X138533333Y-94956380D01*
X138200000Y-95337333D01*
X138342857Y-95337333D01*
X138438095Y-95384952D01*
X138485714Y-95432571D01*
X138533333Y-95527809D01*
X138533333Y-95765904D01*
X138485714Y-95861142D01*
X138438095Y-95908761D01*
X138342857Y-95956380D01*
X138057142Y-95956380D01*
X137961904Y-95908761D01*
X137914285Y-95861142D01*
X138866666Y-94956380D02*
X139485714Y-94956380D01*
X139152380Y-95337333D01*
X139295238Y-95337333D01*
X139390476Y-95384952D01*
X139438095Y-95432571D01*
X139485714Y-95527809D01*
X139485714Y-95765904D01*
X139438095Y-95861142D01*
X139390476Y-95908761D01*
X139295238Y-95956380D01*
X139009523Y-95956380D01*
X138914285Y-95908761D01*
X138866666Y-95861142D01*
X140104761Y-94956380D02*
X140200000Y-94956380D01*
X140295238Y-95004000D01*
X140342857Y-95051619D01*
X140390476Y-95146857D01*
X140438095Y-95337333D01*
X140438095Y-95575428D01*
X140390476Y-95765904D01*
X140342857Y-95861142D01*
X140295238Y-95908761D01*
X140200000Y-95956380D01*
X140104761Y-95956380D01*
X140009523Y-95908761D01*
X139961904Y-95861142D01*
X139914285Y-95765904D01*
X139866666Y-95575428D01*
X139866666Y-95337333D01*
X139914285Y-95146857D01*
X139961904Y-95051619D01*
X140009523Y-95004000D01*
X140104761Y-94956380D01*
X141438095Y-95956380D02*
X141104761Y-95480190D01*
X140866666Y-95956380D02*
X140866666Y-94956380D01*
X141247619Y-94956380D01*
X141342857Y-95004000D01*
X141390476Y-95051619D01*
X141438095Y-95146857D01*
X141438095Y-95289714D01*
X141390476Y-95384952D01*
X141342857Y-95432571D01*
X141247619Y-95480190D01*
X140866666Y-95480190D01*
%TO.C,R3*%
X139533333Y-106116380D02*
X139200000Y-105640190D01*
X138961904Y-106116380D02*
X138961904Y-105116380D01*
X139342857Y-105116380D01*
X139438095Y-105164000D01*
X139485714Y-105211619D01*
X139533333Y-105306857D01*
X139533333Y-105449714D01*
X139485714Y-105544952D01*
X139438095Y-105592571D01*
X139342857Y-105640190D01*
X138961904Y-105640190D01*
X139866666Y-105116380D02*
X140485714Y-105116380D01*
X140152380Y-105497333D01*
X140295238Y-105497333D01*
X140390476Y-105544952D01*
X140438095Y-105592571D01*
X140485714Y-105687809D01*
X140485714Y-105925904D01*
X140438095Y-106021142D01*
X140390476Y-106068761D01*
X140295238Y-106116380D01*
X140009523Y-106116380D01*
X139914285Y-106068761D01*
X139866666Y-106021142D01*
X137914285Y-107402380D02*
X138533333Y-107402380D01*
X138200000Y-107783333D01*
X138342857Y-107783333D01*
X138438095Y-107830952D01*
X138485714Y-107878571D01*
X138533333Y-107973809D01*
X138533333Y-108211904D01*
X138485714Y-108307142D01*
X138438095Y-108354761D01*
X138342857Y-108402380D01*
X138057142Y-108402380D01*
X137961904Y-108354761D01*
X137914285Y-108307142D01*
X138866666Y-107402380D02*
X139485714Y-107402380D01*
X139152380Y-107783333D01*
X139295238Y-107783333D01*
X139390476Y-107830952D01*
X139438095Y-107878571D01*
X139485714Y-107973809D01*
X139485714Y-108211904D01*
X139438095Y-108307142D01*
X139390476Y-108354761D01*
X139295238Y-108402380D01*
X139009523Y-108402380D01*
X138914285Y-108354761D01*
X138866666Y-108307142D01*
X140104761Y-107402380D02*
X140200000Y-107402380D01*
X140295238Y-107450000D01*
X140342857Y-107497619D01*
X140390476Y-107592857D01*
X140438095Y-107783333D01*
X140438095Y-108021428D01*
X140390476Y-108211904D01*
X140342857Y-108307142D01*
X140295238Y-108354761D01*
X140200000Y-108402380D01*
X140104761Y-108402380D01*
X140009523Y-108354761D01*
X139961904Y-108307142D01*
X139914285Y-108211904D01*
X139866666Y-108021428D01*
X139866666Y-107783333D01*
X139914285Y-107592857D01*
X139961904Y-107497619D01*
X140009523Y-107450000D01*
X140104761Y-107402380D01*
X141438095Y-108402380D02*
X141104761Y-107926190D01*
X140866666Y-108402380D02*
X140866666Y-107402380D01*
X141247619Y-107402380D01*
X141342857Y-107450000D01*
X141390476Y-107497619D01*
X141438095Y-107592857D01*
X141438095Y-107735714D01*
X141390476Y-107830952D01*
X141342857Y-107878571D01*
X141247619Y-107926190D01*
X140866666Y-107926190D01*
%TO.C,R2*%
X139533333Y-103322380D02*
X139200000Y-102846190D01*
X138961904Y-103322380D02*
X138961904Y-102322380D01*
X139342857Y-102322380D01*
X139438095Y-102370000D01*
X139485714Y-102417619D01*
X139533333Y-102512857D01*
X139533333Y-102655714D01*
X139485714Y-102750952D01*
X139438095Y-102798571D01*
X139342857Y-102846190D01*
X138961904Y-102846190D01*
X139914285Y-102417619D02*
X139961904Y-102370000D01*
X140057142Y-102322380D01*
X140295238Y-102322380D01*
X140390476Y-102370000D01*
X140438095Y-102417619D01*
X140485714Y-102512857D01*
X140485714Y-102608095D01*
X140438095Y-102750952D01*
X139866666Y-103322380D01*
X140485714Y-103322380D01*
X137914285Y-100036380D02*
X138533333Y-100036380D01*
X138200000Y-100417333D01*
X138342857Y-100417333D01*
X138438095Y-100464952D01*
X138485714Y-100512571D01*
X138533333Y-100607809D01*
X138533333Y-100845904D01*
X138485714Y-100941142D01*
X138438095Y-100988761D01*
X138342857Y-101036380D01*
X138057142Y-101036380D01*
X137961904Y-100988761D01*
X137914285Y-100941142D01*
X138866666Y-100036380D02*
X139485714Y-100036380D01*
X139152380Y-100417333D01*
X139295238Y-100417333D01*
X139390476Y-100464952D01*
X139438095Y-100512571D01*
X139485714Y-100607809D01*
X139485714Y-100845904D01*
X139438095Y-100941142D01*
X139390476Y-100988761D01*
X139295238Y-101036380D01*
X139009523Y-101036380D01*
X138914285Y-100988761D01*
X138866666Y-100941142D01*
X140104761Y-100036380D02*
X140200000Y-100036380D01*
X140295238Y-100084000D01*
X140342857Y-100131619D01*
X140390476Y-100226857D01*
X140438095Y-100417333D01*
X140438095Y-100655428D01*
X140390476Y-100845904D01*
X140342857Y-100941142D01*
X140295238Y-100988761D01*
X140200000Y-101036380D01*
X140104761Y-101036380D01*
X140009523Y-100988761D01*
X139961904Y-100941142D01*
X139914285Y-100845904D01*
X139866666Y-100655428D01*
X139866666Y-100417333D01*
X139914285Y-100226857D01*
X139961904Y-100131619D01*
X140009523Y-100084000D01*
X140104761Y-100036380D01*
X141438095Y-101036380D02*
X141104761Y-100560190D01*
X140866666Y-101036380D02*
X140866666Y-100036380D01*
X141247619Y-100036380D01*
X141342857Y-100084000D01*
X141390476Y-100131619D01*
X141438095Y-100226857D01*
X141438095Y-100369714D01*
X141390476Y-100464952D01*
X141342857Y-100512571D01*
X141247619Y-100560190D01*
X140866666Y-100560190D01*
%TO.C,R4*%
X145629333Y-72588380D02*
X145296000Y-72112190D01*
X145057904Y-72588380D02*
X145057904Y-71588380D01*
X145438857Y-71588380D01*
X145534095Y-71636000D01*
X145581714Y-71683619D01*
X145629333Y-71778857D01*
X145629333Y-71921714D01*
X145581714Y-72016952D01*
X145534095Y-72064571D01*
X145438857Y-72112190D01*
X145057904Y-72112190D01*
X146486476Y-71921714D02*
X146486476Y-72588380D01*
X146248380Y-71540761D02*
X146010285Y-72255047D01*
X146629333Y-72255047D01*
X138438095Y-71588380D02*
X138247619Y-71588380D01*
X138152380Y-71636000D01*
X138104761Y-71683619D01*
X138009523Y-71826476D01*
X137961904Y-72016952D01*
X137961904Y-72397904D01*
X138009523Y-72493142D01*
X138057142Y-72540761D01*
X138152380Y-72588380D01*
X138342857Y-72588380D01*
X138438095Y-72540761D01*
X138485714Y-72493142D01*
X138533333Y-72397904D01*
X138533333Y-72159809D01*
X138485714Y-72064571D01*
X138438095Y-72016952D01*
X138342857Y-71969333D01*
X138152380Y-71969333D01*
X138057142Y-72016952D01*
X138009523Y-72064571D01*
X137961904Y-72159809D01*
X139104761Y-72016952D02*
X139009523Y-71969333D01*
X138961904Y-71921714D01*
X138914285Y-71826476D01*
X138914285Y-71778857D01*
X138961904Y-71683619D01*
X139009523Y-71636000D01*
X139104761Y-71588380D01*
X139295238Y-71588380D01*
X139390476Y-71636000D01*
X139438095Y-71683619D01*
X139485714Y-71778857D01*
X139485714Y-71826476D01*
X139438095Y-71921714D01*
X139390476Y-71969333D01*
X139295238Y-72016952D01*
X139104761Y-72016952D01*
X139009523Y-72064571D01*
X138961904Y-72112190D01*
X138914285Y-72207428D01*
X138914285Y-72397904D01*
X138961904Y-72493142D01*
X139009523Y-72540761D01*
X139104761Y-72588380D01*
X139295238Y-72588380D01*
X139390476Y-72540761D01*
X139438095Y-72493142D01*
X139485714Y-72397904D01*
X139485714Y-72207428D01*
X139438095Y-72112190D01*
X139390476Y-72064571D01*
X139295238Y-72016952D01*
X140104761Y-71588380D02*
X140200000Y-71588380D01*
X140295238Y-71636000D01*
X140342857Y-71683619D01*
X140390476Y-71778857D01*
X140438095Y-71969333D01*
X140438095Y-72207428D01*
X140390476Y-72397904D01*
X140342857Y-72493142D01*
X140295238Y-72540761D01*
X140200000Y-72588380D01*
X140104761Y-72588380D01*
X140009523Y-72540761D01*
X139961904Y-72493142D01*
X139914285Y-72397904D01*
X139866666Y-72207428D01*
X139866666Y-71969333D01*
X139914285Y-71778857D01*
X139961904Y-71683619D01*
X140009523Y-71636000D01*
X140104761Y-71588380D01*
X141438095Y-72588380D02*
X141104761Y-72112190D01*
X140866666Y-72588380D02*
X140866666Y-71588380D01*
X141247619Y-71588380D01*
X141342857Y-71636000D01*
X141390476Y-71683619D01*
X141438095Y-71778857D01*
X141438095Y-71921714D01*
X141390476Y-72016952D01*
X141342857Y-72064571D01*
X141247619Y-72112190D01*
X140866666Y-72112190D01*
%TO.C,J2*%
X142598733Y-122297619D02*
X142598733Y-121583333D01*
X142646352Y-121440476D01*
X142741590Y-121345238D01*
X142884447Y-121297619D01*
X142979685Y-121297619D01*
X142170161Y-122202380D02*
X142122542Y-122250000D01*
X142027304Y-122297619D01*
X141789209Y-122297619D01*
X141693971Y-122250000D01*
X141646352Y-122202380D01*
X141598733Y-122107142D01*
X141598733Y-122011904D01*
X141646352Y-121869047D01*
X142217780Y-121297619D01*
X141598733Y-121297619D01*
%TO.C,J1*%
X141906666Y-60666380D02*
X141906666Y-61380666D01*
X141859047Y-61523523D01*
X141763809Y-61618761D01*
X141620952Y-61666380D01*
X141525714Y-61666380D01*
X142906666Y-61666380D02*
X142335238Y-61666380D01*
X142620952Y-61666380D02*
X142620952Y-60666380D01*
X142525714Y-60809238D01*
X142430476Y-60904476D01*
X142335238Y-60952095D01*
%TO.C,R5*%
X145629333Y-69540380D02*
X145296000Y-69064190D01*
X145057904Y-69540380D02*
X145057904Y-68540380D01*
X145438857Y-68540380D01*
X145534095Y-68588000D01*
X145581714Y-68635619D01*
X145629333Y-68730857D01*
X145629333Y-68873714D01*
X145581714Y-68968952D01*
X145534095Y-69016571D01*
X145438857Y-69064190D01*
X145057904Y-69064190D01*
X146534095Y-68540380D02*
X146057904Y-68540380D01*
X146010285Y-69016571D01*
X146057904Y-68968952D01*
X146153142Y-68921333D01*
X146391238Y-68921333D01*
X146486476Y-68968952D01*
X146534095Y-69016571D01*
X146581714Y-69111809D01*
X146581714Y-69349904D01*
X146534095Y-69445142D01*
X146486476Y-69492761D01*
X146391238Y-69540380D01*
X146153142Y-69540380D01*
X146057904Y-69492761D01*
X146010285Y-69445142D01*
X137914285Y-68540380D02*
X138533333Y-68540380D01*
X138200000Y-68921333D01*
X138342857Y-68921333D01*
X138438095Y-68968952D01*
X138485714Y-69016571D01*
X138533333Y-69111809D01*
X138533333Y-69349904D01*
X138485714Y-69445142D01*
X138438095Y-69492761D01*
X138342857Y-69540380D01*
X138057142Y-69540380D01*
X137961904Y-69492761D01*
X137914285Y-69445142D01*
X138866666Y-68540380D02*
X139485714Y-68540380D01*
X139152380Y-68921333D01*
X139295238Y-68921333D01*
X139390476Y-68968952D01*
X139438095Y-69016571D01*
X139485714Y-69111809D01*
X139485714Y-69349904D01*
X139438095Y-69445142D01*
X139390476Y-69492761D01*
X139295238Y-69540380D01*
X139009523Y-69540380D01*
X138914285Y-69492761D01*
X138866666Y-69445142D01*
X140104761Y-68540380D02*
X140200000Y-68540380D01*
X140295238Y-68588000D01*
X140342857Y-68635619D01*
X140390476Y-68730857D01*
X140438095Y-68921333D01*
X140438095Y-69159428D01*
X140390476Y-69349904D01*
X140342857Y-69445142D01*
X140295238Y-69492761D01*
X140200000Y-69540380D01*
X140104761Y-69540380D01*
X140009523Y-69492761D01*
X139961904Y-69445142D01*
X139914285Y-69349904D01*
X139866666Y-69159428D01*
X139866666Y-68921333D01*
X139914285Y-68730857D01*
X139961904Y-68635619D01*
X140009523Y-68588000D01*
X140104761Y-68540380D01*
X141438095Y-69540380D02*
X141104761Y-69064190D01*
X140866666Y-69540380D02*
X140866666Y-68540380D01*
X141247619Y-68540380D01*
X141342857Y-68588000D01*
X141390476Y-68635619D01*
X141438095Y-68730857D01*
X141438095Y-68873714D01*
X141390476Y-68968952D01*
X141342857Y-69016571D01*
X141247619Y-69064190D01*
X140866666Y-69064190D01*
%TO.C,U1*%
X141732095Y-66254380D02*
X141732095Y-67063904D01*
X141779714Y-67159142D01*
X141827333Y-67206761D01*
X141922571Y-67254380D01*
X142113047Y-67254380D01*
X142208285Y-67206761D01*
X142255904Y-67159142D01*
X142303523Y-67063904D01*
X142303523Y-66254380D01*
X143303523Y-67254380D02*
X142732095Y-67254380D01*
X143017809Y-67254380D02*
X143017809Y-66254380D01*
X142922571Y-66397238D01*
X142827333Y-66492476D01*
X142732095Y-66540095D01*
X154376158Y-103228155D02*
X154295346Y-103255093D01*
X154214534Y-103335905D01*
X154160659Y-103443654D01*
X154160659Y-103551404D01*
X154187597Y-103632216D01*
X154268409Y-103766903D01*
X154349221Y-103847715D01*
X154483908Y-103928528D01*
X154564720Y-103955465D01*
X154672470Y-103955465D01*
X154780219Y-103901590D01*
X154834094Y-103847715D01*
X154887969Y-103739966D01*
X154887969Y-103686091D01*
X154699407Y-103497529D01*
X154591658Y-103605279D01*
X155184280Y-103497529D02*
X154618595Y-102931844D01*
X155507529Y-103174280D01*
X154941844Y-102608595D01*
X155776903Y-102904906D02*
X155211218Y-102339221D01*
X155345905Y-102204534D01*
X155453654Y-102150659D01*
X155561404Y-102150659D01*
X155642216Y-102177597D01*
X155776903Y-102258409D01*
X155857715Y-102339221D01*
X155938528Y-102473908D01*
X155965465Y-102554720D01*
X155965465Y-102662470D01*
X155911590Y-102770219D01*
X155776903Y-102904906D01*
X154387722Y-100930592D02*
X154306910Y-100957529D01*
X154226097Y-101038341D01*
X154172223Y-101146091D01*
X154172223Y-101253841D01*
X154199160Y-101334653D01*
X154279972Y-101469340D01*
X154360784Y-101550152D01*
X154495471Y-101630964D01*
X154576284Y-101657902D01*
X154684033Y-101657902D01*
X154791783Y-101604027D01*
X154845658Y-101550152D01*
X154899532Y-101442402D01*
X154899532Y-101388528D01*
X154710971Y-101199966D01*
X154603221Y-101307715D01*
X155195844Y-101199966D02*
X154630158Y-100634280D01*
X154845658Y-100418781D01*
X154926470Y-100391844D01*
X154980345Y-100391844D01*
X155061157Y-100418781D01*
X155141969Y-100499593D01*
X155168906Y-100580406D01*
X155168906Y-100634280D01*
X155141969Y-100715093D01*
X154926470Y-100930592D01*
X156057841Y-100337969D02*
X155734592Y-100661218D01*
X155896216Y-100499593D02*
X155330531Y-99933908D01*
X155357468Y-100068595D01*
X155357468Y-100176345D01*
X155330531Y-100257157D01*
X156057841Y-99691471D02*
X155977028Y-99718409D01*
X155923154Y-99718409D01*
X155842341Y-99691471D01*
X155815404Y-99664534D01*
X155788467Y-99583722D01*
X155788467Y-99529847D01*
X155815404Y-99449035D01*
X155923154Y-99341285D01*
X156003966Y-99314348D01*
X156057841Y-99314348D01*
X156138653Y-99341285D01*
X156165590Y-99368223D01*
X156192528Y-99449035D01*
X156192528Y-99502910D01*
X156165590Y-99583722D01*
X156057841Y-99691471D01*
X156030903Y-99772284D01*
X156030903Y-99826158D01*
X156057841Y-99906971D01*
X156165590Y-100014720D01*
X156246402Y-100041658D01*
X156300277Y-100041658D01*
X156381089Y-100014720D01*
X156488839Y-99906971D01*
X156515776Y-99826158D01*
X156515776Y-99772284D01*
X156488839Y-99691471D01*
X156381089Y-99583722D01*
X156300277Y-99556784D01*
X156246402Y-99556784D01*
X156165590Y-99583722D01*
X154376158Y-65128155D02*
X154295346Y-65155093D01*
X154214534Y-65235905D01*
X154160659Y-65343654D01*
X154160659Y-65451404D01*
X154187597Y-65532216D01*
X154268409Y-65666903D01*
X154349221Y-65747715D01*
X154483908Y-65828528D01*
X154564720Y-65855465D01*
X154672470Y-65855465D01*
X154780219Y-65801590D01*
X154834094Y-65747715D01*
X154887969Y-65639966D01*
X154887969Y-65586091D01*
X154699407Y-65397529D01*
X154591658Y-65505279D01*
X155184280Y-65397529D02*
X154618595Y-64831844D01*
X155507529Y-65074280D01*
X154941844Y-64508595D01*
X155776903Y-64804906D02*
X155211218Y-64239221D01*
X155345905Y-64104534D01*
X155453654Y-64050659D01*
X155561404Y-64050659D01*
X155642216Y-64077597D01*
X155776903Y-64158409D01*
X155857715Y-64239221D01*
X155938528Y-64373908D01*
X155965465Y-64454720D01*
X155965465Y-64562470D01*
X155911590Y-64670219D01*
X155776903Y-64804906D01*
X128803096Y-87961218D02*
X128722284Y-87988155D01*
X128641471Y-88068967D01*
X128587597Y-88176717D01*
X128587597Y-88284467D01*
X128614534Y-88365279D01*
X128695346Y-88499966D01*
X128776158Y-88580778D01*
X128910845Y-88661590D01*
X128991658Y-88688528D01*
X129099407Y-88688528D01*
X129207157Y-88634653D01*
X129261032Y-88580778D01*
X129314906Y-88473028D01*
X129314906Y-88419154D01*
X129126345Y-88230592D01*
X129018595Y-88338341D01*
X129611218Y-88230592D02*
X129045532Y-87664906D01*
X129261032Y-87449407D01*
X129341844Y-87422470D01*
X129395719Y-87422470D01*
X129476531Y-87449407D01*
X129557343Y-87530219D01*
X129584280Y-87611032D01*
X129584280Y-87664906D01*
X129557343Y-87745719D01*
X129341844Y-87961218D01*
X130203841Y-87637969D02*
X130311590Y-87530219D01*
X130338528Y-87449407D01*
X130338528Y-87395532D01*
X130311590Y-87260845D01*
X130230778Y-87126158D01*
X130015279Y-86910659D01*
X129934467Y-86883722D01*
X129880592Y-86883722D01*
X129799780Y-86910659D01*
X129692030Y-87018409D01*
X129665093Y-87099221D01*
X129665093Y-87153096D01*
X129692030Y-87233908D01*
X129826717Y-87368595D01*
X129907529Y-87395532D01*
X129961404Y-87395532D01*
X130042216Y-87368595D01*
X130149966Y-87260845D01*
X130176903Y-87180033D01*
X130176903Y-87126158D01*
X130149966Y-87045346D01*
X128803096Y-60021218D02*
X128722284Y-60048155D01*
X128641471Y-60128967D01*
X128587597Y-60236717D01*
X128587597Y-60344467D01*
X128614534Y-60425279D01*
X128695346Y-60559966D01*
X128776158Y-60640778D01*
X128910845Y-60721590D01*
X128991658Y-60748528D01*
X129099407Y-60748528D01*
X129207157Y-60694653D01*
X129261032Y-60640778D01*
X129314906Y-60533028D01*
X129314906Y-60479154D01*
X129126345Y-60290592D01*
X129018595Y-60398341D01*
X129611218Y-60290592D02*
X129045532Y-59724906D01*
X129261032Y-59509407D01*
X129341844Y-59482470D01*
X129395719Y-59482470D01*
X129476531Y-59509407D01*
X129557343Y-59590219D01*
X129584280Y-59671032D01*
X129584280Y-59724906D01*
X129557343Y-59805719D01*
X129341844Y-60021218D01*
X129718967Y-59051471D02*
X129772842Y-58997597D01*
X129853654Y-58970659D01*
X129907529Y-58970659D01*
X129988341Y-58997597D01*
X130123028Y-59078409D01*
X130257715Y-59213096D01*
X130338528Y-59347783D01*
X130365465Y-59428595D01*
X130365465Y-59482470D01*
X130338528Y-59563282D01*
X130284653Y-59617157D01*
X130203841Y-59644094D01*
X130149966Y-59644094D01*
X130069154Y-59617157D01*
X129934467Y-59536345D01*
X129799780Y-59401658D01*
X129718967Y-59266971D01*
X129692030Y-59186158D01*
X129692030Y-59132284D01*
X129718967Y-59051471D01*
X154376158Y-90528155D02*
X154295346Y-90555093D01*
X154214534Y-90635905D01*
X154160659Y-90743654D01*
X154160659Y-90851404D01*
X154187597Y-90932216D01*
X154268409Y-91066903D01*
X154349221Y-91147715D01*
X154483908Y-91228528D01*
X154564720Y-91255465D01*
X154672470Y-91255465D01*
X154780219Y-91201590D01*
X154834094Y-91147715D01*
X154887969Y-91039966D01*
X154887969Y-90986091D01*
X154699407Y-90797529D01*
X154591658Y-90905279D01*
X155184280Y-90797529D02*
X154618595Y-90231844D01*
X155507529Y-90474280D01*
X154941844Y-89908595D01*
X155776903Y-90204906D02*
X155211218Y-89639221D01*
X155345905Y-89504534D01*
X155453654Y-89450659D01*
X155561404Y-89450659D01*
X155642216Y-89477597D01*
X155776903Y-89558409D01*
X155857715Y-89639221D01*
X155938528Y-89773908D01*
X155965465Y-89854720D01*
X155965465Y-89962470D01*
X155911590Y-90070219D01*
X155776903Y-90204906D01*
X154387722Y-108550592D02*
X154306910Y-108577529D01*
X154226097Y-108658341D01*
X154172223Y-108766091D01*
X154172223Y-108873841D01*
X154199160Y-108954653D01*
X154279972Y-109089340D01*
X154360784Y-109170152D01*
X154495471Y-109250964D01*
X154576284Y-109277902D01*
X154684033Y-109277902D01*
X154791783Y-109224027D01*
X154845658Y-109170152D01*
X154899532Y-109062402D01*
X154899532Y-109008528D01*
X154710971Y-108819966D01*
X154603221Y-108927715D01*
X155195844Y-108819966D02*
X154630158Y-108254280D01*
X154845658Y-108038781D01*
X154926470Y-108011844D01*
X154980345Y-108011844D01*
X155061157Y-108038781D01*
X155141969Y-108119593D01*
X155168906Y-108200406D01*
X155168906Y-108254280D01*
X155141969Y-108335093D01*
X154926470Y-108550592D01*
X156057841Y-107957969D02*
X155734592Y-108281218D01*
X155896216Y-108119593D02*
X155330531Y-107553908D01*
X155357468Y-107688595D01*
X155357468Y-107796345D01*
X155330531Y-107877157D01*
X155977028Y-106907410D02*
X155869279Y-107015160D01*
X155842341Y-107095972D01*
X155842341Y-107149847D01*
X155869279Y-107284534D01*
X155950091Y-107419221D01*
X156165590Y-107634720D01*
X156246402Y-107661658D01*
X156300277Y-107661658D01*
X156381089Y-107634720D01*
X156488839Y-107526971D01*
X156515776Y-107446158D01*
X156515776Y-107392284D01*
X156488839Y-107311471D01*
X156354152Y-107176784D01*
X156273340Y-107149847D01*
X156219465Y-107149847D01*
X156138653Y-107176784D01*
X156030903Y-107284534D01*
X156003966Y-107365346D01*
X156003966Y-107419221D01*
X156030903Y-107500033D01*
X154179847Y-70520592D02*
X154530033Y-70170406D01*
X154556971Y-70574467D01*
X154637783Y-70493654D01*
X154718595Y-70466717D01*
X154772470Y-70466717D01*
X154853282Y-70493654D01*
X154987969Y-70628341D01*
X155014906Y-70709154D01*
X155014906Y-70763028D01*
X154987969Y-70843841D01*
X154826345Y-71005465D01*
X154745532Y-71032402D01*
X154691658Y-71032402D01*
X154691658Y-70008781D02*
X155445905Y-70385905D01*
X155068781Y-69631658D01*
X155203468Y-69496971D02*
X155553654Y-69146784D01*
X155580592Y-69550845D01*
X155661404Y-69470033D01*
X155742216Y-69443096D01*
X155796091Y-69443096D01*
X155876903Y-69470033D01*
X156011590Y-69604720D01*
X156038528Y-69685532D01*
X156038528Y-69739407D01*
X156011590Y-69820219D01*
X155849966Y-69981844D01*
X155769154Y-70008781D01*
X155715279Y-70008781D01*
X154387722Y-83150592D02*
X154306910Y-83177529D01*
X154226097Y-83258341D01*
X154172223Y-83366091D01*
X154172223Y-83473841D01*
X154199160Y-83554653D01*
X154279972Y-83689340D01*
X154360784Y-83770152D01*
X154495471Y-83850964D01*
X154576284Y-83877902D01*
X154684033Y-83877902D01*
X154791783Y-83824027D01*
X154845658Y-83770152D01*
X154899532Y-83662402D01*
X154899532Y-83608528D01*
X154710971Y-83419966D01*
X154603221Y-83527715D01*
X155195844Y-83419966D02*
X154630158Y-82854280D01*
X154845658Y-82638781D01*
X154926470Y-82611844D01*
X154980345Y-82611844D01*
X155061157Y-82638781D01*
X155141969Y-82719593D01*
X155168906Y-82800406D01*
X155168906Y-82854280D01*
X155141969Y-82935093D01*
X154926470Y-83150592D01*
X155222781Y-82369407D02*
X155222781Y-82315532D01*
X155249719Y-82234720D01*
X155384406Y-82100033D01*
X155465218Y-82073096D01*
X155519093Y-82073096D01*
X155599905Y-82100033D01*
X155653780Y-82153908D01*
X155707654Y-82261658D01*
X155707654Y-82908155D01*
X156057841Y-82557969D01*
X155977028Y-81507410D02*
X155869279Y-81615160D01*
X155842341Y-81695972D01*
X155842341Y-81749847D01*
X155869279Y-81884534D01*
X155950091Y-82019221D01*
X156165590Y-82234720D01*
X156246402Y-82261658D01*
X156300277Y-82261658D01*
X156381089Y-82234720D01*
X156488839Y-82126971D01*
X156515776Y-82046158D01*
X156515776Y-81992284D01*
X156488839Y-81911471D01*
X156354152Y-81776784D01*
X156273340Y-81749847D01*
X156219465Y-81749847D01*
X156138653Y-81776784D01*
X156030903Y-81884534D01*
X156003966Y-81965346D01*
X156003966Y-82019221D01*
X156030903Y-82100033D01*
X128803096Y-80341218D02*
X128722284Y-80368155D01*
X128641471Y-80448967D01*
X128587597Y-80556717D01*
X128587597Y-80664467D01*
X128614534Y-80745279D01*
X128695346Y-80879966D01*
X128776158Y-80960778D01*
X128910845Y-81041590D01*
X128991658Y-81068528D01*
X129099407Y-81068528D01*
X129207157Y-81014653D01*
X129261032Y-80960778D01*
X129314906Y-80853028D01*
X129314906Y-80799154D01*
X129126345Y-80610592D01*
X129018595Y-80718341D01*
X129611218Y-80610592D02*
X129045532Y-80044906D01*
X129261032Y-79829407D01*
X129341844Y-79802470D01*
X129395719Y-79802470D01*
X129476531Y-79829407D01*
X129557343Y-79910219D01*
X129584280Y-79991032D01*
X129584280Y-80044906D01*
X129557343Y-80125719D01*
X129341844Y-80341218D01*
X129853654Y-79236784D02*
X129745905Y-79344534D01*
X129718967Y-79425346D01*
X129718967Y-79479221D01*
X129745905Y-79613908D01*
X129826717Y-79748595D01*
X130042216Y-79964094D01*
X130123028Y-79991032D01*
X130176903Y-79991032D01*
X130257715Y-79964094D01*
X130365465Y-79856345D01*
X130392402Y-79775532D01*
X130392402Y-79721658D01*
X130365465Y-79640845D01*
X130230778Y-79506158D01*
X130149966Y-79479221D01*
X130096091Y-79479221D01*
X130015279Y-79506158D01*
X129907529Y-79613908D01*
X129880592Y-79694720D01*
X129880592Y-79748595D01*
X129907529Y-79829407D01*
X128776158Y-77828155D02*
X128695346Y-77855093D01*
X128614534Y-77935905D01*
X128560659Y-78043654D01*
X128560659Y-78151404D01*
X128587597Y-78232216D01*
X128668409Y-78366903D01*
X128749221Y-78447715D01*
X128883908Y-78528528D01*
X128964720Y-78555465D01*
X129072470Y-78555465D01*
X129180219Y-78501590D01*
X129234094Y-78447715D01*
X129287969Y-78339966D01*
X129287969Y-78286091D01*
X129099407Y-78097529D01*
X128991658Y-78205279D01*
X129584280Y-78097529D02*
X129018595Y-77531844D01*
X129907529Y-77774280D01*
X129341844Y-77208595D01*
X130176903Y-77504906D02*
X129611218Y-76939221D01*
X129745905Y-76804534D01*
X129853654Y-76750659D01*
X129961404Y-76750659D01*
X130042216Y-76777597D01*
X130176903Y-76858409D01*
X130257715Y-76939221D01*
X130338528Y-77073908D01*
X130365465Y-77154720D01*
X130365465Y-77262470D01*
X130311590Y-77370219D01*
X130176903Y-77504906D01*
X128703096Y-62551218D02*
X128622284Y-62578155D01*
X128541471Y-62658967D01*
X128487597Y-62766717D01*
X128487597Y-62874467D01*
X128514534Y-62955279D01*
X128595346Y-63089966D01*
X128676158Y-63170778D01*
X128810845Y-63251590D01*
X128891658Y-63278528D01*
X128999407Y-63278528D01*
X129107157Y-63224653D01*
X129161032Y-63170778D01*
X129214906Y-63063028D01*
X129214906Y-63009154D01*
X129026345Y-62820592D01*
X128918595Y-62928341D01*
X129511218Y-62820592D02*
X128945532Y-62254906D01*
X129161032Y-62039407D01*
X129241844Y-62012470D01*
X129295719Y-62012470D01*
X129376531Y-62039407D01*
X129457343Y-62120219D01*
X129484280Y-62201032D01*
X129484280Y-62254906D01*
X129457343Y-62335719D01*
X129241844Y-62551218D01*
X130373215Y-61958595D02*
X130049966Y-62281844D01*
X130211590Y-62120219D02*
X129645905Y-61554534D01*
X129672842Y-61689221D01*
X129672842Y-61796971D01*
X129645905Y-61877783D01*
X154387722Y-106010592D02*
X154306910Y-106037529D01*
X154226097Y-106118341D01*
X154172223Y-106226091D01*
X154172223Y-106333841D01*
X154199160Y-106414653D01*
X154279972Y-106549340D01*
X154360784Y-106630152D01*
X154495471Y-106710964D01*
X154576284Y-106737902D01*
X154684033Y-106737902D01*
X154791783Y-106684027D01*
X154845658Y-106630152D01*
X154899532Y-106522402D01*
X154899532Y-106468528D01*
X154710971Y-106279966D01*
X154603221Y-106387715D01*
X155195844Y-106279966D02*
X154630158Y-105714280D01*
X154845658Y-105498781D01*
X154926470Y-105471844D01*
X154980345Y-105471844D01*
X155061157Y-105498781D01*
X155141969Y-105579593D01*
X155168906Y-105660406D01*
X155168906Y-105714280D01*
X155141969Y-105795093D01*
X154926470Y-106010592D01*
X156057841Y-105417969D02*
X155734592Y-105741218D01*
X155896216Y-105579593D02*
X155330531Y-105013908D01*
X155357468Y-105148595D01*
X155357468Y-105256345D01*
X155330531Y-105337157D01*
X155680717Y-104663722D02*
X156057841Y-104286598D01*
X156381089Y-105094720D01*
X154243129Y-60557309D02*
X154997377Y-60934433D01*
X154620253Y-60180186D01*
X155266751Y-60072436D02*
X155374500Y-60018561D01*
X155428375Y-60018561D01*
X155509187Y-60045499D01*
X155590000Y-60126311D01*
X155616937Y-60207123D01*
X155616937Y-60260998D01*
X155590000Y-60341810D01*
X155374500Y-60557309D01*
X154808815Y-59991624D01*
X154997377Y-59803062D01*
X155078189Y-59776125D01*
X155132064Y-59776125D01*
X155212876Y-59803062D01*
X155266751Y-59856937D01*
X155293688Y-59937749D01*
X155293688Y-59991624D01*
X155266751Y-60072436D01*
X155078189Y-60260998D01*
X155374500Y-59425938D02*
X155832436Y-59883874D01*
X155913248Y-59910812D01*
X155967123Y-59910812D01*
X156047935Y-59883874D01*
X156155685Y-59776125D01*
X156182622Y-59695312D01*
X156182622Y-59641438D01*
X156155685Y-59560625D01*
X155697749Y-59102690D01*
X156478934Y-59399001D02*
X156586683Y-59345126D01*
X156721370Y-59210439D01*
X156748308Y-59129627D01*
X156748308Y-59075752D01*
X156721370Y-58994940D01*
X156667496Y-58941065D01*
X156586683Y-58914128D01*
X156532809Y-58914128D01*
X156451996Y-58941065D01*
X156317309Y-59021877D01*
X156236497Y-59048815D01*
X156182622Y-59048815D01*
X156101810Y-59021877D01*
X156047935Y-58968003D01*
X156020998Y-58887190D01*
X156020998Y-58833316D01*
X156047935Y-58752503D01*
X156182622Y-58617816D01*
X156290372Y-58563942D01*
X128133722Y-98390592D02*
X128052910Y-98417529D01*
X127972097Y-98498341D01*
X127918223Y-98606091D01*
X127918223Y-98713841D01*
X127945160Y-98794653D01*
X128025972Y-98929340D01*
X128106784Y-99010152D01*
X128241471Y-99090964D01*
X128322284Y-99117902D01*
X128430033Y-99117902D01*
X128537783Y-99064027D01*
X128591658Y-99010152D01*
X128645532Y-98902402D01*
X128645532Y-98848528D01*
X128456971Y-98659966D01*
X128349221Y-98767715D01*
X128941844Y-98659966D02*
X128376158Y-98094280D01*
X128591658Y-97878781D01*
X128672470Y-97851844D01*
X128726345Y-97851844D01*
X128807157Y-97878781D01*
X128887969Y-97959593D01*
X128914906Y-98040406D01*
X128914906Y-98094280D01*
X128887969Y-98175093D01*
X128672470Y-98390592D01*
X129803841Y-97797969D02*
X129480592Y-98121218D01*
X129642216Y-97959593D02*
X129076531Y-97393908D01*
X129103468Y-97528595D01*
X129103468Y-97636345D01*
X129076531Y-97717157D01*
X129507529Y-97070659D02*
X129507529Y-97016784D01*
X129534467Y-96935972D01*
X129669154Y-96801285D01*
X129749966Y-96774348D01*
X129803841Y-96774348D01*
X129884653Y-96801285D01*
X129938528Y-96855160D01*
X129992402Y-96962910D01*
X129992402Y-97609407D01*
X130342589Y-97259221D01*
X154387722Y-98390592D02*
X154306910Y-98417529D01*
X154226097Y-98498341D01*
X154172223Y-98606091D01*
X154172223Y-98713841D01*
X154199160Y-98794653D01*
X154279972Y-98929340D01*
X154360784Y-99010152D01*
X154495471Y-99090964D01*
X154576284Y-99117902D01*
X154684033Y-99117902D01*
X154791783Y-99064027D01*
X154845658Y-99010152D01*
X154899532Y-98902402D01*
X154899532Y-98848528D01*
X154710971Y-98659966D01*
X154603221Y-98767715D01*
X155195844Y-98659966D02*
X154630158Y-98094280D01*
X154845658Y-97878781D01*
X154926470Y-97851844D01*
X154980345Y-97851844D01*
X155061157Y-97878781D01*
X155141969Y-97959593D01*
X155168906Y-98040406D01*
X155168906Y-98094280D01*
X155141969Y-98175093D01*
X154926470Y-98390592D01*
X156057841Y-97797969D02*
X155734592Y-98121218D01*
X155896216Y-97959593D02*
X155330531Y-97393908D01*
X155357468Y-97528595D01*
X155357468Y-97636345D01*
X155330531Y-97717157D01*
X156327215Y-97528595D02*
X156434964Y-97420845D01*
X156461902Y-97340033D01*
X156461902Y-97286158D01*
X156434964Y-97151471D01*
X156354152Y-97016784D01*
X156138653Y-96801285D01*
X156057841Y-96774348D01*
X156003966Y-96774348D01*
X155923154Y-96801285D01*
X155815404Y-96909035D01*
X155788467Y-96989847D01*
X155788467Y-97043722D01*
X155815404Y-97124534D01*
X155950091Y-97259221D01*
X156030903Y-97286158D01*
X156084778Y-97286158D01*
X156165590Y-97259221D01*
X156273340Y-97151471D01*
X156300277Y-97070659D01*
X156300277Y-97016784D01*
X156273340Y-96935972D01*
X128803096Y-72721218D02*
X128722284Y-72748155D01*
X128641471Y-72828967D01*
X128587597Y-72936717D01*
X128587597Y-73044467D01*
X128614534Y-73125279D01*
X128695346Y-73259966D01*
X128776158Y-73340778D01*
X128910845Y-73421590D01*
X128991658Y-73448528D01*
X129099407Y-73448528D01*
X129207157Y-73394653D01*
X129261032Y-73340778D01*
X129314906Y-73233028D01*
X129314906Y-73179154D01*
X129126345Y-72990592D01*
X129018595Y-73098341D01*
X129611218Y-72990592D02*
X129045532Y-72424906D01*
X129261032Y-72209407D01*
X129341844Y-72182470D01*
X129395719Y-72182470D01*
X129476531Y-72209407D01*
X129557343Y-72290219D01*
X129584280Y-72371032D01*
X129584280Y-72424906D01*
X129557343Y-72505719D01*
X129341844Y-72721218D01*
X130042216Y-71805346D02*
X130419340Y-72182470D01*
X129692030Y-71724534D02*
X129961404Y-72263282D01*
X130311590Y-71913096D01*
X154387722Y-93320592D02*
X154306910Y-93347529D01*
X154226097Y-93428341D01*
X154172223Y-93536091D01*
X154172223Y-93643841D01*
X154199160Y-93724653D01*
X154279972Y-93859340D01*
X154360784Y-93940152D01*
X154495471Y-94020964D01*
X154576284Y-94047902D01*
X154684033Y-94047902D01*
X154791783Y-93994027D01*
X154845658Y-93940152D01*
X154899532Y-93832402D01*
X154899532Y-93778528D01*
X154710971Y-93589966D01*
X154603221Y-93697715D01*
X155195844Y-93589966D02*
X154630158Y-93024280D01*
X154845658Y-92808781D01*
X154926470Y-92781844D01*
X154980345Y-92781844D01*
X155061157Y-92808781D01*
X155141969Y-92889593D01*
X155168906Y-92970406D01*
X155168906Y-93024280D01*
X155141969Y-93105093D01*
X154926470Y-93320592D01*
X155222781Y-92539407D02*
X155222781Y-92485532D01*
X155249719Y-92404720D01*
X155384406Y-92270033D01*
X155465218Y-92243096D01*
X155519093Y-92243096D01*
X155599905Y-92270033D01*
X155653780Y-92323908D01*
X155707654Y-92431658D01*
X155707654Y-93078155D01*
X156057841Y-92727969D01*
X156596589Y-92189221D02*
X156273340Y-92512470D01*
X156434964Y-92350845D02*
X155869279Y-91785160D01*
X155896216Y-91919847D01*
X155896216Y-92027597D01*
X155869279Y-92108409D01*
X155128375Y-85973435D02*
X154670439Y-85892622D01*
X154805126Y-86296683D02*
X154239441Y-85730998D01*
X154454940Y-85515499D01*
X154535752Y-85488561D01*
X154589627Y-85488561D01*
X154670439Y-85515499D01*
X154751251Y-85596311D01*
X154778189Y-85677123D01*
X154778189Y-85730998D01*
X154751251Y-85811810D01*
X154535752Y-86027309D01*
X154805126Y-85165312D02*
X155263062Y-85623248D01*
X155343874Y-85650186D01*
X155397749Y-85650186D01*
X155478561Y-85623248D01*
X155586311Y-85515499D01*
X155613248Y-85434687D01*
X155613248Y-85380812D01*
X155586311Y-85299999D01*
X155128375Y-84842064D01*
X155963435Y-85138375D02*
X155397749Y-84572690D01*
X156286683Y-84815126D01*
X155720998Y-84249441D01*
X154212131Y-67988308D02*
X154562317Y-67638122D01*
X154589255Y-68042183D01*
X154670067Y-67961370D01*
X154750879Y-67934433D01*
X154804754Y-67934433D01*
X154885566Y-67961370D01*
X155020253Y-68096057D01*
X155047190Y-68176870D01*
X155047190Y-68230744D01*
X155020253Y-68311557D01*
X154858629Y-68473181D01*
X154777816Y-68500118D01*
X154723942Y-68500118D01*
X154723942Y-67476497D02*
X155478189Y-67853621D01*
X155101065Y-67099374D01*
X155235752Y-66964687D02*
X155585938Y-66614500D01*
X155612876Y-67018561D01*
X155693688Y-66937749D01*
X155774500Y-66910812D01*
X155828375Y-66910812D01*
X155909187Y-66937749D01*
X156043874Y-67072436D01*
X156070812Y-67153248D01*
X156070812Y-67207123D01*
X156043874Y-67287935D01*
X155882250Y-67449560D01*
X155801438Y-67476497D01*
X155747563Y-67476497D01*
X156313248Y-67126311D02*
X156744247Y-66695312D01*
X156528748Y-66210439D02*
X156717309Y-66021877D01*
X157094433Y-66237377D02*
X156825059Y-66506751D01*
X156259374Y-65941065D01*
X156528748Y-65671691D01*
X157336870Y-65994940D02*
X156771184Y-65429255D01*
X157660118Y-65671691D01*
X157094433Y-65106006D01*
X128279722Y-108550592D02*
X128198910Y-108577529D01*
X128118097Y-108658341D01*
X128064223Y-108766091D01*
X128064223Y-108873841D01*
X128091160Y-108954653D01*
X128171972Y-109089340D01*
X128252784Y-109170152D01*
X128387471Y-109250964D01*
X128468284Y-109277902D01*
X128576033Y-109277902D01*
X128683783Y-109224027D01*
X128737658Y-109170152D01*
X128791532Y-109062402D01*
X128791532Y-109008528D01*
X128602971Y-108819966D01*
X128495221Y-108927715D01*
X129087844Y-108819966D02*
X128522158Y-108254280D01*
X128737658Y-108038781D01*
X128818470Y-108011844D01*
X128872345Y-108011844D01*
X128953157Y-108038781D01*
X129033969Y-108119593D01*
X129060906Y-108200406D01*
X129060906Y-108254280D01*
X129033969Y-108335093D01*
X128818470Y-108550592D01*
X129949841Y-107957969D02*
X129626592Y-108281218D01*
X129788216Y-108119593D02*
X129222531Y-107553908D01*
X129249468Y-107688595D01*
X129249468Y-107796345D01*
X129222531Y-107877157D01*
X129895966Y-106880473D02*
X129626592Y-107149847D01*
X129869028Y-107446158D01*
X129869028Y-107392284D01*
X129895966Y-107311471D01*
X130030653Y-107176784D01*
X130111465Y-107149847D01*
X130165340Y-107149847D01*
X130246152Y-107176784D01*
X130380839Y-107311471D01*
X130407776Y-107392284D01*
X130407776Y-107446158D01*
X130380839Y-107526971D01*
X130246152Y-107661658D01*
X130165340Y-107688595D01*
X130111465Y-107688595D01*
X128703096Y-67641218D02*
X128622284Y-67668155D01*
X128541471Y-67748967D01*
X128487597Y-67856717D01*
X128487597Y-67964467D01*
X128514534Y-68045279D01*
X128595346Y-68179966D01*
X128676158Y-68260778D01*
X128810845Y-68341590D01*
X128891658Y-68368528D01*
X128999407Y-68368528D01*
X129107157Y-68314653D01*
X129161032Y-68260778D01*
X129214906Y-68153028D01*
X129214906Y-68099154D01*
X129026345Y-67910592D01*
X128918595Y-68018341D01*
X129511218Y-67910592D02*
X128945532Y-67344906D01*
X129161032Y-67129407D01*
X129241844Y-67102470D01*
X129295719Y-67102470D01*
X129376531Y-67129407D01*
X129457343Y-67210219D01*
X129484280Y-67291032D01*
X129484280Y-67344906D01*
X129457343Y-67425719D01*
X129241844Y-67641218D01*
X129538155Y-66860033D02*
X129538155Y-66806158D01*
X129565093Y-66725346D01*
X129699780Y-66590659D01*
X129780592Y-66563722D01*
X129834467Y-66563722D01*
X129915279Y-66590659D01*
X129969154Y-66644534D01*
X130023028Y-66752284D01*
X130023028Y-67398781D01*
X130373215Y-67048595D01*
X128279722Y-93310592D02*
X128198910Y-93337529D01*
X128118097Y-93418341D01*
X128064223Y-93526091D01*
X128064223Y-93633841D01*
X128091160Y-93714653D01*
X128171972Y-93849340D01*
X128252784Y-93930152D01*
X128387471Y-94010964D01*
X128468284Y-94037902D01*
X128576033Y-94037902D01*
X128683783Y-93984027D01*
X128737658Y-93930152D01*
X128791532Y-93822402D01*
X128791532Y-93768528D01*
X128602971Y-93579966D01*
X128495221Y-93687715D01*
X129087844Y-93579966D02*
X128522158Y-93014280D01*
X128737658Y-92798781D01*
X128818470Y-92771844D01*
X128872345Y-92771844D01*
X128953157Y-92798781D01*
X129033969Y-92879593D01*
X129060906Y-92960406D01*
X129060906Y-93014280D01*
X129033969Y-93095093D01*
X128818470Y-93310592D01*
X129949841Y-92717969D02*
X129626592Y-93041218D01*
X129788216Y-92879593D02*
X129222531Y-92313908D01*
X129249468Y-92448595D01*
X129249468Y-92556345D01*
X129222531Y-92637157D01*
X129734341Y-91802097D02*
X129788216Y-91748223D01*
X129869028Y-91721285D01*
X129922903Y-91721285D01*
X130003715Y-91748223D01*
X130138402Y-91829035D01*
X130273089Y-91963722D01*
X130353902Y-92098409D01*
X130380839Y-92179221D01*
X130380839Y-92233096D01*
X130353902Y-92313908D01*
X130300027Y-92367783D01*
X130219215Y-92394720D01*
X130165340Y-92394720D01*
X130084528Y-92367783D01*
X129949841Y-92286971D01*
X129815154Y-92152284D01*
X129734341Y-92017597D01*
X129707404Y-91936784D01*
X129707404Y-91882910D01*
X129734341Y-91802097D01*
X154387722Y-80620592D02*
X154306910Y-80647529D01*
X154226097Y-80728341D01*
X154172223Y-80836091D01*
X154172223Y-80943841D01*
X154199160Y-81024653D01*
X154279972Y-81159340D01*
X154360784Y-81240152D01*
X154495471Y-81320964D01*
X154576284Y-81347902D01*
X154684033Y-81347902D01*
X154791783Y-81294027D01*
X154845658Y-81240152D01*
X154899532Y-81132402D01*
X154899532Y-81078528D01*
X154710971Y-80889966D01*
X154603221Y-80997715D01*
X155195844Y-80889966D02*
X154630158Y-80324280D01*
X154845658Y-80108781D01*
X154926470Y-80081844D01*
X154980345Y-80081844D01*
X155061157Y-80108781D01*
X155141969Y-80189593D01*
X155168906Y-80270406D01*
X155168906Y-80324280D01*
X155141969Y-80405093D01*
X154926470Y-80620592D01*
X155222781Y-79839407D02*
X155222781Y-79785532D01*
X155249719Y-79704720D01*
X155384406Y-79570033D01*
X155465218Y-79543096D01*
X155519093Y-79543096D01*
X155599905Y-79570033D01*
X155653780Y-79623908D01*
X155707654Y-79731658D01*
X155707654Y-80378155D01*
X156057841Y-80027969D01*
X155680717Y-79273722D02*
X156057841Y-78896598D01*
X156381089Y-79704720D01*
X128279722Y-100930592D02*
X128198910Y-100957529D01*
X128118097Y-101038341D01*
X128064223Y-101146091D01*
X128064223Y-101253841D01*
X128091160Y-101334653D01*
X128171972Y-101469340D01*
X128252784Y-101550152D01*
X128387471Y-101630964D01*
X128468284Y-101657902D01*
X128576033Y-101657902D01*
X128683783Y-101604027D01*
X128737658Y-101550152D01*
X128791532Y-101442402D01*
X128791532Y-101388528D01*
X128602971Y-101199966D01*
X128495221Y-101307715D01*
X129087844Y-101199966D02*
X128522158Y-100634280D01*
X128737658Y-100418781D01*
X128818470Y-100391844D01*
X128872345Y-100391844D01*
X128953157Y-100418781D01*
X129033969Y-100499593D01*
X129060906Y-100580406D01*
X129060906Y-100634280D01*
X129033969Y-100715093D01*
X128818470Y-100930592D01*
X129949841Y-100337969D02*
X129626592Y-100661218D01*
X129788216Y-100499593D02*
X129222531Y-99933908D01*
X129249468Y-100068595D01*
X129249468Y-100176345D01*
X129222531Y-100257157D01*
X129572717Y-99583722D02*
X129922903Y-99233536D01*
X129949841Y-99637597D01*
X130030653Y-99556784D01*
X130111465Y-99529847D01*
X130165340Y-99529847D01*
X130246152Y-99556784D01*
X130380839Y-99691471D01*
X130407776Y-99772284D01*
X130407776Y-99826158D01*
X130380839Y-99906971D01*
X130219215Y-100068595D01*
X130138402Y-100095532D01*
X130084528Y-100095532D01*
X128803096Y-70181218D02*
X128722284Y-70208155D01*
X128641471Y-70288967D01*
X128587597Y-70396717D01*
X128587597Y-70504467D01*
X128614534Y-70585279D01*
X128695346Y-70719966D01*
X128776158Y-70800778D01*
X128910845Y-70881590D01*
X128991658Y-70908528D01*
X129099407Y-70908528D01*
X129207157Y-70854653D01*
X129261032Y-70800778D01*
X129314906Y-70693028D01*
X129314906Y-70639154D01*
X129126345Y-70450592D01*
X129018595Y-70558341D01*
X129611218Y-70450592D02*
X129045532Y-69884906D01*
X129261032Y-69669407D01*
X129341844Y-69642470D01*
X129395719Y-69642470D01*
X129476531Y-69669407D01*
X129557343Y-69750219D01*
X129584280Y-69831032D01*
X129584280Y-69884906D01*
X129557343Y-69965719D01*
X129341844Y-70181218D01*
X129557343Y-69373096D02*
X129907529Y-69022910D01*
X129934467Y-69426971D01*
X130015279Y-69346158D01*
X130096091Y-69319221D01*
X130149966Y-69319221D01*
X130230778Y-69346158D01*
X130365465Y-69480845D01*
X130392402Y-69561658D01*
X130392402Y-69615532D01*
X130365465Y-69696345D01*
X130203841Y-69857969D01*
X130123028Y-69884906D01*
X130069154Y-69884906D01*
X128776158Y-103228155D02*
X128695346Y-103255093D01*
X128614534Y-103335905D01*
X128560659Y-103443654D01*
X128560659Y-103551404D01*
X128587597Y-103632216D01*
X128668409Y-103766903D01*
X128749221Y-103847715D01*
X128883908Y-103928528D01*
X128964720Y-103955465D01*
X129072470Y-103955465D01*
X129180219Y-103901590D01*
X129234094Y-103847715D01*
X129287969Y-103739966D01*
X129287969Y-103686091D01*
X129099407Y-103497529D01*
X128991658Y-103605279D01*
X129584280Y-103497529D02*
X129018595Y-102931844D01*
X129907529Y-103174280D01*
X129341844Y-102608595D01*
X130176903Y-102904906D02*
X129611218Y-102339221D01*
X129745905Y-102204534D01*
X129853654Y-102150659D01*
X129961404Y-102150659D01*
X130042216Y-102177597D01*
X130176903Y-102258409D01*
X130257715Y-102339221D01*
X130338528Y-102473908D01*
X130365465Y-102554720D01*
X130365465Y-102662470D01*
X130311590Y-102770219D01*
X130176903Y-102904906D01*
X154387722Y-88230592D02*
X154306910Y-88257529D01*
X154226097Y-88338341D01*
X154172223Y-88446091D01*
X154172223Y-88553841D01*
X154199160Y-88634653D01*
X154279972Y-88769340D01*
X154360784Y-88850152D01*
X154495471Y-88930964D01*
X154576284Y-88957902D01*
X154684033Y-88957902D01*
X154791783Y-88904027D01*
X154845658Y-88850152D01*
X154899532Y-88742402D01*
X154899532Y-88688528D01*
X154710971Y-88499966D01*
X154603221Y-88607715D01*
X155195844Y-88499966D02*
X154630158Y-87934280D01*
X154845658Y-87718781D01*
X154926470Y-87691844D01*
X154980345Y-87691844D01*
X155061157Y-87718781D01*
X155141969Y-87799593D01*
X155168906Y-87880406D01*
X155168906Y-87934280D01*
X155141969Y-88015093D01*
X154926470Y-88230592D01*
X155222781Y-87449407D02*
X155222781Y-87395532D01*
X155249719Y-87314720D01*
X155384406Y-87180033D01*
X155465218Y-87153096D01*
X155519093Y-87153096D01*
X155599905Y-87180033D01*
X155653780Y-87233908D01*
X155707654Y-87341658D01*
X155707654Y-87988155D01*
X156057841Y-87637969D01*
X155761529Y-86910659D02*
X155761529Y-86856784D01*
X155788467Y-86775972D01*
X155923154Y-86641285D01*
X156003966Y-86614348D01*
X156057841Y-86614348D01*
X156138653Y-86641285D01*
X156192528Y-86695160D01*
X156246402Y-86802910D01*
X156246402Y-87449407D01*
X156596589Y-87099221D01*
X128776158Y-65128155D02*
X128695346Y-65155093D01*
X128614534Y-65235905D01*
X128560659Y-65343654D01*
X128560659Y-65451404D01*
X128587597Y-65532216D01*
X128668409Y-65666903D01*
X128749221Y-65747715D01*
X128883908Y-65828528D01*
X128964720Y-65855465D01*
X129072470Y-65855465D01*
X129180219Y-65801590D01*
X129234094Y-65747715D01*
X129287969Y-65639966D01*
X129287969Y-65586091D01*
X129099407Y-65397529D01*
X128991658Y-65505279D01*
X129584280Y-65397529D02*
X129018595Y-64831844D01*
X129907529Y-65074280D01*
X129341844Y-64508595D01*
X130176903Y-64804906D02*
X129611218Y-64239221D01*
X129745905Y-64104534D01*
X129853654Y-64050659D01*
X129961404Y-64050659D01*
X130042216Y-64077597D01*
X130176903Y-64158409D01*
X130257715Y-64239221D01*
X130338528Y-64373908D01*
X130365465Y-64454720D01*
X130365465Y-64562470D01*
X130311590Y-64670219D01*
X130176903Y-64804906D01*
X154387722Y-75276592D02*
X154306910Y-75303529D01*
X154226097Y-75384341D01*
X154172223Y-75492091D01*
X154172223Y-75599841D01*
X154199160Y-75680653D01*
X154279972Y-75815340D01*
X154360784Y-75896152D01*
X154495471Y-75976964D01*
X154576284Y-76003902D01*
X154684033Y-76003902D01*
X154791783Y-75950027D01*
X154845658Y-75896152D01*
X154899532Y-75788402D01*
X154899532Y-75734528D01*
X154710971Y-75545966D01*
X154603221Y-75653715D01*
X155195844Y-75545966D02*
X154630158Y-74980280D01*
X154845658Y-74764781D01*
X154926470Y-74737844D01*
X154980345Y-74737844D01*
X155061157Y-74764781D01*
X155141969Y-74845593D01*
X155168906Y-74926406D01*
X155168906Y-74980280D01*
X155141969Y-75061093D01*
X154926470Y-75276592D01*
X155222781Y-74495407D02*
X155222781Y-74441532D01*
X155249719Y-74360720D01*
X155384406Y-74226033D01*
X155465218Y-74199096D01*
X155519093Y-74199096D01*
X155599905Y-74226033D01*
X155653780Y-74279908D01*
X155707654Y-74387658D01*
X155707654Y-75034155D01*
X156057841Y-74683969D01*
X156057841Y-74037471D02*
X155977028Y-74064409D01*
X155923154Y-74064409D01*
X155842341Y-74037471D01*
X155815404Y-74010534D01*
X155788467Y-73929722D01*
X155788467Y-73875847D01*
X155815404Y-73795035D01*
X155923154Y-73687285D01*
X156003966Y-73660348D01*
X156057841Y-73660348D01*
X156138653Y-73687285D01*
X156165590Y-73714223D01*
X156192528Y-73795035D01*
X156192528Y-73848910D01*
X156165590Y-73929722D01*
X156057841Y-74037471D01*
X156030903Y-74118284D01*
X156030903Y-74172158D01*
X156057841Y-74252971D01*
X156165590Y-74360720D01*
X156246402Y-74387658D01*
X156300277Y-74387658D01*
X156381089Y-74360720D01*
X156488839Y-74252971D01*
X156515776Y-74172158D01*
X156515776Y-74118284D01*
X156488839Y-74037471D01*
X156381089Y-73929722D01*
X156300277Y-73902784D01*
X156246402Y-73902784D01*
X156165590Y-73929722D01*
X128903096Y-82851218D02*
X128822284Y-82878155D01*
X128741471Y-82958967D01*
X128687597Y-83066717D01*
X128687597Y-83174467D01*
X128714534Y-83255279D01*
X128795346Y-83389966D01*
X128876158Y-83470778D01*
X129010845Y-83551590D01*
X129091658Y-83578528D01*
X129199407Y-83578528D01*
X129307157Y-83524653D01*
X129361032Y-83470778D01*
X129414906Y-83363028D01*
X129414906Y-83309154D01*
X129226345Y-83120592D01*
X129118595Y-83228341D01*
X129711218Y-83120592D02*
X129145532Y-82554906D01*
X129361032Y-82339407D01*
X129441844Y-82312470D01*
X129495719Y-82312470D01*
X129576531Y-82339407D01*
X129657343Y-82420219D01*
X129684280Y-82501032D01*
X129684280Y-82554906D01*
X129657343Y-82635719D01*
X129441844Y-82851218D01*
X129657343Y-82043096D02*
X130034467Y-81665972D01*
X130357715Y-82474094D01*
X154210473Y-63099966D02*
X154964720Y-63477089D01*
X154587597Y-62722842D01*
X155287969Y-63099966D02*
X155395719Y-63046091D01*
X155530406Y-62911404D01*
X155557343Y-62830592D01*
X155557343Y-62776717D01*
X155530406Y-62695905D01*
X155476531Y-62642030D01*
X155395719Y-62615093D01*
X155341844Y-62615093D01*
X155261032Y-62642030D01*
X155126345Y-62722842D01*
X155045532Y-62749780D01*
X154991658Y-62749780D01*
X154910845Y-62722842D01*
X154856971Y-62668967D01*
X154830033Y-62588155D01*
X154830033Y-62534280D01*
X154856971Y-62453468D01*
X154991658Y-62318781D01*
X155099407Y-62264906D01*
X155718967Y-62184094D02*
X155988341Y-62453468D01*
X155234094Y-62076345D02*
X155718967Y-62184094D01*
X155611218Y-61699221D01*
X156311590Y-62076345D02*
X156419340Y-62022470D01*
X156554027Y-61887783D01*
X156580964Y-61806971D01*
X156580964Y-61753096D01*
X156554027Y-61672284D01*
X156500152Y-61618409D01*
X156419340Y-61591471D01*
X156365465Y-61591471D01*
X156284653Y-61618409D01*
X156149966Y-61699221D01*
X156069154Y-61726158D01*
X156015279Y-61726158D01*
X155934467Y-61699221D01*
X155880592Y-61645346D01*
X155853654Y-61564534D01*
X155853654Y-61510659D01*
X155880592Y-61429847D01*
X156015279Y-61295160D01*
X156123028Y-61241285D01*
X128776158Y-90528155D02*
X128695346Y-90555093D01*
X128614534Y-90635905D01*
X128560659Y-90743654D01*
X128560659Y-90851404D01*
X128587597Y-90932216D01*
X128668409Y-91066903D01*
X128749221Y-91147715D01*
X128883908Y-91228528D01*
X128964720Y-91255465D01*
X129072470Y-91255465D01*
X129180219Y-91201590D01*
X129234094Y-91147715D01*
X129287969Y-91039966D01*
X129287969Y-90986091D01*
X129099407Y-90797529D01*
X128991658Y-90905279D01*
X129584280Y-90797529D02*
X129018595Y-90231844D01*
X129907529Y-90474280D01*
X129341844Y-89908595D01*
X130176903Y-90204906D02*
X129611218Y-89639221D01*
X129745905Y-89504534D01*
X129853654Y-89450659D01*
X129961404Y-89450659D01*
X130042216Y-89477597D01*
X130176903Y-89558409D01*
X130257715Y-89639221D01*
X130338528Y-89773908D01*
X130365465Y-89854720D01*
X130365465Y-89962470D01*
X130311590Y-90070219D01*
X130176903Y-90204906D01*
X128803096Y-85421218D02*
X128722284Y-85448155D01*
X128641471Y-85528967D01*
X128587597Y-85636717D01*
X128587597Y-85744467D01*
X128614534Y-85825279D01*
X128695346Y-85959966D01*
X128776158Y-86040778D01*
X128910845Y-86121590D01*
X128991658Y-86148528D01*
X129099407Y-86148528D01*
X129207157Y-86094653D01*
X129261032Y-86040778D01*
X129314906Y-85933028D01*
X129314906Y-85879154D01*
X129126345Y-85690592D01*
X129018595Y-85798341D01*
X129611218Y-85690592D02*
X129045532Y-85124906D01*
X129261032Y-84909407D01*
X129341844Y-84882470D01*
X129395719Y-84882470D01*
X129476531Y-84909407D01*
X129557343Y-84990219D01*
X129584280Y-85071032D01*
X129584280Y-85124906D01*
X129557343Y-85205719D01*
X129341844Y-85421218D01*
X129934467Y-84720845D02*
X129853654Y-84747783D01*
X129799780Y-84747783D01*
X129718967Y-84720845D01*
X129692030Y-84693908D01*
X129665093Y-84613096D01*
X129665093Y-84559221D01*
X129692030Y-84478409D01*
X129799780Y-84370659D01*
X129880592Y-84343722D01*
X129934467Y-84343722D01*
X130015279Y-84370659D01*
X130042216Y-84397597D01*
X130069154Y-84478409D01*
X130069154Y-84532284D01*
X130042216Y-84613096D01*
X129934467Y-84720845D01*
X129907529Y-84801658D01*
X129907529Y-84855532D01*
X129934467Y-84936345D01*
X130042216Y-85044094D01*
X130123028Y-85071032D01*
X130176903Y-85071032D01*
X130257715Y-85044094D01*
X130365465Y-84936345D01*
X130392402Y-84855532D01*
X130392402Y-84801658D01*
X130365465Y-84720845D01*
X130257715Y-84613096D01*
X130176903Y-84586158D01*
X130123028Y-84586158D01*
X130042216Y-84613096D01*
X128133722Y-95850592D02*
X128052910Y-95877529D01*
X127972097Y-95958341D01*
X127918223Y-96066091D01*
X127918223Y-96173841D01*
X127945160Y-96254653D01*
X128025972Y-96389340D01*
X128106784Y-96470152D01*
X128241471Y-96550964D01*
X128322284Y-96577902D01*
X128430033Y-96577902D01*
X128537783Y-96524027D01*
X128591658Y-96470152D01*
X128645532Y-96362402D01*
X128645532Y-96308528D01*
X128456971Y-96119966D01*
X128349221Y-96227715D01*
X128941844Y-96119966D02*
X128376158Y-95554280D01*
X128591658Y-95338781D01*
X128672470Y-95311844D01*
X128726345Y-95311844D01*
X128807157Y-95338781D01*
X128887969Y-95419593D01*
X128914906Y-95500406D01*
X128914906Y-95554280D01*
X128887969Y-95635093D01*
X128672470Y-95850592D01*
X129803841Y-95257969D02*
X129480592Y-95581218D01*
X129642216Y-95419593D02*
X129076531Y-94853908D01*
X129103468Y-94988595D01*
X129103468Y-95096345D01*
X129076531Y-95177157D01*
X130342589Y-94719221D02*
X130019340Y-95042470D01*
X130180964Y-94880845D02*
X129615279Y-94315160D01*
X129642216Y-94449847D01*
X129642216Y-94557597D01*
X129615279Y-94638409D01*
X128803096Y-75261218D02*
X128722284Y-75288155D01*
X128641471Y-75368967D01*
X128587597Y-75476717D01*
X128587597Y-75584467D01*
X128614534Y-75665279D01*
X128695346Y-75799966D01*
X128776158Y-75880778D01*
X128910845Y-75961590D01*
X128991658Y-75988528D01*
X129099407Y-75988528D01*
X129207157Y-75934653D01*
X129261032Y-75880778D01*
X129314906Y-75773028D01*
X129314906Y-75719154D01*
X129126345Y-75530592D01*
X129018595Y-75638341D01*
X129611218Y-75530592D02*
X129045532Y-74964906D01*
X129261032Y-74749407D01*
X129341844Y-74722470D01*
X129395719Y-74722470D01*
X129476531Y-74749407D01*
X129557343Y-74830219D01*
X129584280Y-74911032D01*
X129584280Y-74964906D01*
X129557343Y-75045719D01*
X129341844Y-75261218D01*
X129880592Y-74129847D02*
X129611218Y-74399221D01*
X129853654Y-74695532D01*
X129853654Y-74641658D01*
X129880592Y-74560845D01*
X130015279Y-74426158D01*
X130096091Y-74399221D01*
X130149966Y-74399221D01*
X130230778Y-74426158D01*
X130365465Y-74560845D01*
X130392402Y-74641658D01*
X130392402Y-74695532D01*
X130365465Y-74776345D01*
X130230778Y-74911032D01*
X130149966Y-74937969D01*
X130096091Y-74937969D01*
X154441597Y-78770964D02*
X154710971Y-78501590D01*
X154549346Y-78986463D02*
X154172223Y-78232216D01*
X154926470Y-78609340D01*
X154872595Y-77585719D02*
X154791783Y-77612656D01*
X154710971Y-77693468D01*
X154657096Y-77801218D01*
X154657096Y-77908967D01*
X154684033Y-77989780D01*
X154764845Y-78124467D01*
X154845658Y-78205279D01*
X154980345Y-78286091D01*
X155061157Y-78313028D01*
X155168906Y-78313028D01*
X155276656Y-78259154D01*
X155330531Y-78205279D01*
X155384406Y-78097529D01*
X155384406Y-78043654D01*
X155195844Y-77855093D01*
X155088094Y-77962842D01*
X155680717Y-77855093D02*
X155115032Y-77289407D01*
X156003966Y-77531844D01*
X155438280Y-76966158D01*
X156273340Y-77262470D02*
X155707654Y-76696784D01*
X155842341Y-76562097D01*
X155950091Y-76508223D01*
X156057841Y-76508223D01*
X156138653Y-76535160D01*
X156273340Y-76615972D01*
X156354152Y-76696784D01*
X156434964Y-76831471D01*
X156461902Y-76912284D01*
X156461902Y-77020033D01*
X156408027Y-77127783D01*
X156273340Y-77262470D01*
X154387722Y-95850592D02*
X154306910Y-95877529D01*
X154226097Y-95958341D01*
X154172223Y-96066091D01*
X154172223Y-96173841D01*
X154199160Y-96254653D01*
X154279972Y-96389340D01*
X154360784Y-96470152D01*
X154495471Y-96550964D01*
X154576284Y-96577902D01*
X154684033Y-96577902D01*
X154791783Y-96524027D01*
X154845658Y-96470152D01*
X154899532Y-96362402D01*
X154899532Y-96308528D01*
X154710971Y-96119966D01*
X154603221Y-96227715D01*
X155195844Y-96119966D02*
X154630158Y-95554280D01*
X154845658Y-95338781D01*
X154926470Y-95311844D01*
X154980345Y-95311844D01*
X155061157Y-95338781D01*
X155141969Y-95419593D01*
X155168906Y-95500406D01*
X155168906Y-95554280D01*
X155141969Y-95635093D01*
X154926470Y-95850592D01*
X155222781Y-95069407D02*
X155222781Y-95015532D01*
X155249719Y-94934720D01*
X155384406Y-94800033D01*
X155465218Y-94773096D01*
X155519093Y-94773096D01*
X155599905Y-94800033D01*
X155653780Y-94853908D01*
X155707654Y-94961658D01*
X155707654Y-95608155D01*
X156057841Y-95257969D01*
X155842341Y-94342097D02*
X155896216Y-94288223D01*
X155977028Y-94261285D01*
X156030903Y-94261285D01*
X156111715Y-94288223D01*
X156246402Y-94369035D01*
X156381089Y-94503722D01*
X156461902Y-94638409D01*
X156488839Y-94719221D01*
X156488839Y-94773096D01*
X156461902Y-94853908D01*
X156408027Y-94907783D01*
X156327215Y-94934720D01*
X156273340Y-94934720D01*
X156192528Y-94907783D01*
X156057841Y-94826971D01*
X155923154Y-94692284D01*
X155842341Y-94557597D01*
X155815404Y-94476784D01*
X155815404Y-94422910D01*
X155842341Y-94342097D01*
X128233722Y-106010592D02*
X128152910Y-106037529D01*
X128072097Y-106118341D01*
X128018223Y-106226091D01*
X128018223Y-106333841D01*
X128045160Y-106414653D01*
X128125972Y-106549340D01*
X128206784Y-106630152D01*
X128341471Y-106710964D01*
X128422284Y-106737902D01*
X128530033Y-106737902D01*
X128637783Y-106684027D01*
X128691658Y-106630152D01*
X128745532Y-106522402D01*
X128745532Y-106468528D01*
X128556971Y-106279966D01*
X128449221Y-106387715D01*
X129041844Y-106279966D02*
X128476158Y-105714280D01*
X128691658Y-105498781D01*
X128772470Y-105471844D01*
X128826345Y-105471844D01*
X128907157Y-105498781D01*
X128987969Y-105579593D01*
X129014906Y-105660406D01*
X129014906Y-105714280D01*
X128987969Y-105795093D01*
X128772470Y-106010592D01*
X129903841Y-105417969D02*
X129580592Y-105741218D01*
X129742216Y-105579593D02*
X129176531Y-105013908D01*
X129203468Y-105148595D01*
X129203468Y-105256345D01*
X129176531Y-105337157D01*
X130011590Y-104555972D02*
X130388714Y-104933096D01*
X129661404Y-104475160D02*
X129930778Y-105013908D01*
X130280964Y-104663722D01*
X154444788Y-73563773D02*
X154714162Y-73294399D01*
X154552537Y-73779272D02*
X154175414Y-73025025D01*
X154929661Y-73402149D01*
X155118223Y-73213587D02*
X154552537Y-72647902D01*
X154687224Y-72513215D01*
X154794974Y-72459340D01*
X154902723Y-72459340D01*
X154983536Y-72486277D01*
X155118223Y-72567089D01*
X155199035Y-72647902D01*
X155279847Y-72782589D01*
X155306784Y-72863401D01*
X155306784Y-72971150D01*
X155252910Y-73078900D01*
X155118223Y-73213587D01*
X155953282Y-72270778D02*
X155953282Y-72324653D01*
X155899407Y-72432402D01*
X155845532Y-72486277D01*
X155737783Y-72540152D01*
X155630033Y-72540152D01*
X155549221Y-72513215D01*
X155414534Y-72432402D01*
X155333722Y-72351590D01*
X155252910Y-72216903D01*
X155225972Y-72136091D01*
X155225972Y-72028341D01*
X155279847Y-71920592D01*
X155333722Y-71866717D01*
X155441471Y-71812842D01*
X155495346Y-71812842D01*
X156168781Y-72270778D02*
X156599780Y-71839780D01*
X156034094Y-71166345D02*
X156788341Y-71543468D01*
X156411218Y-70789221D01*
X157488714Y-70843096D02*
X157030778Y-70762284D01*
X157165465Y-71166345D02*
X156599780Y-70600659D01*
X156815279Y-70385160D01*
X156896091Y-70358223D01*
X156949966Y-70358223D01*
X157030778Y-70385160D01*
X157111590Y-70465972D01*
X157138528Y-70546784D01*
X157138528Y-70600659D01*
X157111590Y-70681471D01*
X156896091Y-70896971D01*
X157434839Y-70304348D02*
X157623401Y-70115786D01*
X158000524Y-70331285D02*
X157731150Y-70600659D01*
X157165465Y-70034974D01*
X157434839Y-69765600D01*
X158135211Y-69603975D02*
X157946650Y-69792537D01*
X158242961Y-70088849D02*
X157677276Y-69523163D01*
X157946650Y-69253789D01*
%TO.C,R7*%
X145629333Y-75636380D02*
X145296000Y-75160190D01*
X145057904Y-75636380D02*
X145057904Y-74636380D01*
X145438857Y-74636380D01*
X145534095Y-74684000D01*
X145581714Y-74731619D01*
X145629333Y-74826857D01*
X145629333Y-74969714D01*
X145581714Y-75064952D01*
X145534095Y-75112571D01*
X145438857Y-75160190D01*
X145057904Y-75160190D01*
X145962666Y-74636380D02*
X146629333Y-74636380D01*
X146200761Y-75636380D01*
X137914285Y-74636380D02*
X138533333Y-74636380D01*
X138200000Y-75017333D01*
X138342857Y-75017333D01*
X138438095Y-75064952D01*
X138485714Y-75112571D01*
X138533333Y-75207809D01*
X138533333Y-75445904D01*
X138485714Y-75541142D01*
X138438095Y-75588761D01*
X138342857Y-75636380D01*
X138057142Y-75636380D01*
X137961904Y-75588761D01*
X137914285Y-75541142D01*
X138866666Y-74636380D02*
X139485714Y-74636380D01*
X139152380Y-75017333D01*
X139295238Y-75017333D01*
X139390476Y-75064952D01*
X139438095Y-75112571D01*
X139485714Y-75207809D01*
X139485714Y-75445904D01*
X139438095Y-75541142D01*
X139390476Y-75588761D01*
X139295238Y-75636380D01*
X139009523Y-75636380D01*
X138914285Y-75588761D01*
X138866666Y-75541142D01*
X140104761Y-74636380D02*
X140200000Y-74636380D01*
X140295238Y-74684000D01*
X140342857Y-74731619D01*
X140390476Y-74826857D01*
X140438095Y-75017333D01*
X140438095Y-75255428D01*
X140390476Y-75445904D01*
X140342857Y-75541142D01*
X140295238Y-75588761D01*
X140200000Y-75636380D01*
X140104761Y-75636380D01*
X140009523Y-75588761D01*
X139961904Y-75541142D01*
X139914285Y-75445904D01*
X139866666Y-75255428D01*
X139866666Y-75017333D01*
X139914285Y-74826857D01*
X139961904Y-74731619D01*
X140009523Y-74684000D01*
X140104761Y-74636380D01*
X141438095Y-75636380D02*
X141104761Y-75160190D01*
X140866666Y-75636380D02*
X140866666Y-74636380D01*
X141247619Y-74636380D01*
X141342857Y-74684000D01*
X141390476Y-74731619D01*
X141438095Y-74826857D01*
X141438095Y-74969714D01*
X141390476Y-75064952D01*
X141342857Y-75112571D01*
X141247619Y-75160190D01*
X140866666Y-75160190D01*
%TO.C,R8*%
X145629333Y-85288380D02*
X145296000Y-84812190D01*
X145057904Y-85288380D02*
X145057904Y-84288380D01*
X145438857Y-84288380D01*
X145534095Y-84336000D01*
X145581714Y-84383619D01*
X145629333Y-84478857D01*
X145629333Y-84621714D01*
X145581714Y-84716952D01*
X145534095Y-84764571D01*
X145438857Y-84812190D01*
X145057904Y-84812190D01*
X146200761Y-84716952D02*
X146105523Y-84669333D01*
X146057904Y-84621714D01*
X146010285Y-84526476D01*
X146010285Y-84478857D01*
X146057904Y-84383619D01*
X146105523Y-84336000D01*
X146200761Y-84288380D01*
X146391238Y-84288380D01*
X146486476Y-84336000D01*
X146534095Y-84383619D01*
X146581714Y-84478857D01*
X146581714Y-84526476D01*
X146534095Y-84621714D01*
X146486476Y-84669333D01*
X146391238Y-84716952D01*
X146200761Y-84716952D01*
X146105523Y-84764571D01*
X146057904Y-84812190D01*
X146010285Y-84907428D01*
X146010285Y-85097904D01*
X146057904Y-85193142D01*
X146105523Y-85240761D01*
X146200761Y-85288380D01*
X146391238Y-85288380D01*
X146486476Y-85240761D01*
X146534095Y-85193142D01*
X146581714Y-85097904D01*
X146581714Y-84907428D01*
X146534095Y-84812190D01*
X146486476Y-84764571D01*
X146391238Y-84716952D01*
X138438095Y-84288380D02*
X138247619Y-84288380D01*
X138152380Y-84336000D01*
X138104761Y-84383619D01*
X138009523Y-84526476D01*
X137961904Y-84716952D01*
X137961904Y-85097904D01*
X138009523Y-85193142D01*
X138057142Y-85240761D01*
X138152380Y-85288380D01*
X138342857Y-85288380D01*
X138438095Y-85240761D01*
X138485714Y-85193142D01*
X138533333Y-85097904D01*
X138533333Y-84859809D01*
X138485714Y-84764571D01*
X138438095Y-84716952D01*
X138342857Y-84669333D01*
X138152380Y-84669333D01*
X138057142Y-84716952D01*
X138009523Y-84764571D01*
X137961904Y-84859809D01*
X139104761Y-84716952D02*
X139009523Y-84669333D01*
X138961904Y-84621714D01*
X138914285Y-84526476D01*
X138914285Y-84478857D01*
X138961904Y-84383619D01*
X139009523Y-84336000D01*
X139104761Y-84288380D01*
X139295238Y-84288380D01*
X139390476Y-84336000D01*
X139438095Y-84383619D01*
X139485714Y-84478857D01*
X139485714Y-84526476D01*
X139438095Y-84621714D01*
X139390476Y-84669333D01*
X139295238Y-84716952D01*
X139104761Y-84716952D01*
X139009523Y-84764571D01*
X138961904Y-84812190D01*
X138914285Y-84907428D01*
X138914285Y-85097904D01*
X138961904Y-85193142D01*
X139009523Y-85240761D01*
X139104761Y-85288380D01*
X139295238Y-85288380D01*
X139390476Y-85240761D01*
X139438095Y-85193142D01*
X139485714Y-85097904D01*
X139485714Y-84907428D01*
X139438095Y-84812190D01*
X139390476Y-84764571D01*
X139295238Y-84716952D01*
X140104761Y-84288380D02*
X140200000Y-84288380D01*
X140295238Y-84336000D01*
X140342857Y-84383619D01*
X140390476Y-84478857D01*
X140438095Y-84669333D01*
X140438095Y-84907428D01*
X140390476Y-85097904D01*
X140342857Y-85193142D01*
X140295238Y-85240761D01*
X140200000Y-85288380D01*
X140104761Y-85288380D01*
X140009523Y-85240761D01*
X139961904Y-85193142D01*
X139914285Y-85097904D01*
X139866666Y-84907428D01*
X139866666Y-84669333D01*
X139914285Y-84478857D01*
X139961904Y-84383619D01*
X140009523Y-84336000D01*
X140104761Y-84288380D01*
X141438095Y-85288380D02*
X141104761Y-84812190D01*
X140866666Y-85288380D02*
X140866666Y-84288380D01*
X141247619Y-84288380D01*
X141342857Y-84336000D01*
X141390476Y-84383619D01*
X141438095Y-84478857D01*
X141438095Y-84621714D01*
X141390476Y-84716952D01*
X141342857Y-84764571D01*
X141247619Y-84812190D01*
X140866666Y-84812190D01*
D11*
%TO.C,R11*%
X136430000Y-86844000D02*
X136430000Y-86514000D01*
X136430000Y-89254000D02*
X142970000Y-89254000D01*
X136430000Y-86514000D02*
X142970000Y-86514000D01*
X136430000Y-88924000D02*
X136430000Y-89254000D01*
X142970000Y-89254000D02*
X142970000Y-88924000D01*
X142970000Y-86514000D02*
X142970000Y-86844000D01*
%TO.C,R10*%
X142970000Y-91972000D02*
X142970000Y-92302000D01*
X142970000Y-89562000D02*
X136430000Y-89562000D01*
X136430000Y-89562000D02*
X136430000Y-89892000D01*
X142970000Y-92302000D02*
X136430000Y-92302000D01*
X136430000Y-92302000D02*
X136430000Y-91972000D01*
X142970000Y-89892000D02*
X142970000Y-89562000D01*
%TO.C,R9*%
X142970000Y-80418000D02*
X136430000Y-80418000D01*
X136430000Y-80418000D02*
X136430000Y-80748000D01*
X136430000Y-83158000D02*
X136430000Y-82828000D01*
X142970000Y-80748000D02*
X142970000Y-80418000D01*
X142970000Y-83158000D02*
X136430000Y-83158000D01*
X142970000Y-82828000D02*
X142970000Y-83158000D01*
%TO.C,R12*%
X146712000Y-101124000D02*
X147042000Y-101124000D01*
X146712000Y-107664000D02*
X146712000Y-101124000D01*
X149122000Y-107664000D02*
X149452000Y-107664000D01*
X149452000Y-107664000D02*
X149452000Y-101124000D01*
X147042000Y-107664000D02*
X146712000Y-107664000D01*
X149452000Y-101124000D02*
X149122000Y-101124000D01*
%TO.C,R6*%
X142970000Y-79272000D02*
X142970000Y-79602000D01*
X142970000Y-77192000D02*
X142970000Y-76862000D01*
X142970000Y-76862000D02*
X136430000Y-76862000D01*
X142970000Y-79602000D02*
X136430000Y-79602000D01*
X136430000Y-76862000D02*
X136430000Y-77192000D01*
X136430000Y-79602000D02*
X136430000Y-79272000D01*
%TO.C,R13*%
X149452000Y-96742000D02*
X149452000Y-90202000D01*
X149452000Y-90202000D02*
X149122000Y-90202000D01*
X149122000Y-96742000D02*
X149452000Y-96742000D01*
X146712000Y-90202000D02*
X147042000Y-90202000D01*
X147042000Y-96742000D02*
X146712000Y-96742000D01*
X146712000Y-96742000D02*
X146712000Y-90202000D01*
%TO.C,R1*%
X136430000Y-94464000D02*
X136430000Y-94134000D01*
X136430000Y-94134000D02*
X142970000Y-94134000D01*
X136430000Y-96874000D02*
X142970000Y-96874000D01*
X142970000Y-94134000D02*
X142970000Y-94464000D01*
X136430000Y-96544000D02*
X136430000Y-96874000D01*
X142970000Y-96874000D02*
X142970000Y-96544000D01*
%TO.C,R3*%
X142970000Y-109320000D02*
X142970000Y-108990000D01*
X136430000Y-106580000D02*
X142970000Y-106580000D01*
X136430000Y-108990000D02*
X136430000Y-109320000D01*
X136430000Y-109320000D02*
X142970000Y-109320000D01*
X142970000Y-106580000D02*
X142970000Y-106910000D01*
X136430000Y-106910000D02*
X136430000Y-106580000D01*
%TO.C,R2*%
X136430000Y-101624000D02*
X136430000Y-101954000D01*
X142970000Y-101954000D02*
X142970000Y-101624000D01*
X136430000Y-99544000D02*
X136430000Y-99214000D01*
X142970000Y-99214000D02*
X142970000Y-99544000D01*
X136430000Y-101954000D02*
X142970000Y-101954000D01*
X136430000Y-99214000D02*
X142970000Y-99214000D01*
%TO.C,R4*%
X136430000Y-73506000D02*
X142970000Y-73506000D01*
X142970000Y-70766000D02*
X142970000Y-71096000D01*
X136430000Y-73176000D02*
X136430000Y-73506000D01*
X142970000Y-73506000D02*
X142970000Y-73176000D01*
X136430000Y-71096000D02*
X136430000Y-70766000D01*
X136430000Y-70766000D02*
X142970000Y-70766000D01*
D12*
%TO.C,J2*%
X157797500Y-110064600D02*
X126733300Y-110064600D01*
X126733300Y-110064600D02*
X126733300Y-126727000D01*
X150520400Y-126473000D02*
X134010400Y-126473000D01*
X131497600Y-132518200D02*
X128043200Y-132518200D01*
X131497600Y-126727000D02*
X131497600Y-132518200D01*
X150520400Y-132518200D02*
X150520400Y-126473000D01*
X156487600Y-126727000D02*
X156487600Y-132518200D01*
X126733300Y-126727000D02*
X157797500Y-126727000D01*
X153033200Y-132518200D02*
X153033200Y-126727000D01*
X128043200Y-132518200D02*
X128043200Y-126727000D01*
X134010400Y-126473000D02*
X134010400Y-132518200D01*
X156487600Y-132518200D02*
X153033200Y-132518200D01*
X157797500Y-126727000D02*
X157797500Y-110064600D01*
X134010400Y-132518200D02*
X150520400Y-132518200D01*
D11*
%TO.C,J1*%
X141915000Y-59900000D02*
X141915000Y-53900000D01*
X144455000Y-53900000D02*
X145215000Y-53900000D01*
X137255000Y-59900000D02*
X137255000Y-53900000D01*
X141025000Y-62560000D02*
X141025000Y-59900000D01*
X146995000Y-53900000D02*
X147755000Y-53900000D01*
X137015000Y-59900000D02*
X137015000Y-53900000D01*
X136835000Y-53900000D02*
X137595000Y-53900000D01*
X141915000Y-62957071D02*
X141915000Y-62560000D01*
X145215000Y-53900000D02*
X145215000Y-59900000D01*
X140135000Y-53900000D02*
X140135000Y-59900000D01*
X142675000Y-62957071D02*
X142675000Y-62560000D01*
X147755000Y-62957071D02*
X147755000Y-62560000D01*
X137595000Y-62890000D02*
X137595000Y-62560000D01*
X143565000Y-62560000D02*
X143565000Y-59900000D01*
X137215000Y-65270000D02*
X135945000Y-65270000D01*
X137135000Y-59900000D02*
X137135000Y-53900000D01*
X136895000Y-59900000D02*
X136895000Y-53900000D01*
X138485000Y-62560000D02*
X138485000Y-59900000D01*
X140135000Y-62957071D02*
X140135000Y-62560000D01*
X135885000Y-62560000D02*
X148705000Y-62560000D01*
X139375000Y-59900000D02*
X139375000Y-53900000D01*
X144455000Y-62957071D02*
X144455000Y-62560000D01*
X136835000Y-59900000D02*
X136835000Y-53900000D01*
X139375000Y-53900000D02*
X140135000Y-53900000D01*
X137495000Y-59900000D02*
X137495000Y-53900000D01*
X146995000Y-62957071D02*
X146995000Y-62560000D01*
X137375000Y-59900000D02*
X137375000Y-53900000D01*
X147755000Y-53900000D02*
X147755000Y-59900000D01*
X135945000Y-65270000D02*
X135945000Y-64000000D01*
X148705000Y-59900000D02*
X135885000Y-59900000D01*
X145215000Y-62957071D02*
X145215000Y-62560000D01*
X148705000Y-62560000D02*
X148705000Y-59900000D01*
X142675000Y-53900000D02*
X142675000Y-59900000D01*
X146105000Y-62560000D02*
X146105000Y-59900000D01*
X146995000Y-59900000D02*
X146995000Y-53900000D01*
X136835000Y-62890000D02*
X136835000Y-62560000D01*
X144455000Y-59900000D02*
X144455000Y-53900000D01*
X139375000Y-62957071D02*
X139375000Y-62560000D01*
X137595000Y-53900000D02*
X137595000Y-59900000D01*
X141915000Y-53900000D02*
X142675000Y-53900000D01*
X135885000Y-59900000D02*
X135885000Y-62560000D01*
%TO.C,R5*%
X142970000Y-70458000D02*
X136430000Y-70458000D01*
X142970000Y-70128000D02*
X142970000Y-70458000D01*
X136430000Y-70458000D02*
X136430000Y-70128000D01*
X142970000Y-68048000D02*
X142970000Y-67718000D01*
X136430000Y-67718000D02*
X136430000Y-68048000D01*
X142970000Y-67718000D02*
X136430000Y-67718000D01*
%TO.C,U1*%
X152790000Y-91430000D02*
X152790000Y-91830000D01*
X131790000Y-81330000D02*
X131790000Y-81730000D01*
X152790000Y-58530000D02*
X152790000Y-58830000D01*
X152790000Y-81330000D02*
X152790000Y-81730000D01*
X152790000Y-76230000D02*
X152790000Y-76630000D01*
X131790000Y-58530000D02*
X131790000Y-58830000D01*
X152790000Y-71130000D02*
X152790000Y-71530000D01*
X131790000Y-61197000D02*
X134797000Y-61197000D01*
X131790000Y-78730000D02*
X131790000Y-79130000D01*
X152790000Y-99130000D02*
X152790000Y-99530000D01*
X152790000Y-63530000D02*
X152790000Y-63930000D01*
X131790000Y-83830000D02*
X131790000Y-84230000D01*
X143390000Y-109530000D02*
X143790000Y-109530000D01*
X131790000Y-60930000D02*
X131790000Y-61330000D01*
X131790000Y-86330000D02*
X131790000Y-86730000D01*
X131790000Y-71130000D02*
X131790000Y-71530000D01*
X152790000Y-106730000D02*
X152790000Y-107130000D01*
X152790000Y-60930000D02*
X152790000Y-61330000D01*
X131790000Y-91430000D02*
X131790000Y-91830000D01*
X140790000Y-109530000D02*
X141190000Y-109530000D01*
X152790000Y-68630000D02*
X152790000Y-69030000D01*
X131790000Y-58530000D02*
X152790000Y-58530000D01*
X131790000Y-99130000D02*
X131790000Y-99530000D01*
X131790000Y-101630000D02*
X131790000Y-102030000D01*
X152790000Y-96530000D02*
X152790000Y-96930000D01*
X131790000Y-68630000D02*
X131790000Y-69030000D01*
X152790000Y-73630000D02*
X152790000Y-74030000D01*
X152790000Y-88930000D02*
X152790000Y-89330000D01*
X138590000Y-109530000D02*
X131790000Y-109530000D01*
X152790000Y-83830000D02*
X152790000Y-84230000D01*
X138590000Y-109530000D02*
X145990000Y-109530000D01*
X131790000Y-76230000D02*
X131790000Y-76630000D01*
X131790000Y-73630000D02*
X131790000Y-74030000D01*
X152790000Y-109530000D02*
X145990000Y-109530000D01*
X152790000Y-66030000D02*
X152790000Y-66430000D01*
X152790000Y-78730000D02*
X152790000Y-79130000D01*
X131790000Y-106730000D02*
X131790000Y-107130000D01*
X131790000Y-66030000D02*
X131790000Y-66430000D01*
X152790000Y-104130000D02*
X152790000Y-104530000D01*
X131790000Y-88930000D02*
X131790000Y-89330000D01*
X152790000Y-101630000D02*
X152790000Y-102030000D01*
X131790000Y-63530000D02*
X131790000Y-63930000D01*
X134797000Y-61197000D02*
X134797000Y-58530000D01*
X131790000Y-94030000D02*
X131790000Y-94430000D01*
X131790000Y-96530000D02*
X131790000Y-96930000D01*
X152790000Y-94030000D02*
X152790000Y-94430000D01*
X131790000Y-104130000D02*
X131790000Y-104530000D01*
X152790000Y-86330000D02*
X152790000Y-86730000D01*
%TO.C,R7*%
X136430000Y-76224000D02*
X136430000Y-76554000D01*
X136430000Y-74144000D02*
X136430000Y-73814000D01*
X136430000Y-76554000D02*
X142970000Y-76554000D01*
X136430000Y-73814000D02*
X142970000Y-73814000D01*
X142970000Y-76554000D02*
X142970000Y-76224000D01*
X142970000Y-73814000D02*
X142970000Y-74144000D01*
%TO.C,R8*%
X136430000Y-83466000D02*
X142970000Y-83466000D01*
X136430000Y-86206000D02*
X142970000Y-86206000D01*
X142970000Y-83466000D02*
X142970000Y-83796000D01*
X136430000Y-83796000D02*
X136430000Y-83466000D01*
X136430000Y-85876000D02*
X136430000Y-86206000D01*
X142970000Y-86206000D02*
X142970000Y-85876000D01*
%TD*%
M02*
