%TF.GenerationSoftware,KiCad,Pcbnew,(6.0.11)*%
%TF.CreationDate,2023-02-12T16:37:12-06:00*%
%TF.ProjectId,video_if_ql_vga,76696465-6f5f-4696-965f-716c5f766761,v1.0*%
%TF.SameCoordinates,Original*%
%TF.FileFunction,Soldermask,Top*%
%TF.FilePolarity,Negative*%
%FSLAX46Y46*%
G04 Gerber Fmt 4.6, Leading zero omitted, Abs format (unit mm)*
G04 Created by KiCad (PCBNEW (6.0.11)) date 2023-02-12 16:37:12*
%MOMM*%
%LPD*%
G01*
G04 APERTURE LIST*
%ADD10C,4.200400*%
%ADD11C,1.600200*%
%ADD12C,1.600000*%
%ADD13O,1.600000X1.600000*%
%ADD14O,1.700000X1.700000*%
%ADD15R,1.700000X1.700000*%
G04 APERTURE END LIST*
D10*
%TO.C,J2*%
X129770400Y-115170000D03*
X154760400Y-115170000D03*
D11*
X137435400Y-117710000D03*
X139725400Y-117710000D03*
X142015400Y-117710000D03*
X144305401Y-117710000D03*
X146595399Y-117710000D03*
X138544899Y-115170000D03*
X140834900Y-115170000D03*
X143124900Y-115170000D03*
X145414901Y-115170000D03*
X147704899Y-115170000D03*
X137435400Y-112630000D03*
X139725400Y-112630000D03*
X142015400Y-112630000D03*
X144305401Y-112630000D03*
X146595399Y-112630000D03*
%TD*%
D12*
%TO.C,R13*%
X148082000Y-97282000D03*
D13*
X148082000Y-89662000D03*
%TD*%
D12*
%TO.C,R12*%
X148082000Y-108204000D03*
D13*
X148082000Y-100584000D03*
%TD*%
D12*
%TO.C,R11*%
X135890000Y-87884000D03*
D13*
X143510000Y-87884000D03*
%TD*%
D12*
%TO.C,R10*%
X143510000Y-90932000D03*
D13*
X135890000Y-90932000D03*
%TD*%
D12*
%TO.C,R9*%
X143510000Y-81788000D03*
D13*
X135890000Y-81788000D03*
%TD*%
D12*
%TO.C,R8*%
X135890000Y-84836000D03*
D13*
X143510000Y-84836000D03*
%TD*%
D12*
%TO.C,R7*%
X135890000Y-75184000D03*
D13*
X143510000Y-75184000D03*
%TD*%
D12*
%TO.C,R6*%
X143510000Y-78232000D03*
D13*
X135890000Y-78232000D03*
%TD*%
D12*
%TO.C,R5*%
X143510000Y-69088000D03*
D13*
X135890000Y-69088000D03*
%TD*%
D12*
%TO.C,R4*%
X135890000Y-72136000D03*
D13*
X143510000Y-72136000D03*
%TD*%
D12*
%TO.C,R3*%
X135890000Y-107950000D03*
D13*
X143510000Y-107950000D03*
%TD*%
D12*
%TO.C,R2*%
X135890000Y-100584000D03*
D13*
X143510000Y-100584000D03*
%TD*%
D12*
%TO.C,R1*%
X135890000Y-95504000D03*
D13*
X143510000Y-95504000D03*
%TD*%
D14*
%TO.C,U1*%
X151180000Y-59900000D03*
X151180000Y-62440000D03*
D15*
X151180000Y-64980000D03*
D14*
X151180000Y-67520000D03*
X151180000Y-70060000D03*
X151180000Y-72600000D03*
X151180000Y-75140000D03*
D15*
X151180000Y-77680000D03*
D14*
X151180000Y-80220000D03*
X151180000Y-82760000D03*
X151180000Y-85300000D03*
X151180000Y-87840000D03*
D15*
X151180000Y-90380000D03*
D14*
X151180000Y-92920000D03*
X151180000Y-95460000D03*
X151180000Y-98000000D03*
X151180000Y-100540000D03*
D15*
X151180000Y-103080000D03*
D14*
X151180000Y-105620000D03*
X151180000Y-108160000D03*
X133400000Y-108160000D03*
X133400000Y-105620000D03*
D15*
X133400000Y-103080000D03*
D14*
X133400000Y-100540000D03*
X133400000Y-98000000D03*
X133400000Y-95460000D03*
X133400000Y-92920000D03*
D15*
X133400000Y-90380000D03*
D14*
X133400000Y-87840000D03*
X133400000Y-85300000D03*
X133400000Y-82760000D03*
X133400000Y-80220000D03*
D15*
X133400000Y-77680000D03*
D14*
X133400000Y-75140000D03*
X133400000Y-72600000D03*
X133400000Y-70060000D03*
X133400000Y-67520000D03*
D15*
X133400000Y-64980000D03*
D14*
X133400000Y-62440000D03*
X133400000Y-59900000D03*
%TD*%
D15*
%TO.C,J1*%
X137215000Y-64000000D03*
D14*
X139755000Y-64000000D03*
X142295000Y-64000000D03*
X144835000Y-64000000D03*
X147375000Y-64000000D03*
%TD*%
M02*
